<svg width="250" height="32" viewBox="0 0 250 32" fill="none" xmlns="http://www.w3.org/2000/svg">
<path d="M0 0.817383H3.1495V31.4805H0V0.817383ZM2.23248 28.6563H20.4413V31.4805H2.22956L2.23248 28.6563Z" fill="#2BB647"/>
<path d="M28.9058 30.6823C27.5109 29.9442 26.3896 28.8051 25.6983 27.4239C24.9211 25.8109 24.5432 24.0459 24.5944 22.2682V18.7041C24.5443 16.9462 24.9223 15.2014 25.6983 13.6098C26.3935 12.2389 27.5145 11.1107 28.9058 10.3821C30.4837 9.65328 32.2112 9.2749 33.961 9.2749C35.7108 9.2749 37.4384 9.65328 39.0163 10.3821C40.4075 11.1107 41.5286 12.2389 42.2237 13.6098C43.0002 15.2013 43.3788 16.9461 43.3291 18.7041V22.3338C43.3798 24.0982 43.0012 25.8495 42.2237 27.4476C41.5262 28.8191 40.406 29.9493 39.0163 30.6837C37.4405 31.4197 35.7121 31.8021 33.961 31.8021C32.2099 31.8021 30.4815 31.4197 28.9058 30.6837V30.6823ZM38.5455 27.2354C39.7106 25.8574 40.2931 24.1064 40.1767 22.3324V18.7027C40.2929 16.9381 39.7099 15.1968 38.5455 13.8304C37.9531 13.2386 37.2346 12.7774 36.4396 12.4788C35.6445 12.1802 34.7918 12.0512 33.94 12.1007C33.0926 12.0515 32.2443 12.1807 31.4539 12.4794C30.6636 12.7781 29.9503 13.2392 29.3636 13.8304C28.207 15.2004 27.6286 16.9401 27.7439 18.7027V22.3324C27.6282 24.1045 28.2062 25.8539 29.3636 27.2354C29.9486 27.8293 30.6614 28.2928 31.452 28.5933C32.2425 28.8938 33.0917 29.024 33.94 28.9749C34.7938 29.0248 35.6487 28.8948 36.445 28.5939C37.2414 28.293 37.9602 27.8284 38.5513 27.2326L38.5455 27.2354Z" fill="#2BB647"/>
<path d="M53.3744 30.7438C51.947 30.0723 50.795 28.9583 50.1032 27.5804C49.3266 25.9189 48.9564 24.1077 49.021 22.2865V18.6763C48.9562 16.8742 49.3309 15.0826 50.1148 13.4453C50.8141 12.0808 51.9651 10.9795 53.386 10.3153C55.0978 9.56519 56.9667 9.2073 58.8461 9.26964C59.9899 9.25904 61.1303 9.39087 62.239 9.6619C63.2114 9.90035 64.1361 10.2924 64.9756 10.8221C65.7912 11.348 66.5031 12.0098 67.0777 12.7765L64.7336 14.7799C64.0292 13.9313 63.1388 13.2433 62.126 12.7654C61.1217 12.3158 60.0258 12.0888 58.9186 12.1008C58.0029 12.0313 57.0821 12.14 56.211 12.4207C55.3398 12.7013 54.5363 13.148 53.8481 13.7342C53.2445 14.4117 52.7858 15.1974 52.4984 16.0463C52.211 16.8951 52.1005 17.7904 52.1734 18.6805V22.2865C52.0243 24.1107 52.6306 25.9176 53.8597 27.3123C54.5405 27.9069 55.34 28.3614 56.2094 28.648C57.0787 28.9346 57.9996 29.0473 58.9156 28.9792C60.0758 28.9939 61.2267 28.7786 62.2969 28.3468C63.3455 27.9026 64.2839 27.2482 65.0495 26.4272L67.085 28.3663C66.5069 29.1204 65.7952 29.7702 64.9828 30.2859C64.1418 30.8084 63.2173 31.1938 62.2462 31.4265C61.1362 31.6894 59.9963 31.8165 58.8534 31.8049C56.9663 31.8656 55.0906 31.5023 53.3744 30.7438Z" fill="#2BB647"/>
<path d="M73.0928 30.0266C72.3564 29.4096 71.7762 28.6385 71.3968 27.7722C71.0174 26.9059 70.8488 25.9675 70.9038 25.0287C70.849 24.1357 71.0002 23.2421 71.3466 22.4122C71.6931 21.5823 72.2261 20.8367 72.9073 20.229C74.5097 19.0125 76.5213 18.4081 78.5572 18.5314H86.1079L86.4136 21.3584H78.5805C77.371 21.2832 76.1729 21.6235 75.1991 22.3189C74.798 22.6842 74.4841 23.1292 74.2791 23.623C74.0741 24.1168 73.9829 24.6477 74.0118 25.1788C74.0407 25.7099 74.1891 26.2287 74.4467 26.6991C74.7042 27.1695 75.0648 27.5803 75.5034 27.9032C76.7728 28.6556 78.2519 29.0129 79.7394 28.9265C81.2796 28.9836 82.8188 28.7911 84.2927 28.3569C85.3735 27.9781 85.9133 27.4438 85.9123 26.7542L86.3716 29.6231C85.8679 30.1088 85.2794 30.5053 84.6331 30.7944C83.86 31.1446 83.0429 31.3961 82.2022 31.5427C81.232 31.7168 80.2468 31.8014 79.2599 31.7954C77.0515 31.9296 74.8655 31.3027 73.0928 30.0266V30.0266ZM85.9182 17.6016C85.9662 16.8546 85.8605 16.1058 85.6071 15.3983C85.3538 14.6908 84.9578 14.0385 84.4419 13.4791C83.8856 12.97 83.2263 12.577 82.5051 12.3248C81.7839 12.0725 81.0164 11.9665 80.2508 12.0132C79.1715 12.0125 78.0995 12.1838 77.0781 12.52C76.0802 12.8382 75.1485 13.3235 74.3256 13.9537L72.028 12.4348C72.9442 11.3991 74.113 10.599 75.4295 10.1062C76.9221 9.53343 78.5169 9.24882 80.1234 9.26856C81.7916 9.22451 83.4476 9.55325 84.962 10.229C86.2586 10.8284 87.3294 11.8018 88.026 13.0142C88.76 14.369 89.1217 15.8826 89.0763 17.4104V31.4771H85.9153L85.9182 17.6016Z" fill="#2BB647"/>
<path d="M99.0035 25.725C98.9535 26.5054 99.2065 27.2757 99.7134 27.8861C99.9648 28.1465 100.272 28.3505 100.615 28.4837C100.957 28.6168 101.325 28.676 101.694 28.6568H103.796V31.481H101.169C100.439 31.5227 99.7081 31.4082 99.0291 31.1456C98.3501 30.883 97.7397 30.4788 97.2419 29.9621C96.2452 28.7506 95.7497 27.2261 95.8511 25.6832V0.817871H99.0035V25.725Z" fill="#2BB647"/>
<path d="M109.488 0.817871H112.635V3.8557H109.485L109.488 0.817871ZM109.488 9.59072H112.635V31.481H109.485L109.488 9.59072Z" fill="#2BB647"/>
<path d="M135.752 11.951L123.513 28.7597H136.338V31.4806H119.425V29.0347L131.943 12.3112H119.728V9.59033H135.75L135.752 11.951Z" fill="#2BB647"/>
<path d="M143.341 30.0265C142.605 29.4094 142.026 28.6382 141.646 27.772C141.267 26.9057 141.098 25.9674 141.152 25.0287C141.098 24.1357 141.25 23.2423 141.596 22.4125C141.943 21.5826 142.475 20.837 143.156 20.229C144.758 19.0125 146.77 18.4081 148.806 18.5314H156.358L156.664 21.3584H148.828C147.618 21.2834 146.42 21.6237 145.446 22.3189C145.046 22.6844 144.732 23.1295 144.527 23.6234C144.323 24.1172 144.232 24.648 144.261 25.1791C144.29 25.7101 144.438 26.2288 144.696 26.6991C144.953 27.1694 145.314 27.5803 145.752 27.9031C147.021 28.6561 148.501 29.0134 149.988 28.9265C151.528 28.9834 153.067 28.7909 154.541 28.3569C155.62 27.9781 156.16 27.4438 156.161 26.7542L156.62 29.6231C156.117 30.1091 155.528 30.5056 154.882 30.7944C154.11 31.1443 153.293 31.3958 152.454 31.5427C151.483 31.7168 150.496 31.8015 149.509 31.7954C147.3 31.9296 145.114 31.3027 143.341 30.0265V30.0265ZM156.168 17.6016C156.217 16.8545 156.111 16.1055 155.857 15.398C155.604 14.6904 155.207 14.0382 154.691 13.4791C154.134 12.9698 153.475 12.5767 152.753 12.3245C152.032 12.0722 151.264 11.9663 150.498 12.0132C149.419 12.0127 148.347 12.1839 147.325 12.52C146.328 12.8382 145.396 13.3235 144.573 13.9537L142.275 12.4348C143.192 11.3987 144.361 10.5985 145.678 10.1062C147.171 9.53286 148.767 9.24824 150.373 9.26855C152.041 9.22454 153.696 9.55328 155.209 10.229C156.507 10.8271 157.578 11.8008 158.273 13.0142C159.008 14.3686 159.37 15.8825 159.324 17.4104V31.4771H156.174L156.168 17.6016Z" fill="#2BB647"/>
<path d="M178.141 0.817632H184.137V31.4807H178.141V0.817632ZM180.767 25.9133H190.917C192.066 25.9848 193.202 25.6425 194.104 24.9527C194.486 24.6127 194.785 24.1955 194.981 23.7308C195.176 23.2662 195.262 22.7658 195.232 22.2653V22.2011C195.253 21.509 195.079 20.8244 194.728 20.2201C194.384 19.6631 193.867 19.2238 193.251 18.9636C192.516 18.6591 191.721 18.5119 190.921 18.5323H180.767V12.9647H190.917C191.961 13.0284 192.992 12.7037 193.795 12.0573C194.144 11.726 194.414 11.3268 194.589 10.8864C194.764 10.446 194.839 9.97463 194.809 9.50395C194.833 9.07177 194.755 8.63999 194.579 8.24171C194.403 7.84343 194.135 7.48916 193.795 7.20599C192.967 6.61246 191.947 6.32158 190.917 6.38513H180.763V0.817632H191.114C192.925 0.76902 194.725 1.10257 196.389 1.79489C197.779 2.38722 198.944 3.38214 199.721 4.64146C200.511 6.00959 200.904 7.55767 200.858 9.12281C200.881 10.2223 200.629 11.311 200.125 12.2974C199.633 13.2208 198.897 14.0029 197.991 14.5647C196.966 15.1873 195.818 15.5967 194.62 15.7667C195.902 15.9082 197.133 16.3309 198.22 17.0022C199.2 17.6202 199.988 18.4841 200.497 19.5011C201.034 20.6167 201.3 21.8358 201.274 23.0653V23.1267C201.32 24.704 200.923 26.264 200.125 27.6415C199.343 28.9056 198.172 29.9042 196.775 30.4993C195.108 31.1907 193.304 31.5242 191.489 31.4765H180.769L180.767 25.9133Z" fill="white"/>
<path d="M212.633 22.8976C212.605 23.3467 212.673 23.7966 212.833 24.2193C212.993 24.642 213.241 25.0285 213.563 25.3546C213.917 25.6605 214.331 25.8955 214.78 26.046C215.229 26.1965 215.705 26.2595 216.179 26.2313C216.652 26.2607 217.126 26.1964 217.572 26.0422C218.018 25.8881 218.427 25.6474 218.773 25.3351C219.092 24.9869 219.337 24.5811 219.494 24.1411C219.65 23.7012 219.714 23.2359 219.682 22.7719L219.988 27.5604C219.582 28.7316 218.852 29.7737 217.876 30.5745C216.874 31.3972 215.592 31.8334 214.276 31.7988C213.217 31.8584 212.159 31.6853 211.18 31.2925C210.201 30.8997 209.328 30.2976 208.626 29.5317C207.189 27.6884 206.483 25.4106 206.637 23.1098V9.59033H212.633V22.8976ZM219.681 9.59033H225.654V31.4805H219.681V9.59033Z" fill="white"/>
<path d="M236.292 31.45C235.055 31.2324 233.845 30.8894 232.682 30.4267C231.621 30.0123 230.62 29.467 229.705 28.8044L233.403 24.3538C234.472 25.0179 235.628 25.5427 236.84 25.9146C237.941 26.2652 239.093 26.4503 240.253 26.4632C241.36 26.508 242.466 26.3542 243.515 26.0095C244.287 25.708 244.674 25.2892 244.674 24.7531C244.688 24.5418 244.649 24.3304 244.562 24.1362C244.474 23.9421 244.34 23.7707 244.17 23.6362C243.788 23.3646 243.346 23.1808 242.879 23.0987C242.148 22.9675 241.41 22.8743 240.669 22.8195C240.408 22.7902 240.141 22.7623 239.872 22.7358L239.049 22.6492C238.988 22.635 238.926 22.6247 238.863 22.6185C238.802 22.6117 238.74 22.608 238.678 22.6073C237.301 22.4581 235.939 22.1975 234.607 21.8283C233.571 21.5087 232.664 20.8855 232.013 20.0456C231.23 18.9176 230.856 17.5716 230.951 16.2176C230.889 14.8907 231.27 13.5797 232.038 12.477C232.807 11.3744 233.922 10.5383 235.22 10.0916C236.828 9.5126 238.537 9.23676 240.253 9.27914C241.411 9.27924 242.566 9.39292 243.701 9.6184C244.829 9.8384 245.932 10.1629 246.995 10.5873C248.017 10.9948 248.993 11.5039 249.906 12.1062L246.339 16.3027C245.356 15.7733 244.313 15.3559 243.23 15.0589C242.22 14.7737 241.175 14.6248 240.122 14.6163C239.164 14.578 238.206 14.7139 237.299 15.0169C236.627 15.2836 236.285 15.6577 236.285 16.1338C236.283 16.3103 236.332 16.4838 236.427 16.6348C236.522 16.7857 236.659 16.9081 236.822 16.9882C237.236 17.2122 237.688 17.3621 238.157 17.4307C238.691 17.5229 239.46 17.6248 240.489 17.7365C240.619 17.7519 240.75 17.7658 240.882 17.7784L241.274 17.8203C241.339 17.836 241.406 17.8435 241.473 17.8426C241.539 17.8418 241.605 17.8484 241.67 17.8621C243.125 18.004 244.567 18.2589 245.98 18.6244C247.102 18.9415 248.094 19.5899 248.815 20.4783C249.677 21.6741 250.089 23.1177 249.984 24.5702C250.049 25.9544 249.65 27.3221 248.846 28.4711C248.042 29.62 246.876 30.4892 245.52 30.9502C243.835 31.5574 242.044 31.8474 240.246 31.8046C238.919 31.8041 237.596 31.6854 236.292 31.45Z" fill="white"/>
</svg>
