<svg width="80" height="80" viewBox="0 0 80 80" fill="none" xmlns="http://www.w3.org/2000/svg">
<rect width="80" height="80" rx="15" fill="url(#paint0_linear_1823_458)"/>
<g clip-path="url(#clip0_1823_458)">
<path d="M59.6413 48.0539C59.8762 48.9681 60 49.9237 60 50.911C60 51.8983 59.8762 52.8539 59.6413 53.7681C59.3778 54.7808 58.9841 55.7396 58.4698 56.6253C58.0889 57.2856 57.6444 57.9015 57.1429 58.4697C56.8254 58.8285 56.4889 59.165 56.1302 59.4824C55.5619 59.984 54.946 60.4285 54.2857 60.8094C53.4 61.3237 52.4413 61.7173 51.4286 61.9808C51.2286 62.0316 51.0254 62.0793 50.8222 62.1173L44.2857 50.911H47.1429C47.5365 50.911 47.8952 50.7523 48.1524 50.4919C48.4127 50.2348 48.5714 49.8761 48.5714 49.4824C48.5714 48.6919 47.9333 48.0539 47.1429 48.0539H42.619L34.2857 33.7681H47.1429C47.5365 33.7681 47.8952 33.6094 48.1524 33.3491C48.4127 33.0919 48.5714 32.7332 48.5714 32.3396C48.5714 31.5491 47.9333 30.911 47.1429 30.911H31.4286V45.1967H31.4444C31.5937 46.6951 32.7873 47.8888 34.2857 48.038V48.0539H37.1429V59.4824H31.1111C30.2381 59.4824 29.3873 59.3808 28.5714 59.1904C27.5587 58.9523 26.6 58.5777 25.7143 58.0824C24.9778 57.6761 24.2921 57.184 23.6698 56.6253C23.3873 56.3681 23.1143 56.0951 22.8571 55.8126C22.2984 55.1904 21.8063 54.5046 21.4 53.7681C20.9048 52.8824 20.5302 51.9237 20.2921 50.911C20.1016 50.0951 20 49.2443 20 48.3713V19.4824H50C50.4857 19.4824 50.9619 19.5173 51.4286 19.584C52.4381 19.7269 53.3968 20.0221 54.2857 20.4443C55.2952 20.9237 56.2127 21.565 57.0032 22.3396C57.0254 22.365 57.0508 22.3872 57.073 22.4094C57.0952 22.4316 57.1175 22.457 57.1429 22.4792C57.9175 23.2697 58.5587 24.1872 59.0381 25.1967C59.4603 26.0856 59.7556 27.0443 59.8984 28.0539C59.9651 28.5205 60 28.9967 60 29.4824C60 29.9681 59.9651 30.4443 59.8984 30.911C59.7556 31.9205 59.4603 32.8792 59.0381 33.7681C58.5587 34.7777 57.9175 35.6951 57.1429 36.4856C57.0952 36.53 57.0476 36.5777 57.0032 36.6253C56.2127 37.3999 55.2952 38.0412 54.2857 38.5205C53.3968 38.9427 52.4381 39.238 51.4286 39.3808C50.9619 39.4475 50.4857 39.4824 50 39.4824H48.5714C49.5587 39.4824 50.5143 39.6062 51.4286 39.8412C52.4413 40.1046 53.4 40.4983 54.2857 41.0126C54.946 41.3935 55.5619 41.838 56.1302 42.3396C56.3111 42.4951 56.4857 42.6602 56.654 42.8285C56.8222 42.9967 56.9873 43.1713 57.1429 43.3523C57.6444 43.9205 58.0889 44.5364 58.4698 45.1967C58.9841 46.0824 59.3778 47.0412 59.6413 48.0539Z" fill="white"/>
</g>
<defs>
<linearGradient id="paint0_linear_1823_458" x1="0" y1="0" x2="80" y2="80" gradientUnits="userSpaceOnUse">
<stop stop-color="#2BB673"/>
<stop offset="1" stop-color="#2BB673" stop-opacity="0.7"/>
</linearGradient>
<clipPath id="clip0_1823_458">
<rect width="40" height="42.6349" fill="white" transform="translate(20 19.4824)"/>
</clipPath>
</defs>
</svg>
