<svg width="121" height="22" viewBox="0 0 121 22" fill="none" xmlns="http://www.w3.org/2000/svg">
<g clip-path="url(#clip0_444_752)">
<path d="M19.3416 14.4478C19.4533 14.8824 19.5121 15.3366 19.5121 15.8058C19.5121 16.2751 19.4533 16.7293 19.3416 17.1639C19.2164 17.6452 19.0293 18.1009 18.7848 18.5219C18.6037 18.8357 18.3925 19.1284 18.1541 19.3985C18.0032 19.569 17.8433 19.729 17.6728 19.8799C17.4027 20.1183 17.1099 20.3295 16.7961 20.5106C16.3751 20.755 15.9194 20.9421 15.4381 21.0674C15.343 21.0915 15.2464 21.1141 15.1499 21.1323L12.0431 15.8058H13.4011C13.5882 15.8058 13.7587 15.7304 13.8809 15.6067C14.0046 15.4845 14.0801 15.3139 14.0801 15.1268C14.0801 14.7511 13.7768 14.4478 13.4011 14.4478H11.2509L7.29004 7.6578H13.4011C13.5882 7.6578 13.7587 7.58236 13.8809 7.45863C14.0046 7.33641 14.0801 7.1659 14.0801 6.9788C14.0801 6.60308 13.7768 6.2998 13.4011 6.2998H5.93203V13.0898H5.93957C6.01049 13.802 6.57784 14.3694 7.29004 14.4403V14.4478H8.64804V19.8799H5.78114C5.36619 19.8799 4.96181 19.8316 4.57402 19.7411C4.09268 19.6279 3.637 19.4498 3.21601 19.2144C2.86595 19.0213 2.54003 18.7874 2.24428 18.5219C2.10999 18.3996 1.98023 18.2699 1.85801 18.1356C1.59244 17.8398 1.35856 17.5139 1.16542 17.1639C0.930036 16.7429 0.751986 16.2872 0.638819 15.8058C0.548285 15.4181 0.5 15.0137 0.5 14.5987V0.867767H14.7591C14.9899 0.867767 15.2163 0.884365 15.4381 0.916052C15.9179 0.983952 16.3736 1.12428 16.7961 1.32496C17.2759 1.55281 17.712 1.8576 18.0877 2.22577C18.0983 2.23785 18.1103 2.24841 18.1209 2.25897C18.1315 2.26953 18.142 2.2816 18.1541 2.29217C18.5223 2.66788 18.8271 3.10395 19.0549 3.58378C19.2556 4.00627 19.3959 4.46196 19.4638 4.94179C19.4955 5.1636 19.5121 5.38993 19.5121 5.62079C19.5121 5.85165 19.4955 6.07799 19.4638 6.2998C19.3959 6.77963 19.2556 7.23531 19.0549 7.6578C18.8271 8.13763 18.5223 8.5737 18.1541 8.94942C18.1315 8.97054 18.1088 8.99318 18.0877 9.01581C17.712 9.38398 17.2759 9.68878 16.7961 9.91662C16.3736 10.1173 15.9179 10.2576 15.4381 10.3255C15.2163 10.3572 14.9899 10.3738 14.7591 10.3738H14.0801C14.5493 10.3738 15.0035 10.4327 15.4381 10.5443C15.9194 10.6696 16.3751 10.8567 16.7961 11.1011C17.1099 11.2822 17.4027 11.4934 17.6728 11.7318C17.7588 11.8058 17.8418 11.8842 17.9217 11.9642C18.0017 12.0442 18.0802 12.1272 18.1541 12.2132C18.3925 12.4833 18.6037 12.776 18.7848 13.0898C19.0293 13.5108 19.2164 13.9665 19.3416 14.4478Z" fill="#2BB673"/>
</g>
<path d="M116.916 17.6099C116.348 17.6099 115.815 17.5271 115.319 17.3615C114.822 17.184 114.384 16.9356 114.005 16.6162C113.627 16.285 113.331 15.8827 113.118 15.4096L115.123 14.4868C115.301 14.7707 115.543 15.0192 115.851 15.2321C116.158 15.4332 116.513 15.5338 116.916 15.5338C117.306 15.5338 117.608 15.4805 117.821 15.3741C118.033 15.2558 118.14 15.0902 118.14 14.8772C118.14 14.6643 118.051 14.5105 117.874 14.4159C117.708 14.3094 117.477 14.2207 117.182 14.1497L116.365 13.9368C115.514 13.712 114.839 13.3571 114.343 12.8721C113.858 12.3752 113.615 11.8074 113.615 11.1686C113.615 10.2577 113.905 9.55383 114.485 9.05698C115.076 8.56013 115.91 8.31171 116.987 8.31171C117.543 8.31171 118.057 8.39451 118.53 8.56013C119.015 8.72575 119.429 8.95643 119.772 9.25217C120.116 9.54792 120.352 9.89098 120.482 10.2814L118.548 11.1686C118.465 10.932 118.264 10.7427 117.945 10.6008C117.625 10.447 117.306 10.3701 116.987 10.3701C116.667 10.3701 116.419 10.4411 116.241 10.583C116.076 10.7131 115.993 10.8965 115.993 11.1331C115.993 11.2869 116.076 11.417 116.241 11.5235C116.407 11.6181 116.643 11.7009 116.951 11.7719L118.104 12.0558C118.684 12.1978 119.145 12.4285 119.489 12.7479C119.843 13.0554 120.098 13.4044 120.252 13.7948C120.417 14.1733 120.5 14.546 120.5 14.9127C120.5 15.445 120.34 15.9182 120.021 16.3323C119.713 16.7345 119.287 17.048 118.743 17.2727C118.211 17.4975 117.602 17.6099 116.916 17.6099Z" fill="#2BB673"/>
<path d="M109.368 17.397L109.226 15.7645V8.52466H111.568V17.397H109.368ZM103.352 13.0673V8.52466H105.695V13.0673H103.352ZM105.695 13.0673C105.695 13.6588 105.76 14.126 105.89 14.4691C106.032 14.8003 106.227 15.0429 106.475 15.1966C106.736 15.3386 107.025 15.4096 107.345 15.4096C107.96 15.4214 108.427 15.238 108.747 14.8595C109.066 14.4691 109.226 13.9072 109.226 13.1738H110.024C110.024 14.1201 109.882 14.9246 109.598 15.587C109.314 16.2377 108.924 16.7404 108.427 17.0953C107.93 17.4384 107.345 17.6099 106.67 17.6099C105.961 17.6099 105.357 17.4679 104.861 17.184C104.364 16.9001 103.985 16.4624 103.725 15.8709C103.476 15.2676 103.352 14.4928 103.352 13.5464V13.0673H105.695Z" fill="#2BB673"/>
<path d="M92.9414 17.397V4.97577H95.2837V15.7468L95.1595 17.397H92.9414ZM97.9631 17.6099C97.2179 17.6099 96.585 17.4207 96.0645 17.0421C95.5558 16.6636 95.1654 16.1253 94.8933 15.4274C94.6212 14.7294 94.4852 13.9072 94.4852 12.9609C94.4852 12.0026 94.6212 11.1805 94.8933 10.4943C95.1654 9.79639 95.5558 9.25814 96.0645 8.87959C96.585 8.50104 97.2179 8.31176 97.9631 8.31176C98.7794 8.31176 99.4833 8.50104 100.075 8.87959C100.678 9.25814 101.145 9.79639 101.477 10.4943C101.808 11.1805 101.973 12.0026 101.973 12.9609C101.973 13.9072 101.808 14.7294 101.477 15.4274C101.145 16.1253 100.678 16.6636 100.075 17.0421C99.4833 17.4207 98.7794 17.6099 97.9631 17.6099ZM97.3598 15.4628C97.7857 15.4628 98.1583 15.3564 98.4777 15.1434C98.809 14.9305 99.0692 14.6348 99.2585 14.2562C99.4478 13.8777 99.5424 13.4459 99.5424 12.9609C99.5424 12.4758 99.4478 12.044 99.2585 11.6655C99.081 11.2869 98.8267 10.9971 98.4955 10.796C98.1761 10.5831 97.8034 10.4766 97.3776 10.4766C96.9754 10.4766 96.6145 10.5831 96.2951 10.796C95.9757 11.0089 95.7273 11.3047 95.5499 11.6832C95.3724 12.05 95.2837 12.4758 95.2837 12.9609C95.2837 13.4459 95.3724 13.8777 95.5499 14.2562C95.7273 14.6348 95.9698 14.9305 96.2774 15.1434C96.5968 15.3564 96.9576 15.4628 97.3598 15.4628Z" fill="#2BB673"/>
<path d="M88.8388 17.397L88.7679 15.6047V12.9076C88.7679 12.3752 88.7087 11.9198 88.5904 11.5412C88.4839 11.1627 88.3065 10.8728 88.0581 10.6717C87.8215 10.4588 87.4962 10.3523 87.0821 10.3523C86.7036 10.3523 86.3605 10.4351 86.0529 10.6008C85.7454 10.7664 85.4851 11.0207 85.2722 11.3638L83.2138 10.654C83.3794 10.2754 83.6219 9.90872 83.9413 9.55383C84.2607 9.18711 84.6748 8.89136 85.1834 8.6666C85.704 8.43 86.3368 8.31171 87.0821 8.31171C87.9812 8.31171 88.7265 8.48324 89.3179 8.8263C89.9213 9.16936 90.3649 9.65438 90.6488 10.2814C90.9445 10.8965 91.0865 11.63 91.0747 12.4817L91.0214 17.397H88.8388ZM86.3546 17.6099C85.2899 17.6099 84.4618 17.3733 83.8703 16.9001C83.2907 16.4269 83.0009 15.7585 83.0009 14.895C83.0009 13.9486 83.3143 13.2388 83.9413 12.7656C84.5801 12.2806 85.4733 12.0381 86.6208 12.0381H88.8743V13.7771H87.437C86.6681 13.7771 86.1357 13.8717 85.84 14.061C85.5443 14.2384 85.3964 14.4928 85.3964 14.824C85.3964 15.0842 85.5147 15.2913 85.7513 15.445C85.9879 15.587 86.3191 15.658 86.745 15.658C87.1354 15.658 87.4784 15.5693 87.7742 15.3918C88.0817 15.2025 88.3242 14.9659 88.5017 14.682C88.6791 14.3863 88.7679 14.0846 88.7679 13.7771H89.3357C89.3357 14.9837 89.105 15.9242 88.6437 16.5984C88.1941 17.2727 87.4311 17.6099 86.3546 17.6099Z" fill="#222831"/>
<path d="M74.5804 17.397V15.6935L78.9633 10.4588H74.5804V8.52466H81.8912V10.2104L77.5082 15.4806H81.9089V17.397H74.5804Z" fill="#222831"/>
<path d="M70.5216 17.3969V8.52464H72.8639V17.3969H70.5216ZM71.6927 7.08732C71.3378 7.08732 71.0243 6.95719 70.7522 6.69694C70.4802 6.42485 70.3441 6.10545 70.3441 5.73873C70.3441 5.37201 70.4802 5.05852 70.7522 4.79826C71.0243 4.52618 71.3378 4.39014 71.6927 4.39014C72.0594 4.39014 72.3729 4.52618 72.6332 4.79826C72.9053 5.05852 73.0413 5.37201 73.0413 5.73873C73.0413 6.10545 72.9053 6.42485 72.6332 6.69694C72.3729 6.95719 72.0594 7.08732 71.6927 7.08732Z" fill="#222831"/>
<path d="M66.0125 17.397V4.97577H68.3548V17.397H66.0125Z" fill="#222831"/>
<path d="M61.9099 17.397L61.839 15.6047V12.9076C61.839 12.3752 61.7798 11.9198 61.6615 11.5412C61.555 11.1627 61.3776 10.8728 61.1292 10.6717C60.8926 10.4588 60.5673 10.3523 60.1532 10.3523C59.7747 10.3523 59.4316 10.4351 59.124 10.6008C58.8165 10.7664 58.5562 11.0207 58.3433 11.3638L56.2849 10.654C56.4505 10.2754 56.693 9.90872 57.0124 9.55383C57.3318 9.18711 57.7459 8.89136 58.2545 8.6666C58.7751 8.43 59.4079 8.31171 60.1532 8.31171C61.0523 8.31171 61.7976 8.48324 62.389 8.8263C62.9924 9.16936 63.436 9.65438 63.7199 10.2814C64.0156 10.8965 64.1576 11.63 64.1458 12.4817L64.0925 17.397H61.9099ZM59.4257 17.6099C58.361 17.6099 57.5329 17.3733 56.9414 16.9001C56.3618 16.4269 56.072 15.7585 56.072 14.895C56.072 13.9486 56.3854 13.2388 57.0124 12.7656C57.6512 12.2806 58.5444 12.0381 59.6919 12.0381H61.9454V13.7771H60.5081C59.7392 13.7771 59.2068 13.8717 58.9111 14.061C58.6154 14.2384 58.4675 14.4928 58.4675 14.824C58.4675 15.0842 58.5858 15.2913 58.8224 15.445C59.059 15.587 59.3902 15.658 59.8161 15.658C60.2065 15.658 60.5495 15.5693 60.8453 15.3918C61.1528 15.2025 61.3953 14.9659 61.5728 14.682C61.7502 14.3863 61.839 14.0846 61.839 13.7771H62.4068C62.4068 14.9837 62.1761 15.9242 61.7148 16.5984C61.2652 17.2727 60.5022 17.6099 59.4257 17.6099Z" fill="#222831"/>
<path d="M51.1408 17.6099C50.2181 17.6099 49.3959 17.4147 48.6743 17.0243C47.9527 16.6221 47.3908 16.072 46.9886 15.3741C46.5864 14.6643 46.3853 13.8599 46.3853 12.9608C46.3853 12.0499 46.5864 11.2455 46.9886 10.5475C47.3908 9.84957 47.9468 9.30541 48.6566 8.91502C49.3664 8.51281 50.1826 8.31171 51.1053 8.31171C51.9926 8.31171 52.8029 8.53056 53.5363 8.96826C54.2698 9.40596 54.8021 10.0388 55.1334 10.8669L52.933 11.6477C52.7674 11.3046 52.5072 11.0325 52.1523 10.8314C51.8092 10.6185 51.4247 10.512 50.9989 10.512C50.5612 10.512 50.1767 10.6185 49.8455 10.8314C49.5142 11.0325 49.254 11.3165 49.0647 11.6832C48.8754 12.0499 48.7808 12.4758 48.7808 12.9608C48.7808 13.4458 48.8754 13.8717 49.0647 14.2384C49.254 14.5933 49.5201 14.8772 49.8632 15.0902C50.2063 15.3031 50.5966 15.4096 51.0343 15.4096C51.4602 15.4096 51.8447 15.2972 52.1877 15.0724C52.5426 14.8476 52.8029 14.5519 52.9685 14.1852L55.1866 14.9659C54.8435 15.8059 54.3053 16.4565 53.5718 16.9178C52.8502 17.3792 52.0399 17.6099 51.1408 17.6099Z" fill="#222831"/>
<path d="M40.7238 17.6099C39.8247 17.6099 39.0203 17.4147 38.3105 17.0243C37.6126 16.6221 37.0625 16.072 36.6603 15.3741C36.2699 14.6761 36.0747 13.8717 36.0747 12.9608C36.0747 12.0499 36.2699 11.2455 36.6603 10.5475C37.0507 9.84957 37.5948 9.30541 38.2928 8.91502C38.9907 8.51281 39.7892 8.31171 40.6883 8.31171C41.5992 8.31171 42.4036 8.51281 43.1016 8.91502C43.7995 9.30541 44.3437 9.84957 44.7341 10.5475C45.1245 11.2455 45.3197 12.0499 45.3197 12.9608C45.3197 13.8717 45.1245 14.6761 44.7341 15.3741C44.3437 16.072 43.7995 16.6221 43.1016 17.0243C42.4155 17.4147 41.6229 17.6099 40.7238 17.6099ZM40.7238 15.445C41.1615 15.445 41.546 15.3386 41.8772 15.1256C42.2084 14.9127 42.4628 14.6229 42.6402 14.2562C42.8295 13.8776 42.9241 13.4458 42.9241 12.9608C42.9241 12.4758 42.8295 12.0499 42.6402 11.6832C42.4509 11.3046 42.1848 11.0089 41.8417 10.796C41.5105 10.583 41.126 10.4766 40.6883 10.4766C40.2624 10.4766 39.878 10.583 39.5349 10.796C39.2037 11.0089 38.9434 11.3046 38.7541 11.6832C38.5649 12.0499 38.4702 12.4758 38.4702 12.9608C38.4702 13.4458 38.5649 13.8776 38.7541 14.2562C38.9434 14.6229 39.2096 14.9127 39.5527 15.1256C39.8957 15.3386 40.2861 15.445 40.7238 15.445Z" fill="#222831"/>
<path d="M32.1868 17.397V4.97577H34.5291V17.397H32.1868Z" fill="#222831"/>
<defs>
<clipPath id="clip0_444_752">
<rect width="19.0121" height="20.2645" fill="white" transform="translate(0.5 0.867767)"/>
</clipPath>
</defs>
</svg>
