<svg width="25" height="26" viewBox="0 0 25 26" fill="none" xmlns="http://www.w3.org/2000/svg">
<path d="M13.25 8.00006C13.25 7.58585 12.9142 7.25006 12.5 7.25006C12.0858 7.25006 11.75 7.58585 11.75 8.00006L13.25 8.00006ZM11.75 13.0001C11.75 13.4143 12.0858 13.7501 12.5 13.7501C12.9142 13.7501 13.25 13.4143 13.25 13.0001L11.75 13.0001ZM13.25 13.0001C13.25 12.5859 12.9142 12.2501 12.5 12.2501C12.0858 12.2501 11.75 12.5859 11.75 13.0001L13.25 13.0001ZM11.75 18.0001C11.75 18.4143 12.0858 18.7501 12.5 18.7501C12.9142 18.7501 13.25 18.4143 13.25 18.0001L11.75 18.0001ZM12.5 13.7501C12.9142 13.7501 13.25 13.4143 13.25 13.0001C13.25 12.5859 12.9142 12.2501 12.5 12.2501L12.5 13.7501ZM7.5 12.2501C7.0858 12.2501 6.75 12.5859 6.75 13.0001C6.75 13.4143 7.0858 13.7501 7.5 13.7501L7.5 12.2501ZM12.5 12.2501C12.0858 12.2501 11.75 12.5859 11.75 13.0001C11.75 13.4143 12.0858 13.7501 12.5 13.7501L12.5 12.2501ZM17.5 13.7501C17.9142 13.7501 18.25 13.4143 18.25 13.0001C18.25 12.5859 17.9142 12.2501 17.5 12.2501L17.5 13.7501ZM11.75 8.00006L11.75 13.0001L13.25 13.0001L13.25 8.00006L11.75 8.00006ZM11.75 13.0001L11.75 18.0001L13.25 18.0001L13.25 13.0001L11.75 13.0001ZM12.5 13.0001L12.5 12.2501L12.499 12.2501C12.4989 12.2501 12.4978 12.2501 12.4978 12.2501C12.4979 12.2501 12.4977 12.2501 12.4978 12.2501C12.4978 12.2501 12.4967 12.2501 12.4966 12.2501C12.4967 12.2501 12.4965 12.2501 12.4966 12.2501C12.4965 12.2501 12.4957 12.2501 12.4956 12.2501C12.4955 12.2501 12.4946 12.2501 12.4945 12.2501C12.4944 12.2501 12.4936 12.2501 12.4935 12.2501C12.4934 12.2501 12.4925 12.2501 12.4923 12.2501C12.4922 12.2501 12.4913 12.2501 12.4911 12.2501C12.491 12.2501 12.4899 12.2501 12.4898 12.2501C12.49 12.2501 12.4896 12.2501 12.4898 12.2501C12.4896 12.2501 12.489 12.2501 12.4888 12.2501C12.489 12.2501 12.4886 12.2501 12.4888 12.2501C12.4886 12.2501 12.4879 12.2501 12.4878 12.2501C12.488 12.2501 12.4876 12.2501 12.4878 12.2501C12.4876 12.2501 12.4869 12.2501 12.4867 12.2501C12.4869 12.2501 12.4865 12.2501 12.4867 12.2501C12.4865 12.2501 12.4857 12.2501 12.4855 12.2501C12.4857 12.2501 12.4853 12.2501 12.4855 12.2501C12.4853 12.2501 12.4845 12.2501 12.4843 12.2501C12.4846 12.2501 12.4841 12.2501 12.4843 12.2501C12.4841 12.2501 12.4832 12.2501 12.483 12.2501C12.4832 12.2501 12.4828 12.2501 12.483 12.2501C12.4828 12.2501 12.4819 12.2501 12.4816 12.2501C12.4819 12.2501 12.4814 12.2501 12.4816 12.2501C12.4814 12.2501 12.4804 12.2501 12.4802 12.2501C12.4804 12.2501 12.48 12.2501 12.4802 12.2501C12.4799 12.2501 12.479 12.2501 12.4787 12.2501C12.479 12.2501 12.4784 12.2501 12.4787 12.2501C12.4785 12.2501 12.4774 12.2501 12.4771 12.2501C12.4774 12.2501 12.4769 12.2501 12.4771 12.2501C12.4768 12.2501 12.4758 12.2501 12.4755 12.2501C12.4758 12.2501 12.4752 12.2501 12.4755 12.2501C12.4752 12.2501 12.474 12.2501 12.4737 12.2501C12.474 12.2501 12.4734 12.2501 12.4737 12.2501C12.4734 12.2501 12.4722 12.2501 12.4719 12.2501C12.4722 12.2501 12.4716 12.2501 12.4719 12.2501C12.4716 12.2501 12.4704 12.2501 12.47 12.2501C12.4703 12.2501 12.4697 12.2501 12.47 12.2501C12.4696 12.2501 12.4684 12.2501 12.4681 12.2501C12.4677 12.2501 12.4674 12.2501 12.467 12.2501C12.4667 12.2501 12.4664 12.2501 12.466 12.2501C12.4656 12.2501 12.4653 12.2501 12.4649 12.2501C12.4646 12.2501 12.4642 12.2501 12.4639 12.2501C12.4635 12.2501 12.4631 12.2501 12.4627 12.2501C12.4624 12.2501 12.462 12.2501 12.4616 12.2501C12.4612 12.2501 12.4609 12.2501 12.4605 12.2501C12.4601 12.2501 12.4597 12.2501 12.4593 12.2501C12.4589 12.2501 12.4585 12.2501 12.4581 12.2501C12.4577 12.2501 12.4573 12.2501 12.4569 12.2501C12.4565 12.2501 12.456 12.2501 12.4556 12.2501C12.4552 12.2501 12.4548 12.2501 12.4544 12.2501C12.4539 12.2501 12.4535 12.2501 12.4531 12.2501C12.4526 12.2501 12.4522 12.2501 12.4518 12.2501C12.4513 12.2501 12.4509 12.2501 12.4504 12.2501C12.45 12.2501 12.4495 12.2501 12.4491 12.2501C12.4486 12.2501 12.4481 12.2501 12.4477 12.2501C12.4472 12.2501 12.4467 12.2501 12.4462 12.2501C12.4458 12.2501 12.4453 12.2501 12.4448 12.2501C12.4443 12.2501 12.4438 12.2501 12.4433 12.2501C12.4429 12.2501 12.4424 12.2501 12.4419 12.2501C12.4414 12.2501 12.4408 12.2501 12.4403 12.2501C12.4398 12.2501 12.4393 12.2501 12.4388 12.2501C12.4383 12.2501 12.4378 12.2501 12.4372 12.2501C12.4367 12.2501 12.4362 12.2501 12.4356 12.2501C12.4351 12.2501 12.4345 12.2501 12.434 12.2501C12.4335 12.2501 12.4329 12.2501 12.4324 12.2501C12.4318 12.2501 12.4312 12.2501 12.4307 12.2501C12.4301 12.2501 12.4295 12.2501 12.429 12.2501C12.4284 12.2501 12.4278 12.2501 12.4272 12.2501C12.4267 12.2501 12.4261 12.2501 12.4255 12.2501C12.4249 12.2501 12.4243 12.2501 12.4237 12.2501C12.4231 12.2501 12.4225 12.2501 12.4219 12.2501C12.4213 12.2501 12.4206 12.2501 12.42 12.2501C12.4194 12.2501 12.4188 12.2501 12.4182 12.2501C12.4175 12.2501 12.4169 12.2501 12.4163 12.2501C12.4156 12.2501 12.415 12.2501 12.4143 12.2501C12.4137 12.2501 12.413 12.2501 12.4124 12.2501C12.4117 12.2501 12.411 12.2501 12.4104 12.2501C12.4097 12.2501 12.409 12.2501 12.4083 12.2501C12.4077 12.2501 12.407 12.2501 12.4063 12.2501C12.4056 12.2501 12.4049 12.2501 12.4042 12.2501C12.4035 12.2501 12.4028 12.2501 12.4021 12.2501C12.4014 12.2501 12.4007 12.2501 12.4 12.2501C12.3992 12.2501 12.3985 12.2501 12.3978 12.2501C12.397 12.2501 12.3963 12.2501 12.3956 12.2501C12.3948 12.2501 12.3941 12.2501 12.3933 12.2501C12.3926 12.2501 12.3918 12.2501 12.3911 12.2501C12.3903 12.2501 12.3895 12.2501 12.3888 12.2501C12.388 12.2501 12.3872 12.2501 12.3864 12.2501C12.3856 12.2501 12.3849 12.2501 12.3841 12.2501C12.3833 12.2501 12.3825 12.2501 12.3817 12.2501C12.3809 12.2501 12.38 12.2501 12.3792 12.2501C12.3784 12.2501 12.3776 12.2501 12.3768 12.2501C12.3759 12.2501 12.3751 12.2501 12.3743 12.2501C12.3734 12.2501 12.3726 12.2501 12.3717 12.2501C12.3709 12.2501 12.37 12.2501 12.3692 12.2501C12.3683 12.2501 12.3674 12.2501 12.3666 12.2501C12.3657 12.2501 12.3648 12.2501 12.3639 12.2501C12.3631 12.2501 12.3622 12.2501 12.3613 12.2501C12.3604 12.2501 12.3595 12.2501 12.3586 12.2501C12.3577 12.2501 12.3568 12.2501 12.3558 12.2501C12.3549 12.2501 12.354 12.2501 12.3531 12.2501C12.3521 12.2501 12.3512 12.2501 12.3503 12.2501C12.3493 12.2501 12.3484 12.2501 12.3474 12.2501C12.3465 12.2501 12.3455 12.2501 12.3445 12.2501C12.3436 12.2501 12.3426 12.2501 12.3416 12.2501C12.3406 12.2501 12.3397 12.2501 12.3387 12.2501C12.3377 12.2501 12.3367 12.2501 12.3357 12.2501C12.3347 12.2501 12.3337 12.2501 12.3327 12.2501C12.3316 12.2501 12.3306 12.2501 12.3296 12.2501C12.3286 12.2501 12.3275 12.2501 12.3265 12.2501C12.3255 12.2501 12.3244 12.2501 12.3234 12.2501C12.3223 12.2501 12.3213 12.2501 12.3202 12.2501C12.3191 12.2501 12.3181 12.2501 12.317 12.2501C12.3159 12.2501 12.3148 12.2501 12.3137 12.2501C12.3126 12.2501 12.3115 12.2501 12.3104 12.2501C12.3093 12.2501 12.3082 12.2501 12.3071 12.2501C12.306 12.2501 12.3049 12.2501 12.3038 12.2501C12.3026 12.2501 12.3015 12.2501 12.3003 12.2501C12.2992 12.2501 12.2981 12.2501 12.2969 12.2501C12.2958 12.2501 12.2946 12.2501 12.2934 12.2501C12.2923 12.2501 12.2911 12.2501 12.2899 12.2501C12.2887 12.2501 12.2875 12.2501 12.2863 12.2501C12.2851 12.2501 12.2839 12.2501 12.2827 12.2501C12.2815 12.2501 12.2803 12.2501 12.2791 12.2501C12.2779 12.2501 12.2767 12.2501 12.2754 12.2501C12.2742 12.2501 12.2729 12.2501 12.2717 12.2501C12.2704 12.2501 12.2692 12.2501 12.2679 12.2501C12.2667 12.2501 12.2654 12.2501 12.2641 12.2501C12.2629 12.2501 12.2616 12.2501 12.2603 12.2501C12.259 12.2501 12.2577 12.2501 12.2564 12.2501C12.2551 12.2501 12.2538 12.2501 12.2525 12.2501C12.2512 12.2501 12.2498 12.2501 12.2485 12.2501C12.2472 12.2501 12.2458 12.2501 12.2445 12.2501C12.2431 12.2501 12.2418 12.2501 12.2404 12.2501C12.2391 12.2501 12.2377 12.2501 12.2363 12.2501C12.235 12.2501 12.2336 12.2501 12.2322 12.2501C12.2308 12.2501 12.2294 12.2501 12.228 12.2501C12.2266 12.2501 12.2252 12.2501 12.2238 12.2501C12.2224 12.2501 12.2209 12.2501 12.2195 12.2501C12.2181 12.2501 12.2166 12.2501 12.2152 12.2501C12.2137 12.2501 12.2123 12.2501 12.2108 12.2501C12.2094 12.2501 12.2079 12.2501 12.2064 12.2501C12.2049 12.2501 12.2035 12.2501 12.202 12.2501C12.2005 12.2501 12.199 12.2501 12.1975 12.2501C12.196 12.2501 12.1945 12.2501 12.1929 12.2501C12.1914 12.2501 12.1899 12.2501 12.1884 12.2501C12.1868 12.2501 12.1853 12.2501 12.1837 12.2501C12.1822 12.2501 12.1806 12.2501 12.1791 12.2501C12.1775 12.2501 12.1759 12.2501 12.1743 12.2501C12.1728 12.2501 12.1712 12.2501 12.1696 12.2501C12.168 12.2501 12.1664 12.2501 12.1648 12.2501C12.1632 12.2501 12.1615 12.2501 12.1599 12.2501C12.1583 12.2501 12.1566 12.2501 12.155 12.2501C12.1534 12.2501 12.1517 12.2501 12.15 12.2501C12.1484 12.2501 12.1467 12.2501 12.145 12.2501C12.1434 12.2501 12.1417 12.2501 12.14 12.2501C12.1383 12.2501 12.1366 12.2501 12.1349 12.2501C12.1332 12.2501 12.1315 12.2501 12.1298 12.2501C12.128 12.2501 12.1263 12.2501 12.1246 12.2501C12.1228 12.2501 12.1211 12.2501 12.1193 12.2501C12.1176 12.2501 12.1158 12.2501 12.1141 12.2501C12.1123 12.2501 12.1105 12.2501 12.1087 12.2501C12.1069 12.2501 12.1051 12.2501 12.1033 12.2501C12.1015 12.2501 12.0997 12.2501 12.0979 12.2501C12.0961 12.2501 12.0943 12.2501 12.0924 12.2501C12.0906 12.2501 12.0887 12.2501 12.0869 12.2501C12.085 12.2501 12.0832 12.2501 12.0813 12.2501C12.0794 12.2501 12.0776 12.2501 12.0757 12.2501C12.0738 12.2501 12.0719 12.2501 12.07 12.2501C12.0681 12.2501 12.0662 12.2501 12.0642 12.2501C12.0623 12.2501 12.0604 12.2501 12.0585 12.2501C12.0565 12.2501 12.0546 12.2501 12.0526 12.2501C12.0507 12.2501 12.0487 12.2501 12.0467 12.2501C12.0448 12.2501 12.0428 12.2501 12.0408 12.2501C12.0388 12.2501 12.0368 12.2501 12.0348 12.2501C12.0328 12.2501 12.0308 12.2501 12.0288 12.2501C12.0268 12.2501 12.0247 12.2501 12.0227 12.2501C12.0206 12.2501 12.0186 12.2501 12.0165 12.2501C12.0145 12.2501 12.0124 12.2501 12.0103 12.2501C12.0083 12.2501 12.0062 12.2501 12.0041 12.2501C12.002 12.2501 11.9999 12.2501 11.9978 12.2501C11.9957 12.2501 11.9936 12.2501 11.9914 12.2501C11.9893 12.2501 11.9872 12.2501 11.985 12.2501C11.9829 12.2501 11.9807 12.2501 11.9786 12.2501C11.9764 12.2501 11.9742 12.2501 11.972 12.2501C11.9699 12.2501 11.9677 12.2501 11.9655 12.2501C11.9633 12.2501 11.9611 12.2501 11.9588 12.2501C11.9566 12.2501 11.9544 12.2501 11.9522 12.2501C11.9499 12.2501 11.9477 12.2501 11.9454 12.2501C11.9432 12.2501 11.9409 12.2501 11.9386 12.2501C11.9364 12.2501 11.9341 12.2501 11.9318 12.2501C11.9295 12.2501 11.9272 12.2501 11.9249 12.2501C11.9226 12.2501 11.9203 12.2501 11.9179 12.2501C11.9156 12.2501 11.9133 12.2501 11.9109 12.2501C11.9086 12.2501 11.9062 12.2501 11.9038 12.2501C11.9015 12.2501 11.8991 12.2501 11.8967 12.2501C11.8943 12.2501 11.8919 12.2501 11.8895 12.2501C11.8871 12.2501 11.8847 12.2501 11.8823 12.2501C11.8799 12.2501 11.8774 12.2501 11.875 12.2501C11.8726 12.2501 11.8701 12.2501 11.8676 12.2501C11.8652 12.2501 11.8627 12.2501 11.8602 12.2501C11.8578 12.2501 11.8553 12.2501 11.8528 12.2501C11.8503 12.2501 11.8478 12.2501 11.8452 12.2501C11.8427 12.2501 11.8402 12.2501 11.8377 12.2501C11.8351 12.2501 11.8326 12.2501 11.83 12.2501C11.8275 12.2501 11.8249 12.2501 11.8223 12.2501C11.8197 12.2501 11.8172 12.2501 11.8146 12.2501C11.812 12.2501 11.8094 12.2501 11.8067 12.2501C11.8041 12.2501 11.8015 12.2501 11.7989 12.2501C11.7962 12.2501 11.7936 12.2501 11.7909 12.2501C11.7883 12.2501 11.7856 12.2501 11.7829 12.2501C11.7802 12.2501 11.7776 12.2501 11.7749 12.2501C11.7722 12.2501 11.7695 12.2501 11.7668 12.2501C11.764 12.2501 11.7613 12.2501 11.7586 12.2501C11.7558 12.2501 11.7531 12.2501 11.7503 12.2501C11.7476 12.2501 11.7448 12.2501 11.742 12.2501C11.7393 12.2501 11.7365 12.2501 11.7337 12.2501C11.7309 12.2501 11.7281 12.2501 11.7253 12.2501C11.7224 12.2501 11.7196 12.2501 11.7168 12.2501C11.7139 12.2501 11.7111 12.2501 11.7082 12.2501C11.7054 12.2501 11.7025 12.2501 11.6996 12.2501C11.6967 12.2501 11.6939 12.2501 11.691 12.2501C11.6881 12.2501 11.6851 12.2501 11.6822 12.2501C11.6793 12.2501 11.6764 12.2501 11.6734 12.2501C11.6705 12.2501 11.6675 12.2501 11.6646 12.2501C11.6616 12.2501 11.6586 12.2501 11.6557 12.2501C11.6527 12.2501 11.6497 12.2501 11.6467 12.2501C11.6437 12.2501 11.6407 12.2501 11.6376 12.2501C11.6346 12.2501 11.6316 12.2501 11.6285 12.2501C11.6255 12.2501 11.6224 12.2501 11.6193 12.2501C11.6163 12.2501 11.6132 12.2501 11.6101 12.2501C11.607 12.2501 11.6039 12.2501 11.6008 12.2501C11.5977 12.2501 11.5946 12.2501 11.5914 12.2501C11.5883 12.2501 11.5852 12.2501 11.582 12.2501C11.5789 12.2501 11.5757 12.2501 11.5725 12.2501C11.5693 12.2501 11.5661 12.2501 11.5629 12.2501C11.5598 12.2501 11.5565 12.2501 11.5533 12.2501C11.5501 12.2501 11.5469 12.2501 11.5436 12.2501C11.5404 12.2501 11.5371 12.2501 11.5339 12.2501C11.5306 12.2501 11.5273 12.2501 11.524 12.2501C11.5208 12.2501 11.5175 12.2501 11.5142 12.2501C11.5108 12.2501 11.5075 12.2501 11.5042 12.2501C11.5009 12.2501 11.4975 12.2501 11.4942 12.2501C11.4908 12.2501 11.4875 12.2501 11.4841 12.2501C11.4807 12.2501 11.4773 12.2501 11.4739 12.2501C11.4705 12.2501 11.4671 12.2501 11.4637 12.2501C11.4603 12.2501 11.4568 12.2501 11.4534 12.2501C11.45 12.2501 11.4465 12.2501 11.443 12.2501C11.4396 12.2501 11.4361 12.2501 11.4326 12.2501C11.4291 12.2501 11.4256 12.2501 11.4221 12.2501C11.4186 12.2501 11.4151 12.2501 11.4115 12.2501C11.408 12.2501 11.4045 12.2501 11.4009 12.2501C11.3973 12.2501 11.3938 12.2501 11.3902 12.2501C11.3866 12.2501 11.383 12.2501 11.3794 12.2501C11.3758 12.2501 11.3722 12.2501 11.3686 12.2501C11.365 12.2501 11.3613 12.2501 11.3577 12.2501C11.354 12.2501 11.3504 12.2501 11.3467 12.2501C11.343 12.2501 11.3393 12.2501 11.3356 12.2501C11.3319 12.2501 11.3282 12.2501 11.3245 12.2501C11.3208 12.2501 11.3171 12.2501 11.3133 12.2501C11.3096 12.2501 11.3058 12.2501 11.302 12.2501C11.2983 12.2501 11.2945 12.2501 11.2907 12.2501C11.2869 12.2501 11.2831 12.2501 11.2793 12.2501C11.2755 12.2501 11.2717 12.2501 11.2678 12.2501C11.264 12.2501 11.2601 12.2501 11.2563 12.2501C11.2524 12.2501 11.2485 12.2501 11.2446 12.2501C11.2408 12.2501 11.2369 12.2501 11.2329 12.2501C11.229 12.2501 11.2251 12.2501 11.2212 12.2501C11.2172 12.2501 11.2133 12.2501 11.2093 12.2501C11.2054 12.2501 11.2014 12.2501 11.1974 12.2501C11.1934 12.2501 11.1894 12.2501 11.1854 12.2501C11.1814 12.2501 11.1774 12.2501 11.1734 12.2501C11.1693 12.2501 11.1653 12.2501 11.1612 12.2501C11.1572 12.2501 11.1531 12.2501 11.149 12.2501C11.145 12.2501 11.1409 12.2501 11.1368 12.2501C11.1326 12.2501 11.1285 12.2501 11.1244 12.2501C11.1203 12.2501 11.1161 12.2501 11.112 12.2501C11.1078 12.2501 11.1036 12.2501 11.0995 12.2501C11.0953 12.2501 11.0911 12.2501 11.0869 12.2501C11.0827 12.2501 11.0785 12.2501 11.0742 12.2501C11.07 12.2501 11.0658 12.2501 11.0615 12.2501C11.0572 12.2501 11.053 12.2501 11.0487 12.2501C11.0444 12.2501 11.0401 12.2501 11.0358 12.2501C11.0315 12.2501 11.0272 12.2501 11.0229 12.2501C11.0185 12.2501 11.0142 12.2501 11.0098 12.2501C11.0055 12.2501 11.0011 12.2501 10.9967 12.2501C10.9923 12.2501 10.9879 12.2501 10.9835 12.2501C10.9791 12.2501 10.9747 12.2501 10.9703 12.2501C10.9658 12.2501 10.9614 12.2501 10.9569 12.2501C10.9525 12.2501 10.948 12.2501 10.9435 12.2501C10.939 12.2501 10.9345 12.2501 10.93 12.2501C10.9255 12.2501 10.921 12.2501 10.9164 12.2501C10.9119 12.2501 10.9073 12.2501 10.9028 12.2501C10.8982 12.2501 10.8936 12.2501 10.8891 12.2501C10.8845 12.2501 10.8799 12.2501 10.8752 12.2501C10.8706 12.2501 10.866 12.2501 10.8614 12.2501C10.8567 12.2501 10.8521 12.2501 10.8474 12.2501C10.8427 12.2501 10.838 12.2501 10.8333 12.2501C10.8287 12.2501 10.8239 12.2501 10.8192 12.2501C10.8145 12.2501 10.8098 12.2501 10.805 12.2501C10.8003 12.2501 10.7955 12.2501 10.7907 12.2501C10.786 12.2501 10.7812 12.2501 10.7764 12.2501C10.7716 12.2501 10.7668 12.2501 10.7619 12.2501C10.7571 12.2501 10.7523 12.2501 10.7474 12.2501C10.7425 12.2501 10.7377 12.2501 10.7328 12.2501C10.7279 12.2501 10.723 12.2501 10.7181 12.2501C10.7132 12.2501 10.7083 12.2501 10.7033 12.2501C10.6984 12.2501 10.6935 12.2501 10.6885 12.2501C10.6835 12.2501 10.6786 12.2501 10.6736 12.2501C10.6686 12.2501 10.6636 12.2501 10.6586 12.2501C10.6535 12.2501 10.6485 12.2501 10.6435 12.2501C10.6384 12.2501 10.6334 12.2501 10.6283 12.2501C10.6232 12.2501 10.6181 12.2501 10.613 12.2501C10.6079 12.2501 10.6028 12.2501 10.5977 12.2501C10.5926 12.2501 10.5874 12.2501 10.5823 12.2501C10.5771 12.2501 10.5719 12.2501 10.5668 12.2501C10.5616 12.2501 10.5564 12.2501 10.5512 12.2501C10.546 12.2501 10.5407 12.2501 10.5355 12.2501C10.5303 12.2501 10.525 12.2501 10.5197 12.2501C10.5145 12.2501 10.5092 12.2501 10.5039 12.2501C10.4986 12.2501 10.4933 12.2501 10.488 12.2501C10.4826 12.2501 10.4773 12.2501 10.472 12.2501C10.4666 12.2501 10.4612 12.2501 10.4559 12.2501C10.4505 12.2501 10.4451 12.2501 10.4397 12.2501C10.4343 12.2501 10.4288 12.2501 10.4234 12.2501C10.418 12.2501 10.4125 12.2501 10.4071 12.2501C10.4016 12.2501 10.3961 12.2501 10.3906 12.2501C10.3851 12.2501 10.3796 12.2501 10.3741 12.2501C10.3686 12.2501 10.363 12.2501 10.3575 12.2501C10.3519 12.2501 10.3464 12.2501 10.3408 12.2501C10.3352 12.2501 10.3296 12.2501 10.324 12.2501C10.3184 12.2501 10.3128 12.2501 10.3071 12.2501C10.3015 12.2501 10.2959 12.2501 10.2902 12.2501C10.2845 12.2501 10.2788 12.2501 10.2732 12.2501C10.2675 12.2501 10.2617 12.2501 10.256 12.2501C10.2503 12.2501 10.2446 12.2501 10.2388 12.2501C10.2331 12.2501 10.2273 12.2501 10.2215 12.2501C10.2157 12.2501 10.2099 12.2501 10.2041 12.2501C10.1983 12.2501 10.1925 12.2501 10.1866 12.2501C10.1808 12.2501 10.1749 12.2501 10.1691 12.2501C10.1632 12.2501 10.1573 12.2501 10.1514 12.2501C10.1455 12.2501 10.1396 12.2501 10.1337 12.2501C10.1277 12.2501 10.1218 12.2501 10.1158 12.2501C10.1099 12.2501 10.1039 12.2501 10.0979 12.2501C10.0919 12.2501 10.0859 12.2501 10.0799 12.2501C10.0739 12.2501 10.0678 12.2501 10.0618 12.2501C10.0557 12.2501 10.0497 12.2501 10.0436 12.2501C10.0375 12.2501 10.0314 12.2501 10.0253 12.2501C10.0192 12.2501 10.013 12.2501 10.0069 12.2501C10.0008 12.2501 9.9946 12.2501 9.9884 12.2501C9.9823 12.2501 9.9761 12.2501 9.9699 12.2501C9.9637 12.2501 9.9575 12.2501 9.9512 12.2501C9.945 12.2501 9.9388 12.2501 9.9325 12.2501C9.9262 12.2501 9.92 12.2501 9.9137 12.2501C9.9074 12.2501 9.9011 12.2501 9.8947 12.2501C9.8884 12.2501 9.8821 12.2501 9.8757 12.2501C9.8694 12.2501 9.863 12.2501 9.8566 12.2501C9.8502 12.2501 9.8438 12.2501 9.8374 12.2501C9.831 12.2501 9.8246 12.2501 9.8181 12.2501C9.8117 12.2501 9.8052 12.2501 9.7987 12.2501C9.7923 12.2501 9.7858 12.2501 9.7792 12.2501C9.7727 12.2501 9.7662 12.2501 9.7597 12.2501C9.7531 12.2501 9.7466 12.2501 9.74 12.2501C9.7334 12.2501 9.7268 12.2501 9.7202 12.2501C9.7136 12.2501 9.707 12.2501 9.7004 12.2501C9.6938 12.2501 9.6871 12.2501 9.6804 12.2501C9.6738 12.2501 9.6671 12.2501 9.6604 12.2501C9.6537 12.2501 9.647 12.2501 9.6403 12.2501C9.6335 12.2501 9.6268 12.2501 9.62 12.2501C9.6133 12.2501 9.6065 12.2501 9.5997 12.2501C9.5929 12.2501 9.5861 12.2501 9.5793 12.2501C9.5724 12.2501 9.5656 12.2501 9.5587 12.2501C9.5519 12.2501 9.545 12.2501 9.5381 12.2501C9.5312 12.2501 9.5243 12.2501 9.5174 12.2501C9.5105 12.2501 9.5036 12.2501 9.4966 12.2501C9.4897 12.2501 9.4827 12.2501 9.4757 12.2501C9.4687 12.2501 9.4617 12.2501 9.4547 12.2501C9.4477 12.2501 9.4407 12.2501 9.4336 12.2501C9.4266 12.2501 9.4195 12.2501 9.4124 12.2501C9.4053 12.2501 9.3982 12.2501 9.3911 12.2501C9.384 12.2501 9.3769 12.2501 9.3697 12.2501C9.3626 12.2501 9.3554 12.2501 9.3482 12.2501C9.3411 12.2501 9.3339 12.2501 9.3266 12.2501C9.3194 12.2501 9.3122 12.2501 9.305 12.2501C9.2977 12.2501 9.2905 12.2501 9.2832 12.2501C9.2759 12.2501 9.2686 12.2501 9.2613 12.2501C9.254 12.2501 9.2467 12.2501 9.2393 12.2501C9.232 12.2501 9.2246 12.2501 9.2172 12.2501C9.2099 12.2501 9.2025 12.2501 9.1951 12.2501C9.1876 12.2501 9.1802 12.2501 9.1728 12.2501C9.1653 12.2501 9.1579 12.2501 9.1504 12.2501C9.1429 12.2501 9.1354 12.2501 9.1279 12.2501C9.1204 12.2501 9.1129 12.2501 9.1053 12.2501C9.0978 12.2501 9.0902 12.2501 9.0826 12.2501C9.0751 12.2501 9.0675 12.2501 9.0599 12.2501C9.0523 12.2501 9.0446 12.2501 9.037 12.2501C9.0293 12.2501 9.0217 12.2501 9.014 12.2501C9.0063 12.2501 8.9986 12.2501 8.9909 12.2501C8.9832 12.2501 8.9755 12.2501 8.9677 12.2501C8.96 12.2501 8.9522 12.2501 8.9444 12.2501C8.9367 12.2501 8.9289 12.2501 8.921 12.2501C8.9132 12.2501 8.9054 12.2501 8.8975 12.2501C8.8897 12.2501 8.8818 12.2501 8.874 12.2501C8.8661 12.2501 8.8582 12.2501 8.8503 12.2501C8.8423 12.2501 8.8344 12.2501 8.8264 12.2501C8.8185 12.2501 8.8105 12.2501 8.8025 12.2501C8.7946 12.2501 8.7866 12.2501 8.7785 12.2501C8.7705 12.2501 8.7625 12.2501 8.7544 12.2501C8.7464 12.2501 8.7383 12.2501 8.7302 12.2501C8.7221 12.2501 8.714 12.2501 8.7059 12.2501C8.6978 12.2501 8.6896 12.2501 8.6815 12.2501C8.6733 12.2501 8.6651 12.2501 8.6569 12.2501C8.6487 12.2501 8.6405 12.2501 8.6323 12.2501C8.6241 12.2501 8.6158 12.2501 8.6076 12.2501C8.5993 12.2501 8.591 12.2501 8.5827 12.2501C8.5744 12.2501 8.5661 12.2501 8.5578 12.2501C8.5494 12.2501 8.5411 12.2501 8.5327 12.2501C8.5243 12.2501 8.5159 12.2501 8.5075 12.2501C8.4991 12.2501 8.4907 12.2501 8.4823 12.2501C8.4738 12.2501 8.4654 12.2501 8.4569 12.2501C8.4484 12.2501 8.4399 12.2501 8.4314 12.2501C8.4229 12.2501 8.4144 12.2501 8.4058 12.2501C8.3973 12.2501 8.3887 12.2501 8.3801 12.2501C8.3715 12.2501 8.3629 12.2501 8.3543 12.2501C8.3457 12.2501 8.3371 12.2501 8.3284 12.2501C8.3198 12.2501 8.3111 12.2501 8.3024 12.2501C8.2937 12.2501 8.285 12.2501 8.2763 12.2501C8.2675 12.2501 8.2588 12.2501 8.25 12.2501C8.2413 12.2501 8.2325 12.2501 8.2237 12.2501C8.2149 12.2501 8.2061 12.2501 8.1972 12.2501C8.1884 12.2501 8.1796 12.2501 8.1707 12.2501C8.1618 12.2501 8.1529 12.2501 8.144 12.2501C8.1351 12.2501 8.1262 12.2501 8.1172 12.2501C8.1083 12.2501 8.0993 12.2501 8.0903 12.2501C8.0814 12.2501 8.0724 12.2501 8.0633 12.2501C8.0543 12.2501 8.0453 12.2501 8.0362 12.2501C8.0272 12.2501 8.0181 12.2501 8.009 12.2501C7.9999 12.2501 7.9908 12.2501 7.9817 12.2501C7.9726 12.2501 7.9634 12.2501 7.9543 12.2501C7.9451 12.2501 7.9359 12.2501 7.9267 12.2501C7.9175 12.2501 7.9083 12.2501 7.899 12.2501C7.8898 12.2501 7.8805 12.2501 7.8713 12.2501C7.862 12.2501 7.8527 12.2501 7.8434 12.2501C7.8341 12.2501 7.8247 12.2501 7.8154 12.2501C7.806 12.2501 7.7967 12.2501 7.7873 12.2501C7.7779 12.2501 7.7685 12.2501 7.7591 12.2501C7.7496 12.2501 7.7402 12.2501 7.7307 12.2501C7.7213 12.2501 7.7118 12.2501 7.7023 12.2501C7.6928 12.2501 7.6833 12.2501 7.6737 12.2501C7.6642 12.2501 7.6546 12.2501 7.6451 12.2501C7.6355 12.2501 7.6259 12.2501 7.6163 12.2501C7.6067 12.2501 7.597 12.2501 7.5874 12.2501C7.5777 12.2501 7.5681 12.2501 7.5584 12.2501C7.5487 12.2501 7.539 12.2501 7.5292 12.2501C7.5195 12.2501 7.5098 12.2501 7.5 12.2501L7.5 13.7501C7.5098 13.7501 7.5195 13.7501 7.5292 13.7501C7.539 13.7501 7.5487 13.7501 7.5584 13.7501C7.5681 13.7501 7.5777 13.7501 7.5874 13.7501C7.597 13.7501 7.6067 13.7501 7.6163 13.7501C7.6259 13.7501 7.6355 13.7501 7.6451 13.7501C7.6546 13.7501 7.6642 13.7501 7.6737 13.7501C7.6833 13.7501 7.6928 13.7501 7.7023 13.7501C7.7118 13.7501 7.7213 13.7501 7.7307 13.7501C7.7402 13.7501 7.7496 13.7501 7.7591 13.7501C7.7685 13.7501 7.7779 13.7501 7.7873 13.7501C7.7967 13.7501 7.806 13.7501 7.8154 13.7501C7.8247 13.7501 7.8341 13.7501 7.8434 13.7501C7.8527 13.7501 7.862 13.7501 7.8713 13.7501C7.8805 13.7501 7.8898 13.7501 7.899 13.7501C7.9083 13.7501 7.9175 13.7501 7.9267 13.7501C7.9359 13.7501 7.9451 13.7501 7.9543 13.7501C7.9634 13.7501 7.9726 13.7501 7.9817 13.7501C7.9908 13.7501 7.9999 13.7501 8.009 13.7501C8.0181 13.7501 8.0272 13.7501 8.0362 13.7501C8.0453 13.7501 8.0543 13.7501 8.0633 13.7501C8.0724 13.7501 8.0814 13.7501 8.0903 13.7501C8.0993 13.7501 8.1083 13.7501 8.1172 13.7501C8.1262 13.7501 8.1351 13.7501 8.144 13.7501C8.1529 13.7501 8.1618 13.7501 8.1707 13.7501C8.1796 13.7501 8.1884 13.7501 8.1972 13.7501C8.2061 13.7501 8.2149 13.7501 8.2237 13.7501C8.2325 13.7501 8.2413 13.7501 8.25 13.7501C8.2588 13.7501 8.2675 13.7501 8.2763 13.7501C8.285 13.7501 8.2937 13.7501 8.3024 13.7501C8.3111 13.7501 8.3198 13.7501 8.3284 13.7501C8.3371 13.7501 8.3457 13.7501 8.3543 13.7501C8.3629 13.7501 8.3715 13.7501 8.3801 13.7501C8.3887 13.7501 8.3973 13.7501 8.4058 13.7501C8.4144 13.7501 8.4229 13.7501 8.4314 13.7501C8.4399 13.7501 8.4484 13.7501 8.4569 13.7501C8.4654 13.7501 8.4738 13.7501 8.4823 13.7501C8.4907 13.7501 8.4991 13.7501 8.5075 13.7501C8.5159 13.7501 8.5243 13.7501 8.5327 13.7501C8.5411 13.7501 8.5494 13.7501 8.5578 13.7501C8.5661 13.7501 8.5744 13.7501 8.5827 13.7501C8.591 13.7501 8.5993 13.7501 8.6076 13.7501C8.6158 13.7501 8.6241 13.7501 8.6323 13.7501C8.6405 13.7501 8.6487 13.7501 8.6569 13.7501C8.6651 13.7501 8.6733 13.7501 8.6815 13.7501C8.6896 13.7501 8.6978 13.7501 8.7059 13.7501C8.714 13.7501 8.7221 13.7501 8.7302 13.7501C8.7383 13.7501 8.7464 13.7501 8.7544 13.7501C8.7625 13.7501 8.7705 13.7501 8.7785 13.7501C8.7866 13.7501 8.7946 13.7501 8.8025 13.7501C8.8105 13.7501 8.8185 13.7501 8.8264 13.7501C8.8344 13.7501 8.8423 13.7501 8.8503 13.7501C8.8582 13.7501 8.8661 13.7501 8.874 13.7501C8.8818 13.7501 8.8897 13.7501 8.8975 13.7501C8.9054 13.7501 8.9132 13.7501 8.921 13.7501C8.9289 13.7501 8.9367 13.7501 8.9444 13.7501C8.9522 13.7501 8.96 13.7501 8.9677 13.7501C8.9755 13.7501 8.9832 13.7501 8.9909 13.7501C8.9986 13.7501 9.0063 13.7501 9.014 13.7501C9.0217 13.7501 9.0293 13.7501 9.037 13.7501C9.0446 13.7501 9.0523 13.7501 9.0599 13.7501C9.0675 13.7501 9.0751 13.7501 9.0826 13.7501C9.0902 13.7501 9.0978 13.7501 9.1053 13.7501C9.1129 13.7501 9.1204 13.7501 9.1279 13.7501C9.1354 13.7501 9.1429 13.7501 9.1504 13.7501C9.1579 13.7501 9.1653 13.7501 9.1728 13.7501C9.1802 13.7501 9.1876 13.7501 9.1951 13.7501C9.2025 13.7501 9.2099 13.7501 9.2172 13.7501C9.2246 13.7501 9.232 13.7501 9.2393 13.7501C9.2467 13.7501 9.254 13.7501 9.2613 13.7501C9.2686 13.7501 9.2759 13.7501 9.2832 13.7501C9.2905 13.7501 9.2977 13.7501 9.305 13.7501C9.3122 13.7501 9.3194 13.7501 9.3266 13.7501C9.3339 13.7501 9.3411 13.7501 9.3482 13.7501C9.3554 13.7501 9.3626 13.7501 9.3697 13.7501C9.3769 13.7501 9.384 13.7501 9.3911 13.7501C9.3982 13.7501 9.4053 13.7501 9.4124 13.7501C9.4195 13.7501 9.4266 13.7501 9.4336 13.7501C9.4407 13.7501 9.4477 13.7501 9.4547 13.7501C9.4617 13.7501 9.4687 13.7501 9.4757 13.7501C9.4827 13.7501 9.4897 13.7501 9.4966 13.7501C9.5036 13.7501 9.5105 13.7501 9.5174 13.7501C9.5243 13.7501 9.5312 13.7501 9.5381 13.7501C9.545 13.7501 9.5519 13.7501 9.5587 13.7501C9.5656 13.7501 9.5724 13.7501 9.5793 13.7501C9.5861 13.7501 9.5929 13.7501 9.5997 13.7501C9.6065 13.7501 9.6133 13.7501 9.62 13.7501C9.6268 13.7501 9.6335 13.7501 9.6403 13.7501C9.647 13.7501 9.6537 13.7501 9.6604 13.7501C9.6671 13.7501 9.6738 13.7501 9.6804 13.7501C9.6871 13.7501 9.6938 13.7501 9.7004 13.7501C9.707 13.7501 9.7136 13.7501 9.7202 13.7501C9.7268 13.7501 9.7334 13.7501 9.74 13.7501C9.7466 13.7501 9.7531 13.7501 9.7597 13.7501C9.7662 13.7501 9.7727 13.7501 9.7792 13.7501C9.7858 13.7501 9.7923 13.7501 9.7987 13.7501C9.8052 13.7501 9.8117 13.7501 9.8181 13.7501C9.8246 13.7501 9.831 13.7501 9.8374 13.7501C9.8438 13.7501 9.8502 13.7501 9.8566 13.7501C9.863 13.7501 9.8694 13.7501 9.8757 13.7501C9.8821 13.7501 9.8884 13.7501 9.8947 13.7501C9.9011 13.7501 9.9074 13.7501 9.9137 13.7501C9.92 13.7501 9.9262 13.7501 9.9325 13.7501C9.9388 13.7501 9.945 13.7501 9.9512 13.7501C9.9575 13.7501 9.9637 13.7501 9.9699 13.7501C9.9761 13.7501 9.9823 13.7501 9.9884 13.7501C9.9946 13.7501 10.0008 13.7501 10.0069 13.7501C10.013 13.7501 10.0192 13.7501 10.0253 13.7501C10.0314 13.7501 10.0375 13.7501 10.0436 13.7501C10.0497 13.7501 10.0557 13.7501 10.0618 13.7501C10.0678 13.7501 10.0739 13.7501 10.0799 13.7501C10.0859 13.7501 10.0919 13.7501 10.0979 13.7501C10.1039 13.7501 10.1099 13.7501 10.1158 13.7501C10.1218 13.7501 10.1277 13.7501 10.1337 13.7501C10.1396 13.7501 10.1455 13.7501 10.1514 13.7501C10.1573 13.7501 10.1632 13.7501 10.1691 13.7501C10.1749 13.7501 10.1808 13.7501 10.1866 13.7501C10.1925 13.7501 10.1983 13.7501 10.2041 13.7501C10.2099 13.7501 10.2157 13.7501 10.2215 13.7501C10.2273 13.7501 10.2331 13.7501 10.2388 13.7501C10.2446 13.7501 10.2503 13.7501 10.256 13.7501C10.2617 13.7501 10.2675 13.7501 10.2732 13.7501C10.2788 13.7501 10.2845 13.7501 10.2902 13.7501C10.2959 13.7501 10.3015 13.7501 10.3071 13.7501C10.3128 13.7501 10.3184 13.7501 10.324 13.7501C10.3296 13.7501 10.3352 13.7501 10.3408 13.7501C10.3464 13.7501 10.3519 13.7501 10.3575 13.7501C10.363 13.7501 10.3686 13.7501 10.3741 13.7501C10.3796 13.7501 10.3851 13.7501 10.3906 13.7501C10.3961 13.7501 10.4016 13.7501 10.4071 13.7501C10.4125 13.7501 10.418 13.7501 10.4234 13.7501C10.4288 13.7501 10.4343 13.7501 10.4397 13.7501C10.4451 13.7501 10.4505 13.7501 10.4559 13.7501C10.4612 13.7501 10.4666 13.7501 10.472 13.7501C10.4773 13.7501 10.4826 13.7501 10.488 13.7501C10.4933 13.7501 10.4986 13.7501 10.5039 13.7501C10.5092 13.7501 10.5145 13.7501 10.5197 13.7501C10.525 13.7501 10.5303 13.7501 10.5355 13.7501C10.5407 13.7501 10.546 13.7501 10.5512 13.7501C10.5564 13.7501 10.5616 13.7501 10.5668 13.7501C10.5719 13.7501 10.5771 13.7501 10.5823 13.7501C10.5874 13.7501 10.5926 13.7501 10.5977 13.7501C10.6028 13.7501 10.6079 13.7501 10.613 13.7501C10.6181 13.7501 10.6232 13.7501 10.6283 13.7501C10.6334 13.7501 10.6384 13.7501 10.6435 13.7501C10.6485 13.7501 10.6535 13.7501 10.6586 13.7501C10.6636 13.7501 10.6686 13.7501 10.6736 13.7501C10.6786 13.7501 10.6835 13.7501 10.6885 13.7501C10.6935 13.7501 10.6984 13.7501 10.7033 13.7501C10.7083 13.7501 10.7132 13.7501 10.7181 13.7501C10.723 13.7501 10.7279 13.7501 10.7328 13.7501C10.7377 13.7501 10.7425 13.7501 10.7474 13.7501C10.7523 13.7501 10.7571 13.7501 10.7619 13.7501C10.7668 13.7501 10.7716 13.7501 10.7764 13.7501C10.7812 13.7501 10.786 13.7501 10.7907 13.7501C10.7955 13.7501 10.8003 13.7501 10.805 13.7501C10.8098 13.7501 10.8145 13.7501 10.8192 13.7501C10.8239 13.7501 10.8287 13.7501 10.8333 13.7501C10.838 13.7501 10.8427 13.7501 10.8474 13.7501C10.8521 13.7501 10.8567 13.7501 10.8614 13.7501C10.866 13.7501 10.8706 13.7501 10.8752 13.7501C10.8799 13.7501 10.8845 13.7501 10.8891 13.7501C10.8936 13.7501 10.8982 13.7501 10.9028 13.7501C10.9073 13.7501 10.9119 13.7501 10.9164 13.7501C10.921 13.7501 10.9255 13.7501 10.93 13.7501C10.9345 13.7501 10.939 13.7501 10.9435 13.7501C10.948 13.7501 10.9525 13.7501 10.9569 13.7501C10.9614 13.7501 10.9658 13.7501 10.9703 13.7501C10.9747 13.7501 10.9791 13.7501 10.9835 13.7501C10.9879 13.7501 10.9923 13.7501 10.9967 13.7501C11.0011 13.7501 11.0055 13.7501 11.0098 13.7501C11.0142 13.7501 11.0185 13.7501 11.0229 13.7501C11.0272 13.7501 11.0315 13.7501 11.0358 13.7501C11.0401 13.7501 11.0444 13.7501 11.0487 13.7501C11.053 13.7501 11.0572 13.7501 11.0615 13.7501C11.0658 13.7501 11.07 13.7501 11.0742 13.7501C11.0785 13.7501 11.0827 13.7501 11.0869 13.7501C11.0911 13.7501 11.0953 13.7501 11.0995 13.7501C11.1036 13.7501 11.1078 13.7501 11.112 13.7501C11.1161 13.7501 11.1203 13.7501 11.1244 13.7501C11.1285 13.7501 11.1326 13.7501 11.1368 13.7501C11.1409 13.7501 11.145 13.7501 11.149 13.7501C11.1531 13.7501 11.1572 13.7501 11.1612 13.7501C11.1653 13.7501 11.1693 13.7501 11.1734 13.7501C11.1774 13.7501 11.1814 13.7501 11.1854 13.7501C11.1894 13.7501 11.1934 13.7501 11.1974 13.7501C11.2014 13.7501 11.2054 13.7501 11.2093 13.7501C11.2133 13.7501 11.2172 13.7501 11.2212 13.7501C11.2251 13.7501 11.229 13.7501 11.2329 13.7501C11.2369 13.7501 11.2408 13.7501 11.2446 13.7501C11.2485 13.7501 11.2524 13.7501 11.2563 13.7501C11.2601 13.7501 11.264 13.7501 11.2678 13.7501C11.2717 13.7501 11.2755 13.7501 11.2793 13.7501C11.2831 13.7501 11.2869 13.7501 11.2907 13.7501C11.2945 13.7501 11.2983 13.7501 11.302 13.7501C11.3058 13.7501 11.3096 13.7501 11.3133 13.7501C11.3171 13.7501 11.3208 13.7501 11.3245 13.7501C11.3282 13.7501 11.3319 13.7501 11.3356 13.7501C11.3393 13.7501 11.343 13.7501 11.3467 13.7501C11.3504 13.7501 11.354 13.7501 11.3577 13.7501C11.3613 13.7501 11.365 13.7501 11.3686 13.7501C11.3722 13.7501 11.3758 13.7501 11.3794 13.7501C11.383 13.7501 11.3866 13.7501 11.3902 13.7501C11.3938 13.7501 11.3973 13.7501 11.4009 13.7501C11.4045 13.7501 11.408 13.7501 11.4115 13.7501C11.4151 13.7501 11.4186 13.7501 11.4221 13.7501C11.4256 13.7501 11.4291 13.7501 11.4326 13.7501C11.4361 13.7501 11.4396 13.7501 11.443 13.7501C11.4465 13.7501 11.45 13.7501 11.4534 13.7501C11.4568 13.7501 11.4603 13.7501 11.4637 13.7501C11.4671 13.7501 11.4705 13.7501 11.4739 13.7501C11.4773 13.7501 11.4807 13.7501 11.4841 13.7501C11.4875 13.7501 11.4908 13.7501 11.4942 13.7501C11.4975 13.7501 11.5009 13.7501 11.5042 13.7501C11.5075 13.7501 11.5108 13.7501 11.5142 13.7501C11.5175 13.7501 11.5208 13.7501 11.524 13.7501C11.5273 13.7501 11.5306 13.7501 11.5339 13.7501C11.5371 13.7501 11.5404 13.7501 11.5436 13.7501C11.5469 13.7501 11.5501 13.7501 11.5533 13.7501C11.5565 13.7501 11.5598 13.7501 11.5629 13.7501C11.5661 13.7501 11.5693 13.7501 11.5725 13.7501C11.5757 13.7501 11.5789 13.7501 11.582 13.7501C11.5852 13.7501 11.5883 13.7501 11.5914 13.7501C11.5946 13.7501 11.5977 13.7501 11.6008 13.7501C11.6039 13.7501 11.607 13.7501 11.6101 13.7501C11.6132 13.7501 11.6163 13.7501 11.6193 13.7501C11.6224 13.7501 11.6255 13.7501 11.6285 13.7501C11.6316 13.7501 11.6346 13.7501 11.6376 13.7501C11.6407 13.7501 11.6437 13.7501 11.6467 13.7501C11.6497 13.7501 11.6527 13.7501 11.6557 13.7501C11.6586 13.7501 11.6616 13.7501 11.6646 13.7501C11.6675 13.7501 11.6705 13.7501 11.6734 13.7501C11.6764 13.7501 11.6793 13.7501 11.6822 13.7501C11.6851 13.7501 11.6881 13.7501 11.691 13.7501C11.6939 13.7501 11.6967 13.7501 11.6996 13.7501C11.7025 13.7501 11.7054 13.7501 11.7082 13.7501C11.7111 13.7501 11.7139 13.7501 11.7168 13.7501C11.7196 13.7501 11.7224 13.7501 11.7253 13.7501C11.7281 13.7501 11.7309 13.7501 11.7337 13.7501C11.7365 13.7501 11.7393 13.7501 11.742 13.7501C11.7448 13.7501 11.7476 13.7501 11.7503 13.7501C11.7531 13.7501 11.7558 13.7501 11.7586 13.7501C11.7613 13.7501 11.764 13.7501 11.7668 13.7501C11.7695 13.7501 11.7722 13.7501 11.7749 13.7501C11.7776 13.7501 11.7802 13.7501 11.7829 13.7501C11.7856 13.7501 11.7883 13.7501 11.7909 13.7501C11.7936 13.7501 11.7962 13.7501 11.7989 13.7501C11.8015 13.7501 11.8041 13.7501 11.8067 13.7501C11.8094 13.7501 11.812 13.7501 11.8146 13.7501C11.8172 13.7501 11.8197 13.7501 11.8223 13.7501C11.8249 13.7501 11.8275 13.7501 11.83 13.7501C11.8326 13.7501 11.8351 13.7501 11.8377 13.7501C11.8402 13.7501 11.8427 13.7501 11.8452 13.7501C11.8478 13.7501 11.8503 13.7501 11.8528 13.7501C11.8553 13.7501 11.8578 13.7501 11.8602 13.7501C11.8627 13.7501 11.8652 13.7501 11.8676 13.7501C11.8701 13.7501 11.8726 13.7501 11.875 13.7501C11.8774 13.7501 11.8799 13.7501 11.8823 13.7501C11.8847 13.7501 11.8871 13.7501 11.8895 13.7501C11.8919 13.7501 11.8943 13.7501 11.8967 13.7501C11.8991 13.7501 11.9015 13.7501 11.9038 13.7501C11.9062 13.7501 11.9086 13.7501 11.9109 13.7501C11.9133 13.7501 11.9156 13.7501 11.9179 13.7501C11.9203 13.7501 11.9226 13.7501 11.9249 13.7501C11.9272 13.7501 11.9295 13.7501 11.9318 13.7501C11.9341 13.7501 11.9364 13.7501 11.9386 13.7501C11.9409 13.7501 11.9432 13.7501 11.9454 13.7501C11.9477 13.7501 11.9499 13.7501 11.9522 13.7501C11.9544 13.7501 11.9566 13.7501 11.9588 13.7501C11.9611 13.7501 11.9633 13.7501 11.9655 13.7501C11.9677 13.7501 11.9699 13.7501 11.972 13.7501C11.9742 13.7501 11.9764 13.7501 11.9786 13.7501C11.9807 13.7501 11.9829 13.7501 11.985 13.7501C11.9872 13.7501 11.9893 13.7501 11.9914 13.7501C11.9936 13.7501 11.9957 13.7501 11.9978 13.7501C11.9999 13.7501 12.002 13.7501 12.0041 13.7501C12.0062 13.7501 12.0083 13.7501 12.0103 13.7501C12.0124 13.7501 12.0145 13.7501 12.0165 13.7501C12.0186 13.7501 12.0206 13.7501 12.0227 13.7501C12.0247 13.7501 12.0268 13.7501 12.0288 13.7501C12.0308 13.7501 12.0328 13.7501 12.0348 13.7501C12.0368 13.7501 12.0388 13.7501 12.0408 13.7501C12.0428 13.7501 12.0448 13.7501 12.0467 13.7501C12.0487 13.7501 12.0507 13.7501 12.0526 13.7501C12.0546 13.7501 12.0565 13.7501 12.0585 13.7501C12.0604 13.7501 12.0623 13.7501 12.0642 13.7501C12.0662 13.7501 12.0681 13.7501 12.07 13.7501C12.0719 13.7501 12.0738 13.7501 12.0757 13.7501C12.0776 13.7501 12.0794 13.7501 12.0813 13.7501C12.0832 13.7501 12.085 13.7501 12.0869 13.7501C12.0887 13.7501 12.0906 13.7501 12.0924 13.7501C12.0943 13.7501 12.0961 13.7501 12.0979 13.7501C12.0997 13.7501 12.1015 13.7501 12.1033 13.7501C12.1051 13.7501 12.1069 13.7501 12.1087 13.7501C12.1105 13.7501 12.1123 13.7501 12.1141 13.7501C12.1158 13.7501 12.1176 13.7501 12.1193 13.7501C12.1211 13.7501 12.1228 13.7501 12.1246 13.7501C12.1263 13.7501 12.128 13.7501 12.1298 13.7501C12.1315 13.7501 12.1332 13.7501 12.1349 13.7501C12.1366 13.7501 12.1383 13.7501 12.14 13.7501C12.1417 13.7501 12.1434 13.7501 12.145 13.7501C12.1467 13.7501 12.1484 13.7501 12.15 13.7501C12.1517 13.7501 12.1534 13.7501 12.155 13.7501C12.1566 13.7501 12.1583 13.7501 12.1599 13.7501C12.1615 13.7501 12.1632 13.7501 12.1648 13.7501C12.1664 13.7501 12.168 13.7501 12.1696 13.7501C12.1712 13.7501 12.1728 13.7501 12.1743 13.7501C12.1759 13.7501 12.1775 13.7501 12.1791 13.7501C12.1806 13.7501 12.1822 13.7501 12.1837 13.7501C12.1853 13.7501 12.1868 13.7501 12.1884 13.7501C12.1899 13.7501 12.1914 13.7501 12.1929 13.7501C12.1945 13.7501 12.196 13.7501 12.1975 13.7501C12.199 13.7501 12.2005 13.7501 12.202 13.7501C12.2035 13.7501 12.2049 13.7501 12.2064 13.7501C12.2079 13.7501 12.2094 13.7501 12.2108 13.7501C12.2123 13.7501 12.2137 13.7501 12.2152 13.7501C12.2166 13.7501 12.2181 13.7501 12.2195 13.7501C12.2209 13.7501 12.2224 13.7501 12.2238 13.7501C12.2252 13.7501 12.2266 13.7501 12.228 13.7501C12.2294 13.7501 12.2308 13.7501 12.2322 13.7501C12.2336 13.7501 12.235 13.7501 12.2363 13.7501C12.2377 13.7501 12.2391 13.7501 12.2404 13.7501C12.2418 13.7501 12.2431 13.7501 12.2445 13.7501C12.2458 13.7501 12.2472 13.7501 12.2485 13.7501C12.2498 13.7501 12.2512 13.7501 12.2525 13.7501C12.2538 13.7501 12.2551 13.7501 12.2564 13.7501C12.2577 13.7501 12.259 13.7501 12.2603 13.7501C12.2616 13.7501 12.2629 13.7501 12.2641 13.7501C12.2654 13.7501 12.2667 13.7501 12.2679 13.7501C12.2692 13.7501 12.2704 13.7501 12.2717 13.7501C12.2729 13.7501 12.2742 13.7501 12.2754 13.7501C12.2767 13.7501 12.2779 13.7501 12.2791 13.7501C12.2803 13.7501 12.2815 13.7501 12.2827 13.7501C12.2839 13.7501 12.2851 13.7501 12.2863 13.7501C12.2875 13.7501 12.2887 13.7501 12.2899 13.7501C12.2911 13.7501 12.2923 13.7501 12.2934 13.7501C12.2946 13.7501 12.2958 13.7501 12.2969 13.7501C12.2981 13.7501 12.2992 13.7501 12.3003 13.7501C12.3015 13.7501 12.3026 13.7501 12.3038 13.7501C12.3049 13.7501 12.306 13.7501 12.3071 13.7501C12.3082 13.7501 12.3093 13.7501 12.3104 13.7501C12.3115 13.7501 12.3126 13.7501 12.3137 13.7501C12.3148 13.7501 12.3159 13.7501 12.317 13.7501C12.3181 13.7501 12.3191 13.7501 12.3202 13.7501C12.3213 13.7501 12.3223 13.7501 12.3234 13.7501C12.3244 13.7501 12.3255 13.7501 12.3265 13.7501C12.3275 13.7501 12.3286 13.7501 12.3296 13.7501C12.3306 13.7501 12.3316 13.7501 12.3327 13.7501C12.3337 13.7501 12.3347 13.7501 12.3357 13.7501C12.3367 13.7501 12.3377 13.7501 12.3387 13.7501C12.3397 13.7501 12.3406 13.7501 12.3416 13.7501C12.3426 13.7501 12.3436 13.7501 12.3445 13.7501C12.3455 13.7501 12.3465 13.7501 12.3474 13.7501C12.3484 13.7501 12.3493 13.7501 12.3503 13.7501C12.3512 13.7501 12.3521 13.7501 12.3531 13.7501C12.354 13.7501 12.3549 13.7501 12.3558 13.7501C12.3568 13.7501 12.3577 13.7501 12.3586 13.7501C12.3595 13.7501 12.3604 13.7501 12.3613 13.7501C12.3622 13.7501 12.3631 13.7501 12.3639 13.7501C12.3648 13.7501 12.3657 13.7501 12.3666 13.7501C12.3674 13.7501 12.3683 13.7501 12.3692 13.7501C12.37 13.7501 12.3709 13.7501 12.3717 13.7501C12.3726 13.7501 12.3734 13.7501 12.3743 13.7501C12.3751 13.7501 12.3759 13.7501 12.3768 13.7501C12.3776 13.7501 12.3784 13.7501 12.3792 13.7501C12.38 13.7501 12.3809 13.7501 12.3817 13.7501C12.3825 13.7501 12.3833 13.7501 12.3841 13.7501C12.3849 13.7501 12.3856 13.7501 12.3864 13.7501C12.3872 13.7501 12.388 13.7501 12.3888 13.7501C12.3895 13.7501 12.3903 13.7501 12.3911 13.7501C12.3918 13.7501 12.3926 13.7501 12.3933 13.7501C12.3941 13.7501 12.3948 13.7501 12.3956 13.7501C12.3963 13.7501 12.397 13.7501 12.3978 13.7501C12.3985 13.7501 12.3992 13.7501 12.4 13.7501C12.4007 13.7501 12.4014 13.7501 12.4021 13.7501C12.4028 13.7501 12.4035 13.7501 12.4042 13.7501C12.4049 13.7501 12.4056 13.7501 12.4063 13.7501C12.407 13.7501 12.4077 13.7501 12.4083 13.7501C12.409 13.7501 12.4097 13.7501 12.4104 13.7501C12.411 13.7501 12.4117 13.7501 12.4124 13.7501C12.413 13.7501 12.4137 13.7501 12.4143 13.7501C12.415 13.7501 12.4156 13.7501 12.4163 13.7501C12.4169 13.7501 12.4175 13.7501 12.4182 13.7501C12.4188 13.7501 12.4194 13.7501 12.42 13.7501C12.4206 13.7501 12.4213 13.7501 12.4219 13.7501C12.4225 13.7501 12.4231 13.7501 12.4237 13.7501C12.4243 13.7501 12.4249 13.7501 12.4255 13.7501C12.4261 13.7501 12.4267 13.7501 12.4272 13.7501C12.4278 13.7501 12.4284 13.7501 12.429 13.7501C12.4295 13.7501 12.4301 13.7501 12.4307 13.7501C12.4312 13.7501 12.4318 13.7501 12.4324 13.7501C12.4329 13.7501 12.4335 13.7501 12.434 13.7501C12.4345 13.7501 12.4351 13.7501 12.4356 13.7501C12.4362 13.7501 12.4367 13.7501 12.4372 13.7501C12.4378 13.7501 12.4383 13.7501 12.4388 13.7501C12.4393 13.7501 12.4398 13.7501 12.4403 13.7501C12.4408 13.7501 12.4414 13.7501 12.4419 13.7501C12.4424 13.7501 12.4429 13.7501 12.4433 13.7501C12.4438 13.7501 12.4443 13.7501 12.4448 13.7501C12.4453 13.7501 12.4458 13.7501 12.4462 13.7501C12.4467 13.7501 12.4472 13.7501 12.4477 13.7501C12.4481 13.7501 12.4486 13.7501 12.4491 13.7501C12.4495 13.7501 12.45 13.7501 12.4504 13.7501C12.4509 13.7501 12.4513 13.7501 12.4518 13.7501C12.4522 13.7501 12.4526 13.7501 12.4531 13.7501C12.4535 13.7501 12.4539 13.7501 12.4544 13.7501C12.4548 13.7501 12.4552 13.7501 12.4556 13.7501C12.456 13.7501 12.4565 13.7501 12.4569 13.7501C12.4573 13.7501 12.4577 13.7501 12.4581 13.7501C12.4585 13.7501 12.4589 13.7501 12.4593 13.7501C12.4597 13.7501 12.4601 13.7501 12.4605 13.7501C12.4609 13.7501 12.4612 13.7501 12.4616 13.7501C12.462 13.7501 12.4624 13.7501 12.4627 13.7501C12.4631 13.7501 12.4635 13.7501 12.4639 13.7501C12.4642 13.7501 12.4646 13.7501 12.4649 13.7501C12.4653 13.7501 12.4656 13.7501 12.466 13.7501C12.4664 13.7501 12.4667 13.7501 12.467 13.7501C12.4674 13.7501 12.4677 13.7501 12.4681 13.7501C12.4684 13.7501 12.4687 13.7501 12.4691 13.7501C12.4694 13.7501 12.4688 13.7501 12.4691 13.7501C12.4695 13.7501 12.4707 13.7501 12.471 13.7501C12.4713 13.7501 12.4707 13.7501 12.471 13.7501C12.4713 13.7501 12.4725 13.7501 12.4728 13.7501C12.4731 13.7501 12.4725 13.7501 12.4728 13.7501C12.4731 13.7501 12.4743 13.7501 12.4746 13.7501C12.4749 13.7501 12.4743 13.7501 12.4746 13.7501C12.4749 13.7501 12.476 13.7501 12.4763 13.7501C12.4766 13.7501 12.4761 13.7501 12.4763 13.7501C12.4766 13.7501 12.4777 13.7501 12.4779 13.7501C12.4782 13.7501 12.4776 13.7501 12.4779 13.7501C12.4782 13.7501 12.4792 13.7501 12.4795 13.7501C12.4797 13.7501 12.4793 13.7501 12.4795 13.7501C12.4797 13.7501 12.4807 13.7501 12.4809 13.7501C12.4812 13.7501 12.4807 13.7501 12.4809 13.7501C12.4812 13.7501 12.4821 13.7501 12.4823 13.7501C12.4825 13.7501 12.4821 13.7501 12.4823 13.7501C12.4825 13.7501 12.4834 13.7501 12.4836 13.7501C12.4839 13.7501 12.4834 13.7501 12.4836 13.7501C12.4838 13.7501 12.4847 13.7501 12.4849 13.7501C12.4851 13.7501 12.4847 13.7501 12.4849 13.7501C12.4851 13.7501 12.4859 13.7501 12.4861 13.7501C12.4863 13.7501 12.4859 13.7501 12.4861 13.7501C12.4863 13.7501 12.487 13.7501 12.4872 13.7501C12.4874 13.7501 12.487 13.7501 12.4872 13.7501C12.4873 13.7501 12.4881 13.7501 12.4883 13.7501C12.4885 13.7501 12.4896 13.7501 12.4898 13.7501C12.4899 13.7501 12.491 13.7501 12.4911 13.7501C12.4912 13.7501 12.4922 13.7501 12.4923 13.7501C12.4924 13.7501 12.4933 13.7501 12.4935 13.7501C12.4936 13.7501 12.4943 13.7501 12.4945 13.7501C12.4946 13.7501 12.4955 13.7501 12.4956 13.7501C12.4957 13.7501 12.4955 13.7501 12.4956 13.7501C12.4957 13.7501 12.4965 13.7501 12.4966 13.7501C12.4967 13.7501 12.4977 13.7501 12.4978 13.7501C12.4978 13.7501 12.4987 13.7501 12.4988 13.7501C12.4989 13.7501 12.5 13.7501 12.5 13.7501L12.5 13.0001ZM12.5 13.7501L17.5 13.7501L17.5 12.2501L12.5 12.2501L12.5 13.7501Z" fill="#2BB673"/>
</svg>
