<svg width="25" height="26" viewBox="0 0 25 26" fill="none" xmlns="http://www.w3.org/2000/svg">
<path d="M17.838 0.0821674C16.2408 0.433848 15.0344 1.58658 14.6045 3.17402C14.5166 3.50128 14.4971 3.70154 14.4971 4.21441C14.502 4.91288 14.5752 5.30852 14.7999 5.84581C14.9855 6.27565 18.3021 11.9025 18.4535 12.0393C18.6195 12.1907 18.8149 12.1809 18.9663 12.0149C19.1031 11.8683 22.2438 6.56871 22.5076 6.04608C22.8055 5.44529 22.8934 5.03988 22.8934 4.21441C22.8934 3.37917 22.8104 2.9933 22.4978 2.36809C21.9361 1.24955 21.052 0.507114 19.8553 0.155434C19.2643 -0.0155215 18.4242 -0.0497126 17.838 0.0821674ZM19.3913 0.844141C19.616 0.888101 19.9579 1.01021 20.2314 1.14698C20.6271 1.33747 20.7589 1.43516 21.135 1.81615C21.643 2.32901 21.8775 2.73931 22.0435 3.40847C22.2291 4.14114 22.1266 5.10826 21.7944 5.75301C21.6723 5.99235 18.771 10.8963 18.7221 10.9403C18.683 10.9843 15.7084 5.97281 15.5277 5.55763C15.3274 5.10338 15.2737 4.79077 15.2786 4.16556C15.2835 3.67224 15.303 3.51593 15.4105 3.18867C15.5912 2.64162 15.8501 2.22644 16.275 1.79172C17.0956 0.956483 18.2239 0.614572 19.3913 0.844141Z" fill="#2BB673"/>
<path d="M18.351 1.99547C17.6623 2.09315 16.9687 2.62556 16.6512 3.29473C16.5046 3.61222 16.4949 3.65618 16.4949 4.213C16.4949 4.78937 16.4998 4.80402 16.6756 5.18012C17.3497 6.59173 19.1813 6.90433 20.2852 5.80533C21.267 4.82356 21.1449 3.22635 20.0263 2.40087C19.5623 2.05896 18.9469 1.91243 18.351 1.99547ZM19.2839 2.86978C19.9628 3.16285 20.3243 3.95413 20.1094 4.6526C19.9921 5.01405 19.6453 5.40481 19.2937 5.56111C18.7222 5.8151 18.0188 5.6588 17.5988 5.18501C17.3594 4.91148 17.252 4.60864 17.252 4.18858C17.252 3.74898 17.4522 3.3338 17.799 3.06027C17.9309 2.9577 18.0579 2.86978 18.0725 2.86978C18.0921 2.8649 18.2191 2.83559 18.351 2.79651C18.6391 2.71348 18.9957 2.74279 19.2839 2.86978Z" fill="#2BB673"/>
<path d="M6.51581 4.85318C6.18855 5.01436 5.94433 5.32697 5.87107 5.66888C5.83687 5.84472 5.82711 8.56047 5.83199 14.5341L5.84664 23.1503L5.98341 23.2675L6.12017 23.3848H12.4651H18.81L18.9467 23.2675L19.0835 23.1503V18.3098C19.0835 13.5377 19.0835 13.4693 18.9858 13.3765C18.8295 13.2251 18.5706 13.2251 18.4241 13.3717C18.3264 13.4693 18.3264 13.5328 18.3264 18.0363V22.6033H17.1541H15.9819V20.2538C15.9819 18.5443 15.9672 17.8458 15.9233 17.6993C15.8402 17.4257 15.4837 17.0741 15.1759 16.9715C14.9659 16.8982 14.6484 16.8885 12.4651 16.8885C9.72001 16.8885 9.72489 16.8885 9.34879 17.2108C9.24133 17.3036 9.10457 17.4697 9.05084 17.5869C8.95315 17.7921 8.94827 17.8653 8.94827 20.2001V22.6033H7.776H6.60373L6.6135 14.1727L6.62815 5.74215L6.76492 5.62492L6.90168 5.50769H10.1254H13.354L13.5006 5.36116C13.6227 5.23416 13.6422 5.18532 13.6178 5.05344C13.6031 4.96552 13.5396 4.85806 13.4859 4.80922C13.3882 4.73107 13.1538 4.72618 10.0766 4.72618H6.7698L6.51581 4.85318ZM12.0743 20.1366V22.6033H10.902H9.72978V20.2685C9.72978 18.471 9.74443 17.9142 9.79328 17.8556C9.92516 17.6895 10.0473 17.6748 11.0632 17.67H12.0743V20.1366ZM15.0001 17.7432C15.0782 17.7823 15.1515 17.8507 15.1711 17.8898C15.1857 17.9337 15.2004 19.0132 15.2004 20.288V22.6033H14.0281H12.8558V20.1366V17.67H13.8571C14.6435 17.67 14.8926 17.6846 15.0001 17.7432Z" fill="#2BB673"/>
<path d="M8.42072 6.95893C8.38653 6.97358 8.32792 7.04685 8.28884 7.12011C8.23023 7.23246 8.21558 7.50598 8.21558 8.52683C8.21558 9.73329 8.22046 9.80167 8.31815 9.92379L8.41584 10.0508H9.88117C11.2781 10.0508 11.3465 10.0459 11.4393 9.95309C11.5321 9.86029 11.537 9.79191 11.537 8.49264V7.125L11.41 7.02731C11.283 6.92962 11.2244 6.92474 9.88117 6.92962C9.11431 6.92962 8.45491 6.94427 8.42072 6.95893ZM10.7555 8.51218V9.31811L9.89094 9.30835L9.02151 9.29369L9.00686 8.49753L8.99709 7.70625H9.87629H10.7555V8.51218Z" fill="#2BB673"/>
<path d="M13.5201 7.02731L13.3931 7.125V8.49264C13.3931 9.79191 13.398 9.86029 13.4908 9.95309C13.5787 10.041 13.6519 10.0508 14.409 10.0508C15.1808 10.0508 15.2394 10.0459 15.3224 9.95309C15.3762 9.89448 15.4152 9.77725 15.4152 9.68445C15.4152 9.37184 15.3078 9.31811 14.707 9.31811H14.1795L14.1648 8.23865L14.1502 7.15919L14.0134 7.04196C13.8473 6.90031 13.691 6.89054 13.5201 7.02731Z" fill="#2BB673"/>
<path d="M8.35722 11.7558L8.23999 11.8486V13.226V14.6035L8.35722 14.6963C8.46467 14.7842 8.56725 14.7891 9.89582 14.7891H11.327L11.4295 14.6767C11.5321 14.5644 11.537 14.5302 11.537 13.2212C11.537 11.8779 11.537 11.873 11.4246 11.7705C11.3123 11.663 11.283 11.663 9.89093 11.663C8.56725 11.663 8.46467 11.6679 8.35722 11.7558ZM10.7555 13.226V14.0076H9.87628H8.99708V13.226V12.4445H9.87628H10.7555V13.226Z" fill="#2BB673"/>
<path d="M13.5005 11.7754C13.398 11.8877 13.3931 11.9219 13.3931 13.2309C13.3931 14.5741 13.3931 14.579 13.5054 14.6816C13.6178 14.7891 13.6471 14.7891 15.0489 14.7891H16.4752L16.5924 14.667L16.7145 14.5497V13.226V11.9024L16.5924 11.7851L16.4752 11.663H15.0391H13.6031L13.5005 11.7754ZM15.933 13.226V14.0076H15.0538H14.1746V13.226V12.4445H15.0538H15.933V13.226Z" fill="#2BB673"/>
<path d="M2.59853 18.2712C2.50572 18.3005 2.32011 18.4373 2.18823 18.574C1.95378 18.8085 1.90493 18.9159 0.972005 21.1872C0.102573 23.3071 0 23.5855 0 23.8346C0 24.3181 0.317489 24.7626 0.776627 24.9287C1.05016 25.0264 23.8801 25.0264 24.1536 24.9287C24.6127 24.7626 24.9302 24.3132 24.9302 23.8346C24.9302 23.5855 24.8228 23.2973 23.9484 21.1628C22.9911 18.828 22.9618 18.7645 22.7273 18.5496C22.6003 18.4275 22.405 18.3005 22.2975 18.2663C22.1754 18.2321 21.77 18.2077 21.2473 18.2077C20.4561 18.2077 20.3828 18.2175 20.2607 18.3103C20.0897 18.447 20.0848 18.701 20.2558 18.8671C20.373 18.9892 20.3877 18.9892 21.2229 18.9892C21.9654 18.9892 22.0924 18.999 22.1803 19.0722C22.3073 19.1797 24.1487 23.6392 24.1536 23.8443C24.1536 23.942 24.1096 24.0251 24.0217 24.1032L23.8898 24.2156H12.4749C2.08566 24.2156 1.04527 24.2107 0.947583 24.1374C0.683823 23.9518 0.674054 23.9909 1.6949 21.49C2.22242 20.2103 2.68645 19.126 2.72552 19.0869C2.78413 19.0283 2.9844 19.0087 3.70241 18.9892C4.58161 18.9648 4.61092 18.9599 4.70372 18.8476C4.83072 18.6912 4.82095 18.4714 4.67442 18.3298C4.55719 18.2077 4.54742 18.2077 3.66333 18.2126C3.16024 18.2175 2.69621 18.2419 2.59853 18.2712Z" fill="#2BB673"/>
</svg>
