<svg width="23" height="25" viewBox="0 0 23 25" fill="none" xmlns="http://www.w3.org/2000/svg">
<path d="M3.18824 0.0623612C2.87881 0.142527 2.48097 0.38919 2.28205 0.62352C2.18259 0.734518 2.0334 0.993514 1.95052 1.19701C1.80133 1.55467 1.7958 1.60401 1.77922 2.75099L1.75712 3.94114H1.14931C0.442043 3.94114 0.221022 4.0213 0.0884087 4.34197C0.0110511 4.5208 0 4.97096 0 7.88158C0 11.4705 0.00552554 11.5137 0.281803 11.7357C0.386788 11.8159 0.552554 11.8344 1.08853 11.8344H1.76265L1.77922 16.3175C1.7958 20.4984 1.80133 20.8252 1.90079 21.0966C2.02787 21.4727 2.40914 21.9475 2.72962 22.1387L2.98379 22.2867V22.854C2.98379 23.8345 3.31533 24.4635 4.02259 24.8335C4.3265 24.9938 4.3707 25 5.27689 25C6.40963 25 6.6417 24.9322 7.0948 24.4697C7.49816 24.0627 7.6363 23.6865 7.66945 22.9465L7.69156 22.3792H11.2169H14.7421L14.7642 22.9527C14.7974 23.6865 14.9355 24.0627 15.3389 24.4697C15.792 24.9322 16.0241 25 17.1568 25C18.0575 25 18.1072 24.9938 18.4056 24.8397C18.7868 24.6362 19.1073 24.2908 19.2897 23.8838C19.4002 23.6372 19.4278 23.4707 19.4389 22.9342L19.461 22.2805L19.7041 22.1325C20.0246 21.9475 20.4058 21.4727 20.5329 21.0966C20.6324 20.8252 20.6379 20.4984 20.6545 16.3236L20.6711 11.8344H21.3452C21.8811 11.8344 22.0469 11.8159 22.1519 11.7357C22.4282 11.5137 22.4337 11.4705 22.4337 7.88158C22.4337 4.97096 22.4227 4.5208 22.3453 4.34197C22.2127 4.0213 21.9917 3.94114 21.2844 3.94114H20.6766L20.6545 2.75099C20.6379 1.62867 20.6324 1.54851 20.4942 1.22784C20.2235 0.592687 19.8699 0.253525 19.3007 0.0870275C19.03 0.00686204 17.9249 -0.00547111 11.1892 0.000695467C6.89035 0.00686204 3.30427 0.0315284 3.18824 0.0623612ZM19.2897 1.53001L19.4499 1.70884V2.82499V3.94114H11.2169H2.98379V2.82499V1.70884L3.14403 1.53001L3.30427 1.35118H11.2169H19.1294L19.2897 1.53001ZM1.76817 7.91858V10.5394H1.4919H1.21562V7.91858V5.29779H1.4919H1.76817V7.91858ZM19.4499 9.89189V14.486H11.2169H2.98379V9.89189V5.29779H11.2169H19.4499V9.89189ZM21.2181 7.91858V10.5394H20.9418H20.6655V7.91858V5.29779H20.9418H21.2181V7.91858ZM19.4499 18.2044C19.4499 20.8869 19.461 20.8252 19.0852 20.9979C18.8089 21.1274 3.62476 21.1274 3.34848 20.9979C2.97274 20.8252 2.98379 20.8869 2.98379 18.2044V15.781H11.2169H19.4499V18.2044ZM6.52014 22.7184C6.52014 22.9095 6.48699 23.1562 6.44278 23.2672C6.30464 23.6372 6.19966 23.6742 5.34873 23.6742C4.92326 23.6742 4.53647 23.6434 4.45911 23.6064C4.24362 23.4954 4.14416 23.2364 4.14416 22.7862V22.3792H5.33215H6.52014V22.7184ZM18.2895 22.7862C18.2895 23.2364 18.1901 23.4954 17.9746 23.6064C17.8972 23.6434 17.5104 23.6742 17.085 23.6742C16.234 23.6742 16.1291 23.6372 15.9909 23.2672C15.9467 23.1562 15.9136 22.9095 15.9136 22.7184V22.3792H17.1016H18.2895V22.7862Z" fill="#2BB673"/>
<path d="M6.87365 2.05483C6.64711 2.16583 6.52002 2.37549 6.52002 2.64682C6.52002 2.92432 6.64711 3.12782 6.88471 3.23881C7.16098 3.36831 15.2725 3.36831 15.5488 3.23881C15.7864 3.12782 15.9134 2.92432 15.9134 2.64682C15.9134 2.36933 15.7864 2.16583 15.5488 2.05483C15.278 1.9315 7.13335 1.9315 6.87365 2.05483Z" fill="#2BB673"/>
<path d="M5.35968 16.5579C4.56953 16.8786 4.0888 17.6925 4.16064 18.5867C4.22142 19.302 4.53085 19.8262 5.09445 20.1653C5.40941 20.3565 5.48124 20.375 5.91223 20.375C6.34875 20.375 6.40953 20.3565 6.74106 20.153C8.31032 19.191 7.77987 16.5826 5.99512 16.4777C5.72989 16.4654 5.53097 16.4901 5.35968 16.5579ZM6.16088 17.8529C6.33217 17.9392 6.52004 18.2475 6.52004 18.4325C6.52004 18.4757 6.48136 18.599 6.43163 18.71C6.32665 18.9629 6.02827 19.1355 5.80172 19.08C5.59728 19.0307 5.37626 18.784 5.33205 18.5559C5.28232 18.3092 5.43704 17.97 5.65253 17.8529C5.87355 17.7295 5.93434 17.7295 6.16088 17.8529Z" fill="#2BB673"/>
<path d="M15.9688 16.5579C15.1787 16.8786 14.6979 17.6925 14.7698 18.5867C14.8305 19.302 15.14 19.8262 15.7036 20.1653C16.0185 20.3565 16.0904 20.375 16.5214 20.375C16.9579 20.375 17.0187 20.3565 17.3502 20.153C18.9194 19.191 18.389 16.5826 16.6042 16.4777C16.339 16.4654 16.1401 16.4901 15.9688 16.5579ZM16.77 17.8529C16.9413 17.9392 17.1292 18.2475 17.1292 18.4325C17.1292 18.4757 17.0905 18.599 17.0408 18.71C16.9358 18.9629 16.6374 19.1355 16.4109 19.08C16.2064 19.0307 15.9854 18.784 15.9412 18.5559C15.8915 18.3092 16.0462 17.97 16.2617 17.8529C16.4827 17.7295 16.5435 17.7295 16.77 17.8529Z" fill="#2BB673"/>
<path d="M9.18917 17.8527C9.02893 17.9452 8.84106 18.2536 8.84106 18.4324C8.84106 18.6174 9.02893 18.9257 9.20022 19.012C9.47098 19.16 12.9631 19.16 13.2339 19.012C13.4052 18.9257 13.593 18.6174 13.593 18.4324C13.593 18.2474 13.4052 17.9391 13.2339 17.8527C12.9631 17.7047 9.4544 17.7109 9.18917 17.8527Z" fill="#2BB673"/>
</svg>
