<svg width="32" height="33" viewBox="0 0 32 33" fill="none" xmlns="http://www.w3.org/2000/svg">
<path d="M30.4399 32.0025C20.8141 32.0025 11.1884 32.0025 1.56262 32.0025C1.39948 31.9394 1.23322 31.8844 1.07446 31.8125C0.478788 31.5425 0.183764 31.0343 0 30.4399C0 21.6473 0 12.8554 0 4.06282C0.0162513 4.03719 0.0387527 4.01281 0.0475034 3.98469C0.377529 2.94961 0.987577 2.50207 2.07391 2.5002C2.33081 2.49957 2.58833 2.5002 2.87522 2.5002C2.87522 2.34893 2.85772 2.22392 2.87835 2.10579C2.9421 1.74201 2.96898 1.36011 3.10399 1.0232C3.33839 0.438784 3.86905 0.180639 4.43722 0C4.64536 0 4.85413 0 5.06227 0C5.09852 0.0187515 5.13228 0.0431287 5.1704 0.0550046C6.1411 0.356903 6.61802 0.996954 6.62427 2.01078C6.62552 2.16392 6.62427 2.31706 6.62427 2.48457C7.88437 2.48457 9.11446 2.48457 10.3746 2.48457C10.3746 2.34768 10.3571 2.22267 10.3777 2.10454C10.4414 1.74076 10.4689 1.35948 10.604 1.02258C10.8383 0.438158 11.369 0.180639 11.9372 0C12.1453 0 12.3541 0 12.5622 0C12.5985 0.0187515 12.6322 0.0431287 12.6704 0.0550046C13.6411 0.356903 14.118 0.996954 14.1242 2.01078C14.1255 2.16392 14.1242 2.31706 14.1242 2.48457C15.3843 2.48457 16.6144 2.48457 17.8745 2.48457C17.8745 2.34768 17.857 2.22267 17.8776 2.10454C17.9414 1.74076 17.9689 1.35948 18.1039 1.02258C18.3383 0.438158 18.869 0.180639 19.4371 0C19.6453 0 19.854 0 20.0622 0C20.0984 0.0187515 20.1322 0.0431287 20.1703 0.0550046C21.141 0.356903 21.6179 0.996954 21.6242 2.01078C21.6254 2.16392 21.6242 2.31706 21.6242 2.48457C22.8843 2.48457 24.1144 2.48457 25.3745 2.48457C25.3745 2.34768 25.357 2.22267 25.3776 2.10454C25.4414 1.74076 25.4689 1.35948 25.6039 1.02258C25.8383 0.438158 26.3689 0.180639 26.9371 0C27.1452 0 27.354 0 27.5622 0C27.5984 0.0187515 27.6322 0.0431287 27.6703 0.0550046C28.6416 0.356903 29.1179 0.997578 29.1241 2.01203C29.1254 2.16517 29.1241 2.31768 29.1241 2.5002C29.3798 2.5002 29.6092 2.47519 29.8311 2.50582C30.2167 2.55832 30.6193 2.59083 30.9762 2.73021C31.5625 2.95961 31.8194 3.49402 32 4.06282C32 12.8554 32 21.6473 32 30.4399C31.9369 30.603 31.8819 30.7693 31.81 30.928C31.5425 31.5237 31.0343 31.8194 30.4399 32.0025ZM30.7524 9.14759C20.896 9.14759 11.0815 9.14759 1.2501 9.14759C1.2501 9.28323 1.2501 9.39636 1.2501 9.51012C1.2501 16.29 1.2501 23.0706 1.2501 29.8505C1.2501 30.568 1.43636 30.7524 2.16142 30.7524C11.389 30.7524 20.6166 30.7524 29.8442 30.7524C30.5655 30.7524 30.7518 30.5668 30.7518 29.8467C30.7518 23.0668 30.7518 16.2863 30.7518 9.50637C30.7524 9.39323 30.7524 9.2801 30.7524 9.14759ZM17.8795 3.77279C15.7725 3.77279 13.7073 3.77279 11.6259 3.77279C11.6259 4.01281 11.6228 4.23033 11.6265 4.44785C11.6347 4.90413 11.804 5.09977 12.2616 5.18915C12.676 5.26979 12.9123 5.54293 12.8654 5.88546C12.8135 6.26049 12.4897 6.47426 12.0528 6.42175C11.1009 6.30737 10.4189 5.56106 10.3796 4.58348C10.3689 4.31596 10.3777 4.04719 10.3777 3.76842C8.28002 3.76842 6.21424 3.76842 4.12532 3.76842C4.12532 4.00344 4.12282 4.21971 4.12595 4.4366C4.13282 4.89976 4.30096 5.1004 4.74975 5.18728C5.18165 5.27104 5.42105 5.55293 5.36042 5.90484C5.29604 6.27737 4.97476 6.47738 4.53223 6.41863C3.5809 6.29299 2.91085 5.54481 2.87772 4.56286C2.86897 4.29721 2.87647 4.03094 2.87647 3.74904C2.56083 3.74904 2.29143 3.74654 2.02141 3.74967C1.48949 3.75529 1.25447 3.98406 1.25072 4.50973C1.24635 5.08227 1.24947 5.65544 1.24947 6.22799C1.24947 6.76678 1.24947 7.30557 1.24947 7.85874C11.094 7.85874 20.9079 7.85874 30.7411 7.85874C30.7449 7.78436 30.7512 7.72435 30.7512 7.66435C30.7518 6.61239 30.7543 5.56043 30.7505 4.5091C30.7487 3.98344 30.5124 3.75217 29.9792 3.75029C29.1148 3.74717 28.2503 3.74967 27.3859 3.74967C27.1396 3.74967 26.8933 3.74967 26.6265 3.74967C26.6265 4.00469 26.624 4.22158 26.6271 4.43847C26.634 4.90038 26.8027 5.09977 27.2534 5.18728C27.6865 5.27166 27.9241 5.55231 27.8615 5.90671C27.7972 6.26986 27.4859 6.47113 27.0627 6.42238C26.0995 6.31174 25.4126 5.55481 25.3795 4.56098C25.3707 4.29534 25.3782 4.02907 25.3782 3.76467C23.2724 3.76467 21.2148 3.76467 19.1265 3.76467C19.1265 3.99469 19.124 4.21095 19.1271 4.42722C19.1334 4.90413 19.2971 5.09665 19.7734 5.18978C20.1791 5.26916 20.4172 5.55418 20.3635 5.89608C20.306 6.26049 19.9934 6.46925 19.5734 6.42363C18.6221 6.32112 17.927 5.57794 17.8814 4.60348C17.8689 4.33471 17.8795 4.06469 17.8795 3.77279ZM5.37042 2.48644C5.35417 2.06204 5.49855 1.61888 5.05352 1.34323C4.84225 1.21259 4.61661 1.22197 4.41034 1.36886C4.00156 1.66075 4.15407 2.08454 4.12907 2.48707C4.54911 2.48644 4.93914 2.48644 5.37042 2.48644ZM12.8741 2.48957C12.8529 2.05641 12.9985 1.60888 12.5466 1.33886C12.3203 1.20384 12.0822 1.22572 11.8784 1.39073C11.5084 1.69013 11.6522 2.09954 11.629 2.48957C12.0559 2.48957 12.446 2.48957 12.8741 2.48957ZM20.3772 2.48582C20.3535 2.04953 20.4979 1.59762 20.0384 1.33385C19.809 1.20197 19.5703 1.2276 19.3709 1.39698C19.0134 1.70138 19.1427 2.10516 19.1377 2.48582C19.564 2.48582 19.9547 2.48582 20.3772 2.48582ZM26.6533 2.47519C27.0727 2.47519 27.4709 2.47519 27.8647 2.47519C27.9659 1.45074 27.6353 1.2776 27.2415 1.26197C26.7571 1.24322 26.5571 1.67388 26.6533 2.47519Z" fill="#2AB377"/>
<path d="M7.21989 20.3761C6.4492 20.3761 5.67852 20.378 4.90721 20.3755C4.35279 20.3736 4.12715 20.1486 4.1259 19.5954C4.1234 18.0328 4.1234 16.4708 4.1259 14.9082C4.12652 14.3544 4.35279 14.1281 4.90596 14.1269C6.46858 14.1244 8.03058 14.1244 9.5932 14.1269C10.147 14.1275 10.3733 14.3538 10.3745 14.9069C10.377 16.4696 10.377 18.0316 10.3745 19.5942C10.3739 20.148 10.1476 20.3736 9.59445 20.3755C8.80314 20.378 8.0112 20.3761 7.21989 20.3761ZM9.10316 19.1123C9.10316 17.8547 9.10316 16.6233 9.10316 15.4007C7.84869 15.4007 6.61734 15.4007 5.39225 15.4007C5.39225 16.6502 5.39225 17.8747 5.39225 19.1123C6.63297 19.1123 7.85744 19.1123 9.10316 19.1123Z" fill="#2AB377"/>
<path d="M15.9926 14.1264C16.7633 14.1264 17.534 14.1251 18.3053 14.127C18.9029 14.1283 19.126 14.3445 19.1266 14.9308C19.1285 16.4828 19.1285 18.0348 19.1266 19.5868C19.126 20.1544 18.8997 20.3762 18.3234 20.3769C16.7714 20.3787 15.2194 20.3787 13.6674 20.3769C13.0999 20.3762 12.878 20.15 12.8774 19.5737C12.8755 18.0217 12.8755 16.4697 12.8774 14.9177C12.878 14.3502 13.1043 14.1295 13.6806 14.1276C14.4513 14.1251 15.2219 14.1264 15.9926 14.1264ZM17.8628 15.3984C16.6064 15.3984 15.3745 15.3984 14.1512 15.3984C14.1512 16.6522 14.1512 17.8842 14.1512 19.1099C15.4007 19.1099 16.6245 19.1099 17.8628 19.1099C17.8628 17.8692 17.8628 16.6453 17.8628 15.3984Z" fill="#2AB377"/>
<path d="M27.8774 17.2432C27.8774 17.9932 27.8774 18.7433 27.8774 19.4934C27.8768 20.1784 27.683 20.3766 27.0099 20.3766C25.4997 20.3772 23.989 20.3772 22.4789 20.3766C21.8282 20.3766 21.6269 20.1709 21.6269 19.5096C21.6263 17.9995 21.6263 16.4888 21.6269 14.9786C21.6269 14.338 21.8332 14.1273 22.4626 14.1267C23.994 14.1261 25.5247 14.1254 27.0561 14.1267C27.6643 14.1273 27.8755 14.3436 27.8768 14.9624C27.878 15.7224 27.8774 16.4831 27.8774 17.2432ZM26.6136 15.398C25.3572 15.398 24.1259 15.398 22.902 15.398C22.902 16.6519 22.902 17.8839 22.902 19.1096C24.1509 19.1096 25.3754 19.1096 26.6136 19.1096C26.6136 17.8695 26.6136 16.645 26.6136 15.398Z" fill="#2AB377"/>
<path d="M4.12546 24.7515C4.12546 23.9702 4.12296 23.1889 4.12608 22.4076C4.12796 21.8538 4.35298 21.6275 4.90677 21.6269C6.46939 21.6244 8.03139 21.6244 9.59401 21.6269C10.1478 21.6275 10.3741 21.8538 10.3747 22.4076C10.3772 23.9702 10.3772 25.5322 10.3747 27.0948C10.3741 27.6486 10.1478 27.8749 9.59401 27.8755C8.03139 27.878 6.46939 27.878 4.90677 27.8755C4.35298 27.8749 4.12796 27.6486 4.12608 27.0948C4.12358 26.3141 4.12546 25.5328 4.12546 24.7515ZM5.39931 22.8888C5.39931 24.1496 5.39931 25.3809 5.39931 26.6116C6.6469 26.6116 7.87138 26.6116 9.10835 26.6116C9.10835 25.3647 9.10835 24.1333 9.10835 22.8888C7.86575 22.8888 6.6419 22.8888 5.39931 22.8888Z" fill="#2AB377"/>
<path d="M12.8759 24.7515C12.8759 23.9702 12.8734 23.1889 12.8766 22.4076C12.8784 21.8538 13.1035 21.6275 13.6573 21.6269C15.2199 21.6244 16.7819 21.6244 18.3445 21.6269C18.8983 21.6275 19.1246 21.8538 19.1252 22.4076C19.1277 23.9702 19.1277 25.5322 19.1252 27.0948C19.1246 27.6486 18.8983 27.8749 18.3445 27.8755C16.7819 27.878 15.2199 27.878 13.6573 27.8755C13.1035 27.8749 12.8784 27.6486 12.8766 27.0948C12.8741 26.3141 12.8759 25.5328 12.8759 24.7515ZM17.8545 26.6129C17.8545 25.3565 17.8545 24.1252 17.8545 22.9014C16.6006 22.9014 15.3686 22.9014 14.1429 22.9014C14.1429 24.1502 14.1429 25.3747 14.1429 26.6129C15.383 26.6129 16.6075 26.6129 17.8545 26.6129Z" fill="#2AB377"/>
<path d="M24.737 27.8772C23.9557 27.8772 23.1743 27.8797 22.393 27.876C21.8642 27.8735 21.6286 27.6391 21.6273 27.1115C21.6242 25.5389 21.6242 23.9657 21.6273 22.393C21.6286 21.8649 21.8636 21.6286 22.3918 21.6273C23.9644 21.6242 25.5377 21.6242 27.1103 21.6273C27.6384 21.6286 27.8747 21.8636 27.876 22.3918C27.8791 23.9644 27.8791 25.5376 27.876 27.1103C27.8747 27.6391 27.6397 27.8735 27.1115 27.876C26.3202 27.8797 25.5289 27.8772 24.737 27.8772ZM26.6115 26.614C26.6115 25.3545 26.6115 24.13 26.6115 22.8956C25.3639 22.8956 24.1325 22.8956 22.8981 22.8956C22.8981 24.1457 22.8981 25.3776 22.8981 26.614C24.1438 26.614 25.3683 26.614 26.6115 26.614Z" fill="#2AB377"/>
<path d="M17.2521 11.6258C14.8769 11.6258 12.5024 11.6258 10.1272 11.6258C10.0647 11.6258 10.0022 11.6258 9.93967 11.6258C9.43276 11.6233 9.13149 11.3902 9.13086 11.0014C9.13024 10.612 9.43213 10.3763 9.93842 10.3763C14.8132 10.3757 19.6886 10.3757 24.5633 10.3782C24.6971 10.3782 24.8377 10.3876 24.9621 10.4295C25.2265 10.5188 25.3671 10.7276 25.3671 11.0007C25.3671 11.2739 25.2284 11.4858 24.9627 11.5714C24.8183 11.6183 24.6558 11.6239 24.5014 11.6239C22.0856 11.6264 19.6686 11.6258 17.2521 11.6258Z" fill="#2AB377"/>
<path d="M7.23564 11.6212C6.90624 11.6118 6.62122 11.313 6.6306 10.9861C6.63997 10.6567 6.93875 10.3717 7.26565 10.3811C7.59505 10.3905 7.88007 10.6899 7.87069 11.0161C7.86132 11.3449 7.56192 11.6306 7.23564 11.6212Z" fill="#2AB377"/>
</svg>
