<svg width="37" height="36" viewBox="0 0 37 36" fill="none" xmlns="http://www.w3.org/2000/svg">
<path d="M15.4948 13.9342C15.2019 13.6413 14.727 13.6413 14.4341 13.9342C14.1413 14.227 14.1412 14.7019 14.4341 14.9948L15.4948 13.9342ZM17.9697 18.5303C18.2626 18.8232 18.7374 18.8232 19.0303 18.5303C19.3232 18.2375 19.3232 17.7626 19.0303 17.4697L17.9697 18.5303ZM19.0303 17.4697C18.7374 17.1768 18.2626 17.1768 17.9697 17.4697C17.6768 17.7626 17.6768 18.2375 17.9697 18.5303L19.0303 17.4697ZM21.5052 22.0659C21.7981 22.3588 22.273 22.3588 22.5659 22.0659C22.8587 21.773 22.8587 21.2981 22.5659 21.0052L21.5052 22.0659ZM19.0303 18.5303C19.3232 18.2375 19.3232 17.7626 19.0303 17.4697C18.7374 17.1768 18.2626 17.1768 17.9697 17.4697L19.0303 18.5303ZM14.4341 21.0052C14.1413 21.2981 14.1413 21.773 14.4341 22.0659C14.727 22.3588 15.2019 22.3588 15.4948 22.0659L14.4341 21.0052ZM17.9697 17.4697C17.6768 17.7626 17.6768 18.2375 17.9697 18.5303C18.2626 18.8232 18.7374 18.8232 19.0303 18.5303L17.9697 17.4697ZM22.5659 14.9948C22.8588 14.7019 22.8587 14.227 22.5659 13.9342C22.273 13.6413 21.7981 13.6413 21.5052 13.9342L22.5659 14.9948ZM14.4341 14.9948L17.9697 18.5303L19.0303 17.4697L15.4948 13.9342L14.4341 14.9948ZM17.9697 18.5303L21.5052 22.0659L22.5659 21.0052L19.0303 17.4697L17.9697 18.5303ZM18.5 18L17.9697 17.4697L17.969 17.4704C17.9689 17.4705 17.9681 17.4712 17.9681 17.4712C17.9682 17.4712 17.968 17.4713 17.9681 17.4712C17.9681 17.4712 17.9673 17.472 17.9673 17.4721C17.9673 17.472 17.9672 17.4722 17.9673 17.4721C17.9672 17.4722 17.9666 17.4727 17.9666 17.4728C17.9665 17.4729 17.9659 17.4735 17.9658 17.4736C17.9657 17.4736 17.9651 17.4742 17.9651 17.4743C17.965 17.4744 17.9644 17.475 17.9642 17.4751C17.9642 17.4752 17.9635 17.4758 17.9634 17.476C17.9633 17.4761 17.9625 17.4768 17.9625 17.4769C17.9626 17.4768 17.9623 17.477 17.9625 17.4769C17.9623 17.477 17.9619 17.4775 17.9618 17.4776C17.9619 17.4775 17.9616 17.4777 17.9618 17.4776C17.9616 17.4777 17.9611 17.4782 17.961 17.4783C17.9612 17.4782 17.9609 17.4785 17.961 17.4783C17.9609 17.4785 17.9604 17.479 17.9603 17.4791C17.9604 17.479 17.9601 17.4792 17.9603 17.4791C17.9601 17.4792 17.9596 17.4798 17.9594 17.4799C17.9596 17.4798 17.9593 17.4801 17.9594 17.4799C17.9593 17.4801 17.9587 17.4806 17.9586 17.4808C17.9588 17.4806 17.9584 17.4809 17.9586 17.4808C17.9584 17.4809 17.9578 17.4816 17.9576 17.4817C17.9578 17.4816 17.9575 17.4818 17.9576 17.4817C17.9575 17.4818 17.9569 17.4825 17.9567 17.4827C17.9569 17.4825 17.9565 17.4828 17.9567 17.4827C17.9565 17.4828 17.9558 17.4835 17.9557 17.4837C17.9558 17.4835 17.9555 17.4838 17.9557 17.4837C17.9555 17.4839 17.9548 17.4845 17.9546 17.4847C17.9548 17.4845 17.9544 17.485 17.9546 17.4847C17.9545 17.4849 17.9537 17.4857 17.9535 17.4859C17.9537 17.4857 17.9533 17.486 17.9535 17.4859C17.9533 17.4861 17.9526 17.4868 17.9523 17.487C17.9526 17.4868 17.9521 17.4872 17.9523 17.487C17.9521 17.4872 17.9513 17.4881 17.9511 17.4883C17.9513 17.4881 17.9509 17.4885 17.9511 17.4883C17.9509 17.4885 17.95 17.4893 17.9498 17.4896C17.95 17.4893 17.9496 17.4898 17.9498 17.4896C17.9496 17.4898 17.9487 17.4906 17.9485 17.4909C17.9487 17.4907 17.9482 17.4911 17.9485 17.4909C17.9482 17.4912 17.9473 17.492 17.9471 17.4922C17.9468 17.4925 17.9466 17.4927 17.9463 17.493C17.9461 17.4932 17.9459 17.4934 17.9456 17.4937C17.9453 17.494 17.9451 17.4942 17.9449 17.4945C17.9446 17.4947 17.9444 17.495 17.9441 17.4952C17.9439 17.4955 17.9436 17.4958 17.9433 17.4961C17.9431 17.4963 17.9428 17.4966 17.9425 17.4968C17.9422 17.4971 17.942 17.4973 17.9417 17.4976C17.9415 17.4979 17.9412 17.4982 17.9409 17.4985C17.9406 17.4987 17.9403 17.499 17.94 17.4993C17.9398 17.4996 17.9395 17.4999 17.9392 17.5002C17.9389 17.5004 17.9386 17.5008 17.9383 17.5011C17.938 17.5014 17.9377 17.5016 17.9374 17.5019C17.9371 17.5023 17.9368 17.5026 17.9365 17.5029C17.9362 17.5032 17.9359 17.5035 17.9356 17.5038C17.9352 17.5041 17.935 17.5044 17.9346 17.5048C17.9343 17.505 17.934 17.5054 17.9337 17.5057C17.9333 17.506 17.933 17.5064 17.9327 17.5067C17.9323 17.507 17.932 17.5074 17.9316 17.5077C17.9313 17.508 17.931 17.5084 17.9306 17.5087C17.9303 17.5091 17.9299 17.5094 17.9296 17.5098C17.9293 17.5101 17.9289 17.5104 17.9286 17.5108C17.9282 17.5111 17.9278 17.5115 17.9275 17.5119C17.9271 17.5123 17.9267 17.5126 17.9264 17.513C17.926 17.5133 17.9257 17.5137 17.9253 17.5141C17.9249 17.5144 17.9246 17.5148 17.9241 17.5152C17.9238 17.5156 17.9234 17.516 17.923 17.5164C17.9226 17.5167 17.9222 17.5171 17.9219 17.5175C17.9214 17.5179 17.921 17.5183 17.9207 17.5187C17.9202 17.5191 17.9198 17.5195 17.9195 17.5199C17.919 17.5203 17.9186 17.5207 17.9182 17.5212C17.9178 17.5215 17.9174 17.5219 17.917 17.5224C17.9166 17.5228 17.9161 17.5232 17.9157 17.5236C17.9153 17.5241 17.9149 17.5245 17.9144 17.5249C17.914 17.5253 17.9135 17.5258 17.9131 17.5263C17.9127 17.5267 17.9123 17.5271 17.9118 17.5275C17.9113 17.528 17.9109 17.5284 17.9105 17.5289C17.91 17.5294 17.9096 17.5298 17.9091 17.5303C17.9086 17.5307 17.9082 17.5312 17.9077 17.5316C17.9072 17.5321 17.9067 17.5326 17.9063 17.533C17.9058 17.5335 17.9053 17.534 17.9048 17.5345C17.9044 17.535 17.9039 17.5354 17.9034 17.5359C17.9029 17.5364 17.9024 17.5369 17.9019 17.5374C17.9014 17.5379 17.9009 17.5384 17.9004 17.5389C17.8999 17.5394 17.8995 17.5399 17.899 17.5404C17.8984 17.541 17.8979 17.5415 17.8974 17.542C17.8968 17.5425 17.8963 17.543 17.8958 17.5435C17.8953 17.5441 17.8948 17.5446 17.8942 17.5451C17.8937 17.5456 17.8932 17.5462 17.8927 17.5467C17.8921 17.5473 17.8915 17.5478 17.891 17.5483C17.8905 17.5489 17.8899 17.5494 17.8893 17.55C17.8888 17.5506 17.8883 17.5511 17.8877 17.5516C17.8872 17.5522 17.8866 17.5528 17.886 17.5533C17.8855 17.5539 17.8848 17.5545 17.8843 17.5551C17.8837 17.5557 17.8831 17.5562 17.8826 17.5568C17.8819 17.5574 17.8814 17.558 17.8808 17.5586C17.8802 17.5592 17.8796 17.5598 17.8789 17.5604C17.8784 17.561 17.8777 17.5616 17.8772 17.5622C17.8765 17.5628 17.8759 17.5634 17.8753 17.564C17.8747 17.5647 17.8741 17.5653 17.8734 17.5659C17.8729 17.5665 17.8722 17.5671 17.8716 17.5678C17.871 17.5684 17.8703 17.569 17.8697 17.5697C17.869 17.5703 17.8684 17.5709 17.8677 17.5717C17.8671 17.5723 17.8664 17.5729 17.8658 17.5736C17.8651 17.5743 17.8645 17.5749 17.8638 17.5755C17.8631 17.5762 17.8625 17.5769 17.8618 17.5776C17.8611 17.5782 17.8604 17.5789 17.8597 17.5796C17.8591 17.5803 17.8584 17.581 17.8577 17.5817C17.857 17.5824 17.8563 17.583 17.8556 17.5837C17.8549 17.5845 17.8542 17.5852 17.8535 17.5859C17.8528 17.5866 17.8521 17.5873 17.8514 17.588C17.8506 17.5888 17.8499 17.5895 17.8492 17.5902C17.8485 17.5909 17.8477 17.5917 17.847 17.5924C17.8463 17.5931 17.8455 17.5939 17.8448 17.5946C17.844 17.5953 17.8433 17.596 17.8425 17.5968C17.8418 17.5976 17.841 17.5983 17.8403 17.5991C17.8395 17.5999 17.8387 17.6006 17.8379 17.6014C17.8372 17.6022 17.8364 17.603 17.8356 17.6038C17.8348 17.6045 17.834 17.6053 17.8333 17.6061C17.8325 17.6069 17.8317 17.6076 17.8309 17.6084C17.8301 17.6093 17.8293 17.61 17.8285 17.6109C17.8277 17.6117 17.8269 17.6125 17.8261 17.6133C17.8253 17.6141 17.8244 17.6149 17.8236 17.6158C17.8228 17.6166 17.822 17.6174 17.8211 17.6183C17.8203 17.6191 17.8194 17.6199 17.8186 17.6208C17.8177 17.6216 17.8169 17.6225 17.816 17.6233C17.8152 17.6242 17.8143 17.625 17.8135 17.6259C17.8126 17.6267 17.8118 17.6276 17.8109 17.6285C17.81 17.6294 17.8091 17.6303 17.8082 17.6311C17.8073 17.632 17.8065 17.6329 17.8056 17.6338C17.8047 17.6347 17.8038 17.6356 17.8029 17.6365C17.802 17.6373 17.8011 17.6383 17.8002 17.6392C17.7993 17.6401 17.7983 17.641 17.7974 17.6419C17.7965 17.6429 17.7956 17.6438 17.7947 17.6447C17.7937 17.6456 17.7928 17.6466 17.7918 17.6475C17.7909 17.6484 17.7899 17.6494 17.789 17.6504C17.788 17.6513 17.7871 17.6523 17.7861 17.6533C17.7852 17.6542 17.7842 17.6552 17.7832 17.6562C17.7823 17.6571 17.7813 17.6581 17.7803 17.6591C17.7793 17.66 17.7783 17.661 17.7773 17.662C17.7763 17.663 17.7754 17.664 17.7744 17.665C17.7734 17.666 17.7723 17.667 17.7713 17.668C17.7703 17.669 17.7693 17.6701 17.7683 17.6711C17.7672 17.6721 17.7662 17.6731 17.7652 17.6742C17.7642 17.6752 17.7631 17.6762 17.7621 17.6773C17.761 17.6784 17.76 17.6793 17.759 17.6804C17.7579 17.6815 17.7568 17.6825 17.7558 17.6836C17.7547 17.6846 17.7536 17.6857 17.7525 17.6868C17.7515 17.6879 17.7504 17.689 17.7493 17.69C17.7482 17.6912 17.7471 17.6922 17.746 17.6933C17.745 17.6944 17.7438 17.6955 17.7428 17.6966C17.7416 17.6977 17.7405 17.6989 17.7394 17.7C17.7383 17.7011 17.7372 17.7022 17.736 17.7033C17.7349 17.7044 17.7338 17.7056 17.7326 17.7067C17.7315 17.7078 17.7303 17.709 17.7292 17.7102C17.7281 17.7113 17.7268 17.7125 17.7257 17.7136C17.7246 17.7148 17.7234 17.716 17.7222 17.7172C17.7211 17.7183 17.7198 17.7195 17.7186 17.7207C17.7175 17.7218 17.7163 17.723 17.7151 17.7242C17.7139 17.7254 17.7127 17.7266 17.7115 17.7279C17.7103 17.7291 17.7091 17.7303 17.7079 17.7315C17.7066 17.7327 17.7054 17.7339 17.7042 17.7351C17.7029 17.7364 17.7017 17.7376 17.7005 17.7389C17.6993 17.7401 17.698 17.7414 17.6968 17.7426C17.6955 17.7438 17.6943 17.7451 17.693 17.7464C17.6917 17.7477 17.6904 17.7489 17.6892 17.7502C17.6879 17.7515 17.6866 17.7527 17.6853 17.754C17.6841 17.7553 17.6828 17.7566 17.6815 17.7579C17.6802 17.7592 17.6788 17.7605 17.6776 17.7618C17.6762 17.7631 17.6749 17.7644 17.6736 17.7658C17.6723 17.7671 17.671 17.7684 17.6696 17.7697C17.6683 17.7711 17.667 17.7724 17.6656 17.7737C17.6643 17.7751 17.6629 17.7764 17.6615 17.7778C17.6602 17.7792 17.6588 17.7805 17.6575 17.7819C17.6561 17.7833 17.6547 17.7846 17.6533 17.786C17.652 17.7874 17.6506 17.7888 17.6491 17.7902C17.6478 17.7916 17.6464 17.793 17.645 17.7944C17.6436 17.7958 17.6421 17.7972 17.6407 17.7986C17.6393 17.8 17.6379 17.8015 17.6365 17.8029C17.6351 17.8043 17.6336 17.8058 17.6322 17.8072C17.6307 17.8087 17.6293 17.8101 17.6278 17.8116C17.6264 17.813 17.6249 17.8145 17.6234 17.816C17.622 17.8174 17.6205 17.8189 17.619 17.8203C17.6175 17.8218 17.616 17.8233 17.6146 17.8248C17.6131 17.8263 17.6116 17.8278 17.61 17.8293C17.6086 17.8308 17.6071 17.8323 17.6055 17.8338C17.604 17.8353 17.6025 17.8369 17.601 17.8384C17.5994 17.8399 17.5979 17.8415 17.5963 17.843C17.5948 17.8445 17.5933 17.8461 17.5917 17.8476C17.5902 17.8492 17.5886 17.8507 17.587 17.8524C17.5854 17.8539 17.5839 17.8555 17.5823 17.857C17.5807 17.8587 17.5791 17.8602 17.5775 17.8618C17.576 17.8634 17.5743 17.865 17.5727 17.8667C17.5711 17.8682 17.5695 17.8698 17.5679 17.8715C17.5663 17.8731 17.5646 17.8747 17.563 17.8763C17.5614 17.878 17.5598 17.8796 17.5581 17.8813C17.5564 17.8829 17.5548 17.8845 17.5531 17.8862C17.5515 17.8879 17.5498 17.8896 17.5481 17.8913C17.5465 17.8929 17.5448 17.8946 17.5431 17.8963C17.5414 17.898 17.5397 17.8997 17.538 17.9014C17.5363 17.9031 17.5346 17.9048 17.5329 17.9065C17.5312 17.9082 17.5294 17.9099 17.5277 17.9116C17.526 17.9133 17.5243 17.9151 17.5225 17.9169C17.5208 17.9186 17.519 17.9203 17.5173 17.9221C17.5156 17.9238 17.5138 17.9256 17.512 17.9273C17.5103 17.9291 17.5085 17.9309 17.5067 17.9327C17.5049 17.9345 17.5031 17.9362 17.5014 17.938C17.4995 17.9398 17.4977 17.9416 17.4959 17.9434C17.4941 17.9452 17.4923 17.9471 17.4905 17.9489C17.4886 17.9507 17.4869 17.9525 17.485 17.9543C17.4832 17.9562 17.4813 17.958 17.4794 17.9599C17.4776 17.9618 17.4758 17.9636 17.4739 17.9654C17.472 17.9673 17.4702 17.9692 17.4683 17.9711C17.4664 17.9729 17.4645 17.9748 17.4626 17.9768C17.4607 17.9787 17.4589 17.9805 17.4569 17.9824C17.455 17.9843 17.4531 17.9862 17.4512 17.9881C17.4492 17.9901 17.4473 17.992 17.4454 17.9939C17.4434 17.9959 17.4415 17.9978 17.4396 17.9998C17.4376 18.0017 17.4357 18.0037 17.4337 18.0057C17.4318 18.0076 17.4298 18.0096 17.4278 18.0115C17.4258 18.0135 17.4239 18.0155 17.4219 18.0175C17.4198 18.0195 17.4178 18.0215 17.4159 18.0235C17.4138 18.0255 17.4118 18.0275 17.4098 18.0296C17.4078 18.0316 17.4058 18.0336 17.4037 18.0357C17.4017 18.0377 17.3997 18.0397 17.3976 18.0417C17.3956 18.0438 17.3934 18.0459 17.3914 18.048C17.3893 18.05 17.3873 18.0521 17.3852 18.0542C17.3831 18.0562 17.381 18.0584 17.379 18.0604C17.3768 18.0625 17.3747 18.0646 17.3727 18.0667C17.3705 18.0688 17.3684 18.0709 17.3663 18.0731C17.3642 18.0752 17.3621 18.0773 17.3599 18.0795C17.3577 18.0816 17.3556 18.0837 17.3534 18.0859C17.3513 18.0881 17.3491 18.0902 17.3469 18.0924C17.3448 18.0946 17.3426 18.0967 17.3404 18.0989C17.3382 18.1011 17.336 18.1033 17.3338 18.1055C17.3316 18.1077 17.3295 18.1099 17.3272 18.1122C17.325 18.1144 17.3228 18.1165 17.3205 18.1188C17.3184 18.121 17.3161 18.1233 17.3138 18.1255C17.3116 18.1278 17.3093 18.1301 17.307 18.1323C17.3048 18.1345 17.3025 18.1368 17.3003 18.1391C17.298 18.1414 17.2957 18.1436 17.2934 18.146C17.2911 18.1482 17.2888 18.1506 17.2865 18.1528C17.2842 18.1552 17.2819 18.1575 17.2795 18.1598C17.2773 18.1621 17.2749 18.1644 17.2726 18.1668C17.2702 18.1692 17.2679 18.1715 17.2655 18.1738C17.2632 18.1762 17.2608 18.1786 17.2585 18.1809C17.2561 18.1833 17.2537 18.1856 17.2513 18.188C17.2489 18.1904 17.2465 18.1928 17.2441 18.1952C17.2417 18.1977 17.2393 18.2001 17.2369 18.2025C17.2345 18.2049 17.232 18.2073 17.2296 18.2097C17.2272 18.2121 17.2247 18.2146 17.2223 18.2171C17.2199 18.2195 17.2174 18.222 17.2149 18.2245C17.2124 18.2269 17.21 18.2294 17.2075 18.2319C17.205 18.2344 17.2025 18.2368 17.2 18.2394C17.1975 18.2418 17.195 18.2443 17.1925 18.2469C17.1899 18.2494 17.1875 18.2519 17.1849 18.2544C17.1824 18.257 17.1798 18.2595 17.1773 18.2621C17.1747 18.2646 17.1722 18.2672 17.1696 18.2697C17.1671 18.2723 17.1645 18.2749 17.1619 18.2774C17.1593 18.28 17.1568 18.2826 17.1542 18.2852C17.1515 18.2878 17.1489 18.2904 17.1463 18.293C17.1437 18.2957 17.1411 18.2983 17.1385 18.3009C17.1358 18.3035 17.1332 18.3061 17.1305 18.3088C17.1279 18.3114 17.1252 18.3141 17.1226 18.3168C17.1199 18.3194 17.1173 18.3221 17.1146 18.3248C17.1119 18.3275 17.1092 18.3302 17.1065 18.3329C17.1038 18.3355 17.1011 18.3382 17.0984 18.341C17.0957 18.3437 17.0929 18.3464 17.0902 18.3491C17.0875 18.3519 17.0847 18.3546 17.082 18.3574C17.0793 18.3601 17.0765 18.3628 17.0737 18.3657C17.0709 18.3684 17.0682 18.3712 17.0654 18.3739C17.0626 18.3768 17.0598 18.3795 17.057 18.3823C17.0542 18.3851 17.0514 18.3879 17.0486 18.3908C17.0458 18.3936 17.0429 18.3964 17.0401 18.3992C17.0373 18.4021 17.0345 18.4049 17.0316 18.4077C17.0287 18.4106 17.0259 18.4135 17.023 18.4164C17.0202 18.4192 17.0173 18.4221 17.0144 18.425C17.0115 18.4278 17.0086 18.4307 17.0057 18.4336C17.0028 18.4366 16.9999 18.4395 16.997 18.4424C16.9941 18.4453 16.9911 18.4483 16.9882 18.4512C16.9852 18.4541 16.9823 18.4571 16.9794 18.46C16.9764 18.463 16.9734 18.4659 16.9705 18.4689C16.9675 18.4719 16.9645 18.4748 16.9615 18.4779C16.9585 18.4808 16.9555 18.4838 16.9525 18.4869C16.9495 18.4899 16.9465 18.4929 16.9434 18.4959C16.9404 18.499 16.9374 18.502 16.9343 18.505C16.9313 18.5081 16.9282 18.5111 16.9252 18.5142C16.9221 18.5173 16.9191 18.5203 16.9159 18.5234C16.9129 18.5265 16.9098 18.5296 16.9067 18.5327C16.9036 18.5358 16.9005 18.5389 16.8973 18.542C16.8942 18.5451 16.8911 18.5482 16.888 18.5513C16.8848 18.5545 16.8817 18.5576 16.8785 18.5608C16.8754 18.5639 16.8722 18.5671 16.8691 18.5703C16.8659 18.5735 16.8627 18.5767 16.8595 18.5798C16.8563 18.583 16.8531 18.5862 16.8499 18.5895C16.8467 18.5926 16.8435 18.5959 16.8403 18.5991C16.837 18.6023 16.8338 18.6056 16.8306 18.6088C16.8273 18.612 16.8241 18.6153 16.8208 18.6186C16.8175 18.6218 16.8143 18.6251 16.811 18.6284C16.8077 18.6317 16.8044 18.6349 16.8011 18.6383C16.7978 18.6416 16.7945 18.6449 16.7911 18.6482C16.7879 18.6515 16.7845 18.6549 16.7812 18.6582C16.7778 18.6615 16.7745 18.6648 16.7711 18.6682C16.7678 18.6716 16.7644 18.675 16.761 18.6783C16.7577 18.6817 16.7543 18.6851 16.7509 18.6885C16.7475 18.6919 16.7441 18.6952 16.7406 18.6987C16.7373 18.7021 16.7339 18.7055 16.7304 18.709C16.7269 18.7124 16.7235 18.7158 16.7201 18.7193C16.7166 18.7228 16.7131 18.7262 16.7097 18.7297C16.7062 18.7331 16.7027 18.7366 16.6992 18.7401C16.6957 18.7436 16.6923 18.7471 16.6887 18.7506C16.6852 18.7541 16.6817 18.7576 16.6782 18.7611C16.6747 18.7647 16.6711 18.7682 16.6676 18.7718C16.664 18.7754 16.6605 18.7789 16.6569 18.7824C16.6533 18.786 16.6498 18.7896 16.6462 18.7932C16.6426 18.7968 16.639 18.8004 16.6354 18.804C16.6318 18.8076 16.6281 18.8112 16.6245 18.8148C16.6209 18.8184 16.6173 18.8221 16.6137 18.8257C16.61 18.8294 16.6063 18.8331 16.6027 18.8367C16.599 18.8403 16.5953 18.844 16.5917 18.8477C16.588 18.8514 16.5842 18.8551 16.5806 18.8588C16.5769 18.8625 16.5731 18.8662 16.5694 18.87C16.5657 18.8736 16.562 18.8774 16.5582 18.8811C16.5545 18.8849 16.5507 18.8886 16.547 18.8924C16.5432 18.8962 16.5394 18.9 16.5357 18.9037C16.5318 18.9075 16.528 18.9113 16.5243 18.9151C16.5205 18.9189 16.5166 18.9227 16.5128 18.9265C16.509 18.9304 16.5051 18.9342 16.5013 18.9381C16.4975 18.9419 16.4936 18.9458 16.4898 18.9496C16.4859 18.9535 16.482 18.9574 16.4781 18.9613C16.4742 18.9651 16.4703 18.969 16.4664 18.9729C16.4625 18.9768 16.4586 18.9808 16.4547 18.9847C16.4507 18.9886 16.4468 18.9925 16.4429 18.9965C16.4389 19.0004 16.435 19.0044 16.431 19.0084C16.427 19.0123 16.4231 19.0163 16.4191 19.0203C16.4151 19.0243 16.4111 19.0282 16.4071 19.0323C16.4031 19.0363 16.399 19.0403 16.3951 19.0443C16.3911 19.0483 16.387 19.0524 16.3829 19.0564C16.3789 19.0605 16.3749 19.0645 16.3708 19.0686C16.3667 19.0726 16.3626 19.0767 16.3585 19.0808C16.3544 19.0849 16.3503 19.089 16.3462 19.0931C16.3421 19.0972 16.338 19.1013 16.3338 19.1055C16.3297 19.1096 16.3256 19.1138 16.3215 19.1179C16.3173 19.1221 16.3131 19.1262 16.309 19.1304C16.3048 19.1346 16.3006 19.1387 16.2964 19.1429C16.2922 19.1472 16.288 19.1513 16.2838 19.1556C16.2796 19.1597 16.2754 19.164 16.2711 19.1682C16.2669 19.1725 16.2626 19.1767 16.2584 19.181C16.2542 19.1852 16.2498 19.1895 16.2456 19.1938C16.2413 19.1981 16.237 19.2023 16.2327 19.2066C16.2284 19.2109 16.2241 19.2153 16.2198 19.2196C16.2155 19.2239 16.2111 19.2283 16.2068 19.2326C16.2025 19.2369 16.1981 19.2413 16.1937 19.2457C16.1894 19.25 16.185 19.2544 16.1806 19.2587C16.1762 19.2631 16.1719 19.2675 16.1674 19.272C16.163 19.2763 16.1586 19.2807 16.1542 19.2852C16.1497 19.2896 16.1453 19.294 16.1409 19.2985C16.1364 19.3029 16.132 19.3074 16.1274 19.3119C16.123 19.3164 16.1185 19.3208 16.114 19.3253C16.1096 19.3298 16.105 19.3343 16.1005 19.3389C16.096 19.3434 16.0915 19.3479 16.0869 19.3524C16.0824 19.357 16.0779 19.3615 16.0733 19.3661C16.0688 19.3706 16.0642 19.3752 16.0596 19.3798C16.055 19.3843 16.0504 19.3889 16.0458 19.3936C16.0412 19.3982 16.0366 19.4028 16.032 19.4074C16.0273 19.412 16.0227 19.4166 16.0181 19.4213C16.0134 19.426 16.0087 19.4306 16.0041 19.4353C15.9994 19.44 15.9947 19.4446 15.9901 19.4493C15.9854 19.454 15.9806 19.4587 15.9759 19.4634C15.9712 19.4681 15.9665 19.4728 15.9618 19.4776C15.957 19.4823 15.9523 19.4871 15.9476 19.4918C15.9427 19.4966 15.938 19.5013 15.9332 19.5062C15.9285 19.5109 15.9237 19.5157 15.9188 19.5205C15.914 19.5253 15.9092 19.5301 15.9044 19.5349C15.8995 19.5398 15.8947 19.5446 15.8899 19.5495C15.885 19.5543 15.8802 19.5592 15.8753 19.5641C15.8704 19.5689 15.8655 19.5738 15.8607 19.5787C15.8558 19.5836 15.8509 19.5885 15.8459 19.5934C15.8411 19.5983 15.8361 19.6032 15.8312 19.6082C15.8262 19.6131 15.8213 19.6181 15.8163 19.623C15.8114 19.628 15.8064 19.6329 15.8014 19.638C15.7964 19.6429 15.7914 19.6479 15.7864 19.6529C15.7814 19.658 15.7764 19.663 15.7713 19.668C15.7663 19.673 15.7613 19.6781 15.7562 19.6831C15.7512 19.6882 15.7461 19.6933 15.741 19.6983C15.736 19.7034 15.7309 19.7085 15.7257 19.7136C15.7206 19.7187 15.7156 19.7238 15.7105 19.7289C15.7053 19.7341 15.7002 19.7391 15.695 19.7443C15.6899 19.7495 15.6847 19.7546 15.6796 19.7598C15.6744 19.765 15.6692 19.7701 15.664 19.7753C15.6588 19.7805 15.6536 19.7857 15.6484 19.791C15.6432 19.7961 15.638 19.8014 15.6328 19.8066C15.6274 19.8119 15.6222 19.8171 15.617 19.8224C15.6117 19.8277 15.6064 19.8329 15.6011 19.8382C15.5958 19.8435 15.5905 19.8488 15.5852 19.8541C15.5799 19.8594 15.5746 19.8647 15.5693 19.8701C15.564 19.8754 15.5586 19.8808 15.5532 19.8862C15.5479 19.8915 15.5425 19.8968 15.5372 19.9022C15.5318 19.9076 15.5263 19.913 15.521 19.9184C15.5155 19.9238 15.5101 19.9292 15.5047 19.9347C15.4993 19.9401 15.4938 19.9456 15.4884 19.951C15.4829 19.9564 15.4775 19.9619 15.472 19.9674C15.4665 19.9728 15.461 19.9784 15.4555 19.9839C15.45 19.9893 15.4445 19.9948 15.4389 20.0004C15.4334 20.0059 15.4279 20.0115 15.4223 20.017C15.4168 20.0226 15.4112 20.0281 15.4057 20.0337C15.4001 20.0392 15.3945 20.0448 15.3889 20.0504C15.3833 20.0561 15.3777 20.0617 15.372 20.0673C15.3665 20.0729 15.3608 20.0786 15.3551 20.0842C15.3496 20.0898 15.3439 20.0955 15.3382 20.1012C15.3325 20.1068 15.3269 20.1125 15.3211 20.1182C15.3155 20.1239 15.3097 20.1296 15.304 20.1353C15.2983 20.1411 15.2926 20.1468 15.2868 20.1525C15.2811 20.1582 15.2753 20.164 15.2696 20.1698C15.2638 20.1756 15.258 20.1814 15.2522 20.1872C15.2464 20.193 15.2406 20.1988 15.2348 20.2046C15.229 20.2104 15.2231 20.2162 15.2173 20.222C15.2115 20.2279 15.2056 20.2338 15.1997 20.2396C15.1939 20.2455 15.188 20.2514 15.1821 20.2572C15.1762 20.2632 15.1703 20.2691 15.1644 20.275C15.1584 20.2809 15.1525 20.2869 15.1465 20.2928C15.1406 20.2988 15.1347 20.3047 15.1287 20.3106C15.1227 20.3166 15.1168 20.3226 15.1108 20.3286C15.1048 20.3346 15.0987 20.3406 15.0927 20.3466C15.0867 20.3526 15.0807 20.3586 15.0746 20.3647C15.0686 20.3707 15.0625 20.3768 15.0565 20.3829C15.0504 20.389 15.0443 20.3951 15.0382 20.4011C15.0321 20.4072 15.0261 20.4133 15.0199 20.4195C15.0138 20.4255 15.0077 20.4317 15.0015 20.4378C14.9954 20.444 14.9892 20.4501 14.9831 20.4563C14.9768 20.4625 14.9707 20.4687 14.9645 20.4749C14.9583 20.481 14.9521 20.4873 14.9459 20.4935C14.9396 20.4997 14.9334 20.5059 14.9271 20.5122C14.9209 20.5184 14.9147 20.5247 14.9084 20.531C14.9021 20.5373 14.8958 20.5436 14.8895 20.5498C14.8832 20.5561 14.8769 20.5624 14.8706 20.5688C14.8643 20.5751 14.8579 20.5815 14.8515 20.5878C14.8452 20.5941 14.8389 20.6005 14.8324 20.6069C14.8261 20.6133 14.8197 20.6196 14.8133 20.6261C14.8069 20.6324 14.8005 20.6389 14.7941 20.6453C14.7876 20.6517 14.7812 20.6582 14.7748 20.6646C14.7683 20.671 14.7618 20.6775 14.7554 20.684C14.7489 20.6905 14.7424 20.697 14.7359 20.7035C14.7294 20.71 14.7228 20.7165 14.7163 20.7231C14.7098 20.7296 14.7032 20.7362 14.6967 20.7427C14.6901 20.7492 14.6835 20.7558 14.677 20.7624C14.6704 20.769 14.6637 20.7756 14.6572 20.7822C14.6505 20.7888 14.6439 20.7954 14.6373 20.8021C14.6306 20.8087 14.624 20.8154 14.6173 20.822C14.6106 20.8287 14.604 20.8354 14.5973 20.8421C14.5906 20.8487 14.5839 20.8555 14.5772 20.8622C14.5705 20.8689 14.5637 20.8756 14.557 20.8824C14.5502 20.8891 14.5435 20.8959 14.5367 20.9026C14.5299 20.9094 14.5232 20.9162 14.5164 20.923C14.5096 20.9298 14.5027 20.9366 14.4959 20.9434C14.4891 20.9503 14.4823 20.9571 14.4754 20.9639C14.4686 20.9708 14.4617 20.9776 14.4548 20.9846C14.4479 20.9914 14.4411 20.9983 14.4341 21.0052L15.4948 22.0659C15.5017 22.059 15.5086 22.0521 15.5154 22.0452C15.5224 22.0383 15.5292 22.0314 15.5361 22.0246C15.5429 22.0177 15.5497 22.0109 15.5566 22.0041C15.5634 21.9973 15.5702 21.9904 15.577 21.9836C15.5838 21.9769 15.5906 21.9701 15.5974 21.9633C15.6041 21.9566 15.6109 21.9498 15.6176 21.9431C15.6244 21.9363 15.6311 21.9296 15.6378 21.9228C15.6446 21.9161 15.6513 21.9094 15.6579 21.9028C15.6646 21.896 15.6713 21.8894 15.678 21.8827C15.6847 21.876 15.6913 21.8694 15.6979 21.8627C15.7046 21.8561 15.7112 21.8495 15.7178 21.8429C15.7244 21.8363 15.731 21.8296 15.7376 21.8231C15.7442 21.8165 15.7508 21.8099 15.7573 21.8033C15.7639 21.7968 15.7704 21.7903 15.7769 21.7837C15.7835 21.7772 15.79 21.7707 15.7965 21.7642C15.803 21.7577 15.8095 21.7511 15.816 21.7446C15.8225 21.7382 15.829 21.7317 15.8354 21.7253C15.8418 21.7188 15.8483 21.7124 15.8547 21.706C15.8611 21.6995 15.8676 21.6931 15.8739 21.6867C15.8804 21.6803 15.8867 21.6739 15.8931 21.6676C15.8995 21.6611 15.9059 21.6548 15.9122 21.6485C15.9186 21.6421 15.9249 21.6357 15.9312 21.6295C15.9376 21.6231 15.9439 21.6168 15.9502 21.6105C15.9565 21.6042 15.9628 21.5979 15.9691 21.5916C15.9753 21.5853 15.9816 21.5791 15.9878 21.5729C15.9941 21.5666 16.0003 21.5604 16.0065 21.5541C16.0128 21.5479 16.019 21.5417 16.0251 21.5356C16.0313 21.5293 16.0375 21.5232 16.0437 21.517C16.0499 21.5108 16.056 21.5046 16.0622 21.4985C16.0683 21.4923 16.0745 21.4862 16.0806 21.4801C16.0867 21.474 16.0928 21.4679 16.0989 21.4618C16.105 21.4557 16.111 21.4496 16.1171 21.4436C16.1232 21.4375 16.1293 21.4314 16.1353 21.4254C16.1414 21.4193 16.1474 21.4133 16.1534 21.4073C16.1594 21.4013 16.1654 21.3953 16.1714 21.3893C16.1774 21.3832 16.1834 21.3773 16.1894 21.3713C16.1953 21.3654 16.2013 21.3594 16.2072 21.3535C16.2131 21.3475 16.2191 21.3416 16.225 21.3357C16.231 21.3297 16.2368 21.3238 16.2428 21.3179C16.2486 21.312 16.2545 21.3062 16.2604 21.3003C16.2662 21.2944 16.2721 21.2886 16.278 21.2827C16.2838 21.2769 16.2897 21.271 16.2955 21.2652C16.3013 21.2594 16.307 21.2536 16.3128 21.2478C16.3186 21.242 16.3244 21.2362 16.3302 21.2304C16.336 21.2247 16.3418 21.2189 16.3475 21.2132C16.3532 21.2075 16.359 21.2017 16.3647 21.196C16.3704 21.1903 16.3761 21.1845 16.3818 21.1789C16.3875 21.1732 16.3932 21.1675 16.3988 21.1618C16.4046 21.1561 16.4102 21.1505 16.4158 21.1449C16.4215 21.1392 16.4271 21.1336 16.4327 21.128C16.4384 21.1223 16.4439 21.1167 16.4496 21.1111C16.4552 21.1055 16.4608 21.0999 16.4664 21.0943C16.4719 21.0888 16.4775 21.0832 16.483 21.0777C16.4886 21.0721 16.4941 21.0666 16.4996 21.0611C16.5052 21.0555 16.5107 21.05 16.5161 21.0445C16.5217 21.039 16.5272 21.0335 16.5326 21.0281C16.5381 21.0225 16.5436 21.0171 16.549 21.0117C16.5545 21.0062 16.5599 21.0008 16.5654 20.9953C16.5708 20.9899 16.5762 20.9845 16.5816 20.9791C16.587 20.9737 16.5924 20.9682 16.5978 20.9629C16.6032 20.9575 16.6086 20.9521 16.6139 20.9468C16.6192 20.9414 16.6246 20.9361 16.6299 20.9308C16.6353 20.9254 16.6406 20.9201 16.6459 20.9148C16.6512 20.9095 16.6565 20.9042 16.6618 20.8989C16.6671 20.8936 16.6723 20.8883 16.6776 20.883C16.6829 20.8778 16.6881 20.8726 16.6934 20.8673C16.6986 20.862 16.7039 20.8568 16.709 20.8516C16.7143 20.8464 16.7195 20.8412 16.7247 20.836C16.7299 20.8308 16.7351 20.8256 16.7402 20.8205C16.7454 20.8153 16.7505 20.8101 16.7557 20.805C16.7609 20.7998 16.766 20.7947 16.7711 20.7896C16.7762 20.7845 16.7813 20.7794 16.7864 20.7743C16.7916 20.7691 16.7967 20.764 16.8017 20.759C16.8068 20.7539 16.8119 20.7488 16.8169 20.7438C16.822 20.7387 16.827 20.7337 16.832 20.7287C16.837 20.7237 16.842 20.7186 16.8471 20.7136C16.8521 20.7086 16.8571 20.7036 16.8621 20.6986C16.8671 20.6936 16.872 20.6886 16.877 20.6837C16.8819 20.6787 16.8869 20.6738 16.8918 20.6688C16.8968 20.6639 16.9017 20.659 16.9066 20.6541C16.9116 20.6491 16.9164 20.6442 16.9213 20.6394C16.9262 20.6345 16.9311 20.6296 16.936 20.6247C16.9408 20.6198 16.9457 20.615 16.9505 20.6102C16.9554 20.6053 16.9602 20.6005 16.9651 20.5956C16.9699 20.5908 16.9747 20.586 16.9795 20.5812C16.9843 20.5764 16.9891 20.5716 16.9939 20.5668C16.9987 20.562 17.0034 20.5573 17.0082 20.5525C17.013 20.5477 17.0177 20.543 17.0224 20.5382C17.0272 20.5335 17.0319 20.5288 17.0366 20.5241C17.0413 20.5194 17.046 20.5146 17.0507 20.51C17.0554 20.5053 17.06 20.5006 17.0647 20.496C17.0694 20.4913 17.074 20.4866 17.0787 20.482C17.0834 20.4773 17.088 20.4727 17.0926 20.468C17.0972 20.4634 17.1018 20.4588 17.1064 20.4542C17.1111 20.4496 17.1157 20.445 17.1202 20.4405C17.1248 20.4359 17.1294 20.4313 17.1339 20.4267C17.1385 20.4221 17.1431 20.4176 17.1476 20.4131C17.1521 20.4086 17.1566 20.404 17.1612 20.3995C17.1657 20.395 17.1702 20.3905 17.1747 20.386C17.1792 20.3815 17.1836 20.377 17.1881 20.3726C17.1926 20.368 17.1971 20.3636 17.2015 20.3591C17.206 20.3547 17.2104 20.3503 17.2148 20.3458C17.2193 20.3414 17.2237 20.337 17.2281 20.3326C17.2325 20.3282 17.2369 20.3238 17.2413 20.3194C17.2457 20.315 17.25 20.3106 17.2544 20.3063C17.2587 20.3019 17.2631 20.2975 17.2674 20.2932C17.2718 20.2889 17.2761 20.2845 17.2805 20.2802C17.2848 20.2759 17.2891 20.2716 17.2934 20.2673C17.2977 20.263 17.3019 20.2587 17.3063 20.2544C17.3105 20.2502 17.3148 20.2459 17.3191 20.2416C17.3233 20.2374 17.3275 20.2331 17.3318 20.2289C17.336 20.2246 17.3403 20.2204 17.3444 20.2162C17.3487 20.212 17.3529 20.2078 17.3571 20.2036C17.3613 20.1994 17.3654 20.1952 17.3696 20.1911C17.3738 20.1869 17.378 20.1827 17.3821 20.1785C17.3862 20.1744 17.3904 20.1703 17.3945 20.1662C17.3987 20.162 17.4028 20.1579 17.4069 20.1538C17.411 20.1497 17.4151 20.1456 17.4192 20.1415C17.4233 20.1374 17.4274 20.1333 17.4314 20.1293C17.4355 20.1252 17.4396 20.1211 17.4436 20.1171C17.4476 20.1131 17.4517 20.109 17.4557 20.1049C17.4597 20.101 17.4637 20.0969 17.4678 20.0929C17.4718 20.0889 17.4758 20.0849 17.4797 20.081C17.4837 20.0769 17.4877 20.073 17.4917 20.069C17.4956 20.0651 17.4996 20.0611 17.5035 20.0571C17.5075 20.0532 17.5114 20.0493 17.5154 20.0453C17.5192 20.0414 17.5232 20.0375 17.5271 20.0336C17.531 20.0297 17.5349 20.0258 17.5388 20.0219C17.5426 20.018 17.5465 20.0141 17.5504 20.0103C17.5542 20.0064 17.5581 20.0025 17.562 19.9987C17.5658 19.9949 17.5697 19.991 17.5735 19.9872C17.5773 19.9834 17.5811 19.9796 17.5849 19.9757C17.5887 19.972 17.5925 19.9682 17.5963 19.9644C17.6001 19.9606 17.6038 19.9569 17.6076 19.953C17.6114 19.9493 17.6151 19.9456 17.6189 19.9418C17.6226 19.9381 17.6264 19.9343 17.63 19.9306C17.6338 19.9269 17.6375 19.9231 17.6412 19.9195C17.6449 19.9158 17.6486 19.912 17.6523 19.9084C17.656 19.9047 17.6597 19.901 17.6634 19.8973C17.667 19.8937 17.6706 19.89 17.6743 19.8864C17.6779 19.8828 17.6816 19.8791 17.6852 19.8755C17.6888 19.8719 17.6924 19.8683 17.696 19.8647C17.6996 19.8611 17.7032 19.8574 17.7068 19.8538C17.7104 19.8502 17.714 19.8467 17.7176 19.8431C17.7211 19.8396 17.7247 19.836 17.7283 19.8324C17.7318 19.8289 17.7353 19.8253 17.7389 19.8218C17.7424 19.8183 17.7459 19.8148 17.7494 19.8113C17.7529 19.8077 17.7564 19.8043 17.7599 19.8008C17.7634 19.7973 17.7669 19.7938 17.7703 19.7903C17.7738 19.7869 17.7773 19.7834 17.7807 19.7799C17.7842 19.7765 17.7876 19.7731 17.7911 19.7696C17.7945 19.7662 17.7979 19.7628 17.8013 19.7594C17.8048 19.7559 17.8082 19.7525 17.8116 19.7491C17.815 19.7457 17.8183 19.7423 17.8217 19.739C17.8251 19.7356 17.8285 19.7322 17.8318 19.7289C17.8352 19.7255 17.8385 19.7222 17.8418 19.7189C17.8451 19.7155 17.8485 19.7121 17.8518 19.7089C17.8551 19.7056 17.8584 19.7022 17.8618 19.6989C17.8651 19.6956 17.8683 19.6923 17.8717 19.689C17.8749 19.6858 17.8782 19.6825 17.8814 19.6793C17.8847 19.6759 17.888 19.6727 17.8913 19.6694C17.8944 19.6662 17.8977 19.663 17.9009 19.6597C17.9041 19.6566 17.9074 19.6533 17.9106 19.6501C17.9138 19.6469 17.917 19.6437 17.9202 19.6405C17.9234 19.6373 17.9265 19.6341 17.9297 19.631C17.9329 19.6278 17.9361 19.6246 17.9392 19.6215C17.9424 19.6183 17.9455 19.6152 17.9487 19.612C17.9518 19.6089 17.9549 19.6058 17.958 19.6027C17.9611 19.5996 17.9642 19.5965 17.9673 19.5933C17.9704 19.5902 17.9736 19.5871 17.9766 19.5841C17.9797 19.581 17.9828 19.5779 17.9859 19.5748C17.9889 19.5718 17.9919 19.5687 17.995 19.5657C17.998 19.5627 18.0011 19.5596 18.0041 19.5566C18.0071 19.5535 18.0101 19.5506 18.0132 19.5475C18.0162 19.5445 18.0192 19.5415 18.0221 19.5385C18.0252 19.5355 18.0281 19.5325 18.0311 19.5296C18.0341 19.5266 18.0371 19.5236 18.04 19.5207C18.0429 19.5178 18.0459 19.5148 18.0489 19.5118C18.0518 19.5089 18.0547 19.5059 18.0576 19.503C18.0605 19.5001 18.0634 19.4972 18.0664 19.4943C18.0693 19.4914 18.0722 19.4885 18.075 19.4856C18.0779 19.4827 18.0808 19.4799 18.0837 19.477C18.0866 19.4741 18.0894 19.4713 18.0923 19.4684C18.0951 19.4656 18.0979 19.4627 18.1008 19.4599C18.1036 19.4571 18.1064 19.4543 18.1093 19.4514C18.1121 19.4486 18.1149 19.4458 18.1177 19.443C18.1205 19.4402 18.1233 19.4374 18.1261 19.4346C18.1288 19.4318 18.1316 19.4291 18.1344 19.4263C18.1372 19.4235 18.1399 19.4207 18.1426 19.418C18.1454 19.4153 18.1481 19.4125 18.1509 19.4098C18.1536 19.4071 18.1563 19.4043 18.159 19.4016C18.1618 19.3989 18.1645 19.3962 18.1672 19.3935C18.1699 19.3908 18.1725 19.3881 18.1752 19.3855C18.1779 19.3828 18.1806 19.3801 18.1832 19.3775C18.1859 19.3748 18.1886 19.3721 18.1912 19.3695C18.1939 19.3668 18.1965 19.3642 18.1991 19.3616C18.2017 19.3589 18.2044 19.3563 18.207 19.3537C18.2096 19.3511 18.2122 19.3485 18.2148 19.3459C18.2174 19.3432 18.22 19.3407 18.2226 19.3381C18.2251 19.3355 18.2278 19.3329 18.2303 19.3304C18.2329 19.3278 18.2354 19.3253 18.2379 19.3227C18.2405 19.3202 18.243 19.3176 18.2456 19.3151C18.2481 19.3125 18.2506 19.3101 18.2531 19.3075C18.2557 19.305 18.2582 19.3025 18.2606 19.3C18.2632 19.2975 18.2657 19.295 18.2681 19.2925C18.2706 19.2901 18.2731 19.2876 18.2756 19.2851C18.278 19.2826 18.2805 19.2802 18.2829 19.2778C18.2854 19.2753 18.2879 19.2728 18.2903 19.2704C18.2927 19.268 18.2952 19.2655 18.2976 19.2631C18.3 19.2607 18.3024 19.2583 18.3048 19.2559C18.3072 19.2535 18.3096 19.2511 18.312 19.2487C18.3144 19.2463 18.3167 19.244 18.3191 19.2416C18.3215 19.2392 18.3239 19.2368 18.3262 19.2345C18.3285 19.2322 18.3309 19.2298 18.3333 19.2274C18.3356 19.2251 18.3379 19.2227 18.3402 19.2205C18.3425 19.2182 18.3449 19.2158 18.3472 19.2135C18.3495 19.2112 18.3518 19.2089 18.3541 19.2066C18.3564 19.2043 18.3586 19.202 18.3609 19.1998C18.3632 19.1975 18.3655 19.1952 18.3677 19.193C18.37 19.1907 18.3722 19.1885 18.3745 19.1862C18.3768 19.1839 18.379 19.1817 18.3812 19.1795C18.3835 19.1772 18.3857 19.175 18.3879 19.1728C18.3901 19.1706 18.3923 19.1684 18.3945 19.1662C18.3967 19.164 18.3989 19.1618 18.4011 19.1596C18.4033 19.1574 18.4055 19.1552 18.4076 19.1531C18.4098 19.1509 18.412 19.1487 18.4141 19.1466C18.4163 19.1444 18.4184 19.1423 18.4205 19.1402C18.4227 19.138 18.4248 19.1358 18.427 19.1337C18.4291 19.1316 18.4312 19.1295 18.4333 19.1274C18.4354 19.1253 18.4375 19.1232 18.4396 19.1211C18.4417 19.119 18.4438 19.1169 18.4458 19.1148C18.448 19.1127 18.45 19.1107 18.4521 19.1086C18.4541 19.1066 18.4562 19.1044 18.4583 19.1024C18.4603 19.1003 18.4623 19.0984 18.4644 19.0963C18.4664 19.0943 18.4685 19.0922 18.4704 19.0902C18.4725 19.0882 18.4745 19.0862 18.4765 19.0842C18.4785 19.0822 18.4805 19.0802 18.4825 19.0781C18.4845 19.0762 18.4865 19.0742 18.4885 19.0722C18.4905 19.0702 18.4924 19.0682 18.4943 19.0663C18.4963 19.0644 18.4983 19.0624 18.5002 19.0605C18.5022 19.0585 18.5041 19.0566 18.5061 19.0546C18.508 19.0527 18.5099 19.0508 18.5119 19.0488C18.5138 19.0469 18.5157 19.045 18.5176 19.0431C18.5195 19.0412 18.5214 19.0393 18.5233 19.0374C18.5252 19.0355 18.5271 19.0336 18.5289 19.0318C18.5308 19.0298 18.5327 19.028 18.5346 19.0261C18.5364 19.0243 18.5383 19.0224 18.5401 19.0206C18.542 19.0187 18.5438 19.0168 18.5457 19.015C18.5475 19.0132 18.5493 19.0114 18.5511 19.0096C18.553 19.0077 18.5548 19.0059 18.5566 19.0041C18.5584 19.0023 18.5602 19.0005 18.562 18.9987C18.5638 18.9969 18.5655 18.9951 18.5673 18.9934C18.5692 18.9915 18.5709 18.9898 18.5727 18.988C18.5745 18.9862 18.5762 18.9845 18.5779 18.9828C18.5797 18.981 18.5815 18.9792 18.5832 18.9775C18.5849 18.9758 18.5867 18.974 18.5884 18.9723C18.5901 18.9706 18.5919 18.9688 18.5936 18.9671C18.5952 18.9654 18.5969 18.9637 18.5986 18.962C18.6003 18.9603 18.602 18.9586 18.6037 18.9569C18.6054 18.9552 18.6071 18.9536 18.6088 18.9519C18.6105 18.9502 18.6121 18.9485 18.6138 18.9469C18.6155 18.9452 18.6171 18.9436 18.6187 18.942C18.6204 18.9403 18.622 18.9386 18.6237 18.937C18.6253 18.9354 18.6269 18.9338 18.6286 18.9321C18.6302 18.9305 18.6318 18.9289 18.6334 18.9273C18.635 18.9257 18.6366 18.9241 18.6382 18.9225C18.6398 18.9209 18.6414 18.9193 18.643 18.9177C18.6445 18.9161 18.6461 18.9146 18.6476 18.913C18.6493 18.9114 18.6508 18.9099 18.6524 18.9083C18.6539 18.9067 18.6555 18.9052 18.657 18.9037C18.6585 18.9021 18.6601 18.9006 18.6616 18.899C18.6631 18.8975 18.6647 18.896 18.6662 18.8945C18.6677 18.893 18.6692 18.8915 18.6707 18.89C18.6723 18.8884 18.6737 18.8869 18.6752 18.8855C18.6767 18.884 18.6782 18.8825 18.6797 18.881C18.6812 18.8795 18.6826 18.878 18.6841 18.8766C18.6855 18.8751 18.687 18.8736 18.6884 18.8722C18.6899 18.8707 18.6913 18.8693 18.6928 18.8678C18.6942 18.8664 18.6957 18.865 18.6971 18.8635C18.6986 18.8621 18.7 18.8607 18.7014 18.8593C18.7028 18.8579 18.7042 18.8565 18.7056 18.8551C18.707 18.8536 18.7085 18.8522 18.7098 18.8509C18.7112 18.8495 18.7126 18.8481 18.714 18.8467C18.7154 18.8453 18.7167 18.8439 18.7181 18.8425C18.7195 18.8412 18.7208 18.8398 18.7222 18.8385C18.7236 18.8371 18.7249 18.8357 18.7263 18.8344C18.7276 18.8331 18.729 18.8317 18.7303 18.8304C18.7316 18.829 18.7329 18.8278 18.7343 18.8264C18.7356 18.8251 18.7369 18.8238 18.7382 18.8225C18.7395 18.8212 18.7408 18.8198 18.7421 18.8186C18.7435 18.8172 18.7447 18.8159 18.746 18.8147C18.7473 18.8134 18.7485 18.8121 18.7498 18.8109C18.7511 18.8096 18.7524 18.8083 18.7536 18.807C18.7549 18.8058 18.7562 18.8045 18.7575 18.8032C18.7587 18.802 18.7599 18.8007 18.7611 18.7995C18.7624 18.7983 18.7636 18.7971 18.7649 18.7958C18.7661 18.7946 18.7673 18.7934 18.7686 18.7921C18.7698 18.7909 18.771 18.7897 18.7722 18.7885C18.7734 18.7873 18.7746 18.7861 18.7758 18.7849C18.777 18.7837 18.7782 18.7825 18.7793 18.7814C18.7805 18.7802 18.7817 18.779 18.7828 18.7778C18.784 18.7766 18.7852 18.7754 18.7864 18.7743C18.7875 18.7732 18.7887 18.772 18.7898 18.7708C18.791 18.7697 18.7922 18.7685 18.7933 18.7674C18.7944 18.7662 18.7956 18.7651 18.7967 18.764C18.7978 18.7628 18.799 18.7617 18.8 18.7607C18.8012 18.7595 18.8023 18.7584 18.8034 18.7573C18.8045 18.7562 18.8056 18.7551 18.8067 18.754C18.8078 18.7529 18.8089 18.7518 18.81 18.7507C18.8111 18.7496 18.8121 18.7486 18.8132 18.7475C18.8143 18.7464 18.8154 18.7453 18.8164 18.7442C18.8175 18.7432 18.8186 18.7421 18.8196 18.7411C18.8207 18.74 18.8217 18.739 18.8227 18.738C18.8238 18.7369 18.8248 18.7358 18.8258 18.7348C18.8269 18.7338 18.8279 18.7328 18.8289 18.7317C18.8299 18.7307 18.831 18.7297 18.832 18.7287C18.833 18.7277 18.834 18.7266 18.835 18.7257C18.836 18.7247 18.837 18.7237 18.838 18.7227C18.839 18.7217 18.84 18.7207 18.841 18.7197C18.842 18.7187 18.8429 18.7177 18.8439 18.7168C18.8449 18.7158 18.8458 18.7148 18.8468 18.7139C18.8478 18.7129 18.8487 18.712 18.8497 18.711C18.8506 18.7101 18.8516 18.7091 18.8525 18.7082C18.8534 18.7073 18.8544 18.7063 18.8553 18.7054C18.8562 18.7044 18.8572 18.7035 18.8581 18.7026C18.859 18.7017 18.8599 18.7008 18.8608 18.6998C18.8618 18.6989 18.8627 18.698 18.8635 18.6972C18.8644 18.6962 18.8654 18.6953 18.8662 18.6945C18.8671 18.6935 18.868 18.6927 18.8689 18.6918C18.8697 18.6909 18.8707 18.69 18.8715 18.6892C18.8724 18.6882 18.8733 18.6874 18.8741 18.6865C18.875 18.6857 18.8758 18.6849 18.8767 18.684C18.8775 18.6832 18.8784 18.6823 18.8792 18.6815C18.8801 18.6806 18.8809 18.6798 18.8818 18.6789C18.8826 18.6781 18.8835 18.6772 18.8842 18.6764C18.8851 18.6756 18.8859 18.6747 18.8867 18.674C18.8876 18.6731 18.8883 18.6723 18.8891 18.6716C18.89 18.6707 18.8907 18.6699 18.8916 18.6691C18.8924 18.6683 18.8932 18.6675 18.8939 18.6667C18.8947 18.666 18.8955 18.6652 18.8963 18.6644C18.897 18.6636 18.8978 18.6629 18.8986 18.6621C18.8994 18.6613 18.9002 18.6605 18.9009 18.6597C18.9017 18.659 18.9024 18.6583 18.9032 18.6575C18.904 18.6567 18.9047 18.656 18.9055 18.6552C18.9062 18.6545 18.9069 18.6537 18.9076 18.653C18.9084 18.6523 18.9091 18.6515 18.9098 18.6508C18.9105 18.6501 18.9113 18.6494 18.912 18.6486C18.9127 18.6479 18.9134 18.6472 18.9142 18.6465C18.9149 18.6458 18.9156 18.6451 18.9163 18.6444C18.917 18.6437 18.9176 18.6431 18.9183 18.6424C18.919 18.6416 18.9197 18.6409 18.9204 18.6403C18.9211 18.6396 18.9218 18.6389 18.9224 18.6383C18.9231 18.6375 18.9238 18.6369 18.9245 18.6362C18.9251 18.6356 18.9257 18.6349 18.9265 18.6342C18.9271 18.6336 18.9277 18.6329 18.9284 18.6323C18.9291 18.6316 18.9297 18.631 18.9303 18.6303C18.931 18.6297 18.9316 18.6291 18.9323 18.6284C18.9329 18.6278 18.9335 18.6272 18.9341 18.6266C18.9347 18.6259 18.9354 18.6253 18.936 18.6247C18.9366 18.6241 18.9372 18.6235 18.9378 18.6228C18.9384 18.6223 18.939 18.6216 18.9396 18.6211C18.9402 18.6204 18.9408 18.6199 18.9414 18.6192C18.942 18.6187 18.9426 18.6181 18.9432 18.6175C18.9438 18.6169 18.9443 18.6163 18.9449 18.6158C18.9455 18.6152 18.9461 18.6146 18.9467 18.614C18.9472 18.6134 18.9478 18.6129 18.9484 18.6123C18.9489 18.6117 18.9494 18.6112 18.95 18.6107C18.9506 18.6101 18.9511 18.6095 18.9517 18.609C18.9522 18.6085 18.9528 18.6079 18.9533 18.6074C18.9538 18.6069 18.9544 18.6063 18.9549 18.6058C18.9554 18.6052 18.9559 18.6047 18.9565 18.6042C18.957 18.6037 18.9575 18.6032 18.9581 18.6026C18.9586 18.6021 18.9591 18.6016 18.9596 18.6011C18.9601 18.6006 18.9606 18.6001 18.9611 18.5996C18.9616 18.5991 18.9621 18.5986 18.9626 18.5981C18.9631 18.5976 18.9636 18.5971 18.9641 18.5966C18.9646 18.5961 18.9651 18.5956 18.9655 18.5952C18.966 18.5947 18.9665 18.5942 18.967 18.5937C18.9674 18.5933 18.9679 18.5928 18.9684 18.5923C18.9688 18.5919 18.9693 18.5914 18.9697 18.5909C18.9702 18.5905 18.9707 18.59 18.9711 18.5895C18.9716 18.5891 18.972 18.5887 18.9725 18.5882C18.9729 18.5878 18.9733 18.5873 18.9738 18.5869C18.9742 18.5865 18.9747 18.586 18.9751 18.5856C18.9755 18.5851 18.976 18.5847 18.9764 18.5843C18.9768 18.5839 18.9772 18.5835 18.9777 18.583C18.9781 18.5826 18.9785 18.5822 18.9789 18.5818C18.9793 18.5814 18.9797 18.581 18.9801 18.5806C18.9805 18.5802 18.9809 18.5798 18.9813 18.5793C18.9817 18.579 18.9821 18.5786 18.9825 18.5781C18.9829 18.5778 18.9833 18.5774 18.9837 18.577C18.984 18.5767 18.9844 18.5762 18.9848 18.5759C18.9852 18.5755 18.9856 18.5751 18.9859 18.5748C18.9863 18.5743 18.9867 18.574 18.9871 18.5736C18.9874 18.5733 18.9878 18.5729 18.9881 18.5726C18.9885 18.5722 18.9889 18.5718 18.9892 18.5714C18.9896 18.5711 18.99 18.5707 18.9902 18.5704C18.9906 18.5701 18.9909 18.5697 18.9913 18.5694C18.9917 18.569 18.992 18.5687 18.9923 18.5684C18.9926 18.568 18.993 18.5677 18.9933 18.5673C18.9936 18.567 18.994 18.5667 18.9943 18.5663C18.9946 18.5661 18.995 18.5657 18.9953 18.5654C18.9956 18.5651 18.9959 18.5648 18.9962 18.5644C18.9965 18.5641 18.9968 18.5639 18.9972 18.5635C18.9974 18.5632 18.9977 18.5629 18.9981 18.5626C18.9984 18.5623 18.9987 18.562 18.9989 18.5617C18.9992 18.5615 18.9996 18.5611 18.9999 18.5608C19.0001 18.5605 19.0004 18.5603 19.0007 18.56C19.001 18.5597 19.0013 18.5594 19.0016 18.5591C19.0018 18.5588 19.0021 18.5586 19.0024 18.5583C19.0027 18.558 19.0029 18.5578 19.0032 18.5575C19.0035 18.5572 19.0037 18.5569 19.004 18.5567C19.0042 18.5564 19.0045 18.5562 19.0048 18.5559C19.005 18.5557 19.0053 18.5554 19.0055 18.5552C19.0058 18.5549 19.006 18.5547 19.0063 18.5544C19.0066 18.5541 19.0068 18.5539 19.007 18.5537C19.0073 18.5534 19.0075 18.5532 19.0078 18.5529C19.008 18.5527 19.0082 18.5525 19.0085 18.5522C19.0087 18.552 19.0083 18.5524 19.0085 18.5522C19.0088 18.5519 19.0096 18.5511 19.0098 18.5509C19.01 18.5506 19.0096 18.5511 19.0098 18.5509C19.01 18.5506 19.0109 18.5498 19.0111 18.5496C19.0113 18.5494 19.0109 18.5498 19.0111 18.5496C19.0113 18.5494 19.0122 18.5485 19.0124 18.5483C19.0126 18.5481 19.0122 18.5485 19.0124 18.5483C19.0126 18.5481 19.0134 18.5473 19.0136 18.5471C19.0138 18.5469 19.0134 18.5472 19.0136 18.5471C19.0138 18.5469 19.0146 18.5461 19.0147 18.546C19.0149 18.5458 19.0145 18.5462 19.0147 18.546C19.0149 18.5458 19.0156 18.5451 19.0158 18.5448C19.016 18.5447 19.0157 18.545 19.0158 18.5448C19.016 18.5447 19.0167 18.544 19.0168 18.5439C19.017 18.5436 19.0167 18.544 19.0168 18.5439C19.017 18.5436 19.0177 18.543 19.0178 18.5429C19.018 18.5427 19.0177 18.543 19.0178 18.5429C19.018 18.5427 19.0186 18.5421 19.0187 18.5419C19.0189 18.5417 19.0186 18.5421 19.0187 18.5419C19.0189 18.5418 19.0195 18.5412 19.0197 18.541C19.0198 18.5409 19.0195 18.5412 19.0197 18.541C19.0198 18.5409 19.0204 18.5403 19.0205 18.5402C19.0206 18.54 19.0204 18.5403 19.0205 18.5402C19.0206 18.54 19.0211 18.5395 19.0213 18.5394C19.0214 18.5393 19.0211 18.5395 19.0213 18.5394C19.0213 18.5393 19.0219 18.5388 19.0221 18.5386C19.0222 18.5385 19.023 18.5377 19.0231 18.5376C19.0232 18.5375 19.024 18.5367 19.024 18.5366C19.0241 18.5366 19.0248 18.5359 19.0249 18.5358C19.025 18.5357 19.0256 18.5351 19.0257 18.5349C19.0258 18.5349 19.0263 18.5344 19.0264 18.5342C19.0265 18.5342 19.0271 18.5335 19.0272 18.5335C19.0273 18.5334 19.0271 18.5335 19.0272 18.5335C19.0273 18.5334 19.0279 18.5328 19.0279 18.5328C19.028 18.5327 19.0287 18.532 19.0288 18.5319C19.0288 18.5319 19.0294 18.5313 19.0295 18.5312C19.0296 18.5311 19.0303 18.5303 19.0303 18.5303L18.5 18ZM19.0303 18.5303L22.5659 14.9948L21.5052 13.9342L17.9697 17.4697L19.0303 18.5303Z" fill="white"/>
</svg>
