<svg width="29" height="35" viewBox="0 0 29 35" fill="none" xmlns="http://www.w3.org/2000/svg">
<path d="M14.6928 0.286133C18.9301 2.78706 23.4086 4.72474 28.1443 6.06506C28.8914 6.27639 28.9912 6.41117 28.9895 7.18075C28.9854 9.73742 29.0287 12.2958 28.9646 14.8516C28.8306 20.1979 26.9595 24.8595 23.308 28.7873C21.4809 30.7524 19.3802 32.3556 16.9583 33.5171C16.3734 33.7974 15.7519 34.0121 15.1304 34.201C14.3816 34.4281 13.6645 34.1926 12.9689 33.9239C10.9647 33.1493 9.19675 31.9796 7.5694 30.6001C5.02437 28.4428 3.04592 25.8504 1.72224 22.7754C0.800409 20.6339 0.178089 18.4025 0.0965546 16.0754C-0.00993879 13.0246 0.0208448 9.96788 4.52955e-05 6.91368C-0.00328262 6.46691 0.176425 6.25975 0.653149 6.1233C2.77969 5.51596 4.87378 4.81543 6.92128 3.97513C9.27662 3.00754 11.5504 1.87605 13.7535 0.600621C13.934 0.496624 14.1137 0.390962 14.2935 0.286133C14.4274 0.286133 14.5597 0.286133 14.6928 0.286133ZM27.6193 11.72C27.6035 11.7192 27.5868 11.7192 27.571 11.7184C27.571 10.3905 27.5644 9.06185 27.5768 7.73401C27.5793 7.48692 27.5228 7.37044 27.2657 7.29639C22.8861 6.02014 18.7179 4.24136 14.7594 1.97505C14.5772 1.87022 14.4366 1.85441 14.2452 1.96507C10.285 4.25468 6.10761 6.03594 1.71143 7.30222C1.47265 7.37127 1.41025 7.47693 1.41191 7.71322C1.42107 9.82728 1.41025 11.9413 1.4194 14.0546C1.43022 16.5064 1.78963 18.9008 2.63992 21.2104C3.66159 23.9867 5.24152 26.4036 7.35391 28.4661C9.10939 30.18 11.0779 31.5894 13.3517 32.5503C14.0555 32.8482 14.7461 32.9555 15.4632 32.6185C15.7727 32.4729 16.098 32.3581 16.4025 32.2042C20.1406 30.3173 23.06 27.5618 25.1117 23.9085C26.4503 21.5241 27.2416 18.9558 27.4462 16.2285C27.5577 14.7293 27.5644 13.2226 27.6193 11.72Z" fill="#2BB673"/>
<path d="M12.1754 18.532C12.3284 18.3282 12.3908 18.22 12.4765 18.1343C14.7287 15.878 16.9817 13.6234 19.238 11.3712C20.1291 10.481 21.2215 10.3146 22.2257 10.9053C23.3896 11.59 23.6958 13.2307 22.8546 14.2864C22.7581 14.4071 22.6591 14.5277 22.5501 14.6367C19.6873 17.5029 16.8228 20.3674 13.9583 23.2327C13.2378 23.9532 12.3908 24.2236 11.4174 23.87C11.0863 23.7494 10.7602 23.5364 10.5072 23.2893C9.12199 21.9357 7.75089 20.5671 6.39393 19.1851C5.20087 17.9704 5.47792 16.1226 6.9655 15.3955C7.81245 14.9811 8.68021 15.0419 9.38989 15.6659C10.2526 16.4238 11.0422 17.2674 11.8567 18.0794C11.9657 18.1868 12.0364 18.3307 12.1754 18.532ZM12.2353 22.6886C12.499 22.5081 12.7785 22.3733 12.9865 22.167C15.8261 19.3424 18.6565 16.5078 21.4877 13.6749C21.5659 13.5967 21.6466 13.5194 21.714 13.432C22.11 12.9162 21.8729 12.2048 21.2489 12.0251C20.8288 11.9037 20.5276 12.1008 20.2472 12.382C17.7995 14.8322 15.3502 17.2799 12.9008 19.7284C12.3617 20.2675 12.0356 20.27 11.5031 19.7384C10.548 18.785 9.59788 17.8257 8.63611 16.8789C8.2351 16.4837 7.69015 16.4862 7.3324 16.8556C6.9838 17.2158 6.98463 17.7483 7.36901 18.136C8.75592 19.5346 10.1478 20.9281 11.5514 22.3092C11.7128 22.4681 11.9607 22.5397 12.2353 22.6886Z" fill="#2BB673"/>
<path d="M2.81726 10.3265C2.81726 9.92883 2.8131 9.53031 2.81809 9.13262C2.82391 8.62095 2.9745 8.41629 3.45123 8.24739C4.66758 7.81643 5.88893 7.39878 7.09863 6.94867C7.83576 6.67412 8.26756 7.23904 8.18103 7.69413C8.11447 8.04606 7.86321 8.20496 7.55954 8.31479C6.56283 8.67254 5.56862 9.03861 4.56691 9.38055C4.32813 9.46209 4.24494 9.56775 4.25326 9.8215C4.27322 10.4288 4.26407 11.037 4.25742 11.6452C4.25409 11.9638 4.14094 12.2309 3.83227 12.3732C3.56604 12.4955 3.27734 12.4805 3.09847 12.2625C2.95038 12.0828 2.85387 11.8216 2.82974 11.5861C2.78648 11.1693 2.81726 10.7458 2.81726 10.3265Z" fill="#2BB673"/>
<path d="M22.6327 23.2581C23.2126 23.2622 23.5271 23.8638 23.1901 24.3804C22.8581 24.8888 22.4954 25.378 22.1177 25.853C21.1775 27.0353 20.0827 28.0628 18.9012 29.0004C18.4977 29.3207 18.0834 29.3157 17.813 28.9846C17.5418 28.6526 17.5934 28.2283 17.9877 27.908C19.0627 27.0344 20.0852 26.1076 20.9504 25.0202C21.3007 24.5793 21.6251 24.1183 21.9571 23.6633C22.126 23.4311 22.3182 23.2439 22.6327 23.2581Z" fill="#2BB673"/>
<path d="M16.6075 28.9894C16.981 28.9819 17.3155 29.2981 17.3272 29.6699C17.3388 30.0543 16.9944 30.4187 16.6025 30.437C16.2123 30.4545 15.8812 30.135 15.877 29.7348C15.872 29.3338 16.2015 28.9977 16.6075 28.9894Z" fill="#2BB673"/>
<path d="M10.2341 6.71716C10.2433 7.08989 9.91216 7.42684 9.51947 7.44514C9.14508 7.46261 8.79897 7.11734 8.79981 6.72964C8.80064 6.3669 9.12345 6.0366 9.49534 6.0183C9.87056 5.99999 10.225 6.33445 10.2341 6.71716Z" fill="#2BB673"/>
</svg>
