<svg width="28" height="28" viewBox="0 0 28 28" fill="none" xmlns="http://www.w3.org/2000/svg">
<path d="M8.98644 3.4922C8.21336 2.66961 7.64973 2.07552 6.97947 1.36337C7.44789 0.853056 7.90489 0.357979 8.23621 0C13.008 4.72989 17.715 9.39885 22.403 14.0488C19.3526 17.1868 16.2108 20.5457 12.9166 23.7447C11.6218 25.0014 9.82045 24.8186 8.43805 23.5047C5.91315 21.1017 3.43015 18.6492 1.0195 16.1319C-0.446685 14.601 -0.309587 12.6702 1.28989 11.0555C3.78813 8.53437 6.3511 6.07802 8.98644 3.4922ZM10.3993 5.08025C7.95059 7.56706 5.51709 10.0577 3.06075 12.5216C2.31051 13.2757 2.12391 14.0031 2.92746 14.8104C5.20481 17.103 7.43647 19.4375 9.80903 21.6273C10.1975 21.9852 11.4923 21.9929 11.8769 21.6349C14.4932 19.19 16.98 16.6041 19.4592 14.1097C16.4469 11.1088 13.5335 8.20686 10.3993 5.08025Z" fill="#2AB477"/>
<path d="M24.1966 17.6475C25.4419 19.8867 26.4244 21.5053 27.2584 23.1923C28.0429 24.7766 27.5517 26.1856 26.2112 27.2329C24.9163 28.2459 23.4806 28.2573 22.1782 27.2558C20.8339 26.2237 20.3007 24.8223 21.0928 23.2304C21.9535 21.5053 22.9627 19.8525 24.1966 17.6475Z" fill="#2AB477"/>
</svg>
