<svg width="25" height="25" viewBox="0 0 25 25" fill="none" xmlns="http://www.w3.org/2000/svg">
<path d="M0 23.9752C0 23.8122 0 23.6498 0 23.4867C0.138917 23.1652 0.284356 22.8378 0.622845 22.6832C0.808068 22.5991 0.83546 22.4856 0.834808 22.3075C0.830895 17.5472 0.831546 12.7875 0.832198 8.02712C0.832198 7.18514 1.33961 6.67447 2.18289 6.6699C2.89117 6.66599 3.5988 6.66925 4.30709 6.66925C4.39448 6.66925 4.48122 6.66925 4.58687 6.66925C4.58687 6.54729 4.58687 6.45925 4.58687 6.37055C4.58753 5.3453 4.57579 4.32005 4.59209 3.2948C4.60318 2.61522 4.94363 2.11955 5.55343 1.82932C5.76148 1.73019 5.99953 1.69497 6.25127 1.62258C6.25127 1.5104 6.24866 1.37279 6.25192 1.23583C6.26888 0.551026 6.79651 0.00579189 7.48066 0.0044875C10.8258 -0.00138224 14.1702 -0.00138238 17.5153 0.00383517C18.2112 0.00513955 18.7382 0.551678 18.7519 1.25279C18.7545 1.38779 18.7525 1.52214 18.7525 1.65323C19.8632 1.74063 20.4639 2.57609 20.4254 3.5309C20.3869 4.48114 20.4169 5.43465 20.4169 6.38685C20.4169 6.47294 20.4169 6.55903 20.4169 6.6686C20.5369 6.6686 20.625 6.6686 20.713 6.6686C21.4128 6.6686 22.1133 6.65751 22.8124 6.67512C23.042 6.68099 23.2911 6.71882 23.4933 6.8186C23.989 7.06252 24.1735 7.5021 24.1735 8.04408C24.1703 12.8044 24.1729 17.5641 24.167 22.3245C24.167 22.5006 24.2146 22.5893 24.3731 22.6793C24.8238 22.935 25.0397 23.3458 24.994 23.8604C24.9497 24.3633 24.6757 24.7194 24.2029 24.9131C24.1285 24.9437 24.0529 24.9711 23.9772 24.9998C16.3264 24.9998 8.67548 24.9998 1.02525 24.9998C0.492406 24.8498 0.150004 24.5087 0 23.9752ZM19.5847 22.4908C19.5847 22.391 19.5847 22.3036 19.5847 22.2162C19.5847 15.9747 19.5847 9.73326 19.5847 3.49111C19.5847 2.80631 19.2736 2.49782 18.5816 2.49782C14.5283 2.49782 10.4749 2.49782 6.42215 2.49782C5.72952 2.49782 5.41907 2.80501 5.41907 3.49111C5.41907 9.7326 5.41907 15.9741 5.41907 22.2162C5.41907 22.3036 5.41907 22.391 5.41907 22.4849C6.95956 22.4849 8.4746 22.4849 10.0053 22.4849C10.0053 22.3682 10.0053 22.271 10.0053 22.1745C10.0053 20.6445 10.004 19.1144 10.006 17.585C10.0073 16.7704 10.5173 16.2591 11.3293 16.2558C12.0943 16.2532 12.8593 16.2545 13.6243 16.2552C14.5028 16.2565 14.9972 16.7515 14.9978 17.6326C14.9991 19.1542 14.9978 20.6764 14.9978 22.198C14.9978 22.2925 14.9978 22.3871 14.9978 22.4915C16.5403 22.4908 18.0495 22.4908 19.5847 22.4908ZM4.57253 7.50406C4.47013 7.50406 4.38209 7.50406 4.29469 7.50406C3.61902 7.50406 2.944 7.50341 2.26833 7.50406C1.78049 7.50471 1.66374 7.62145 1.66374 8.10734C1.66374 12.8103 1.66374 17.5133 1.66374 22.2169C1.66374 22.3036 1.66374 22.391 1.66374 22.4908C2.64725 22.4908 3.60272 22.4908 4.57253 22.4908C4.57253 17.5015 4.57253 12.5253 4.57253 7.50406ZM23.3394 22.4902C23.3394 22.3812 23.3394 22.286 23.3394 22.1908C23.3394 19.1314 23.3394 16.0719 23.3394 13.0125C23.3394 11.3605 23.34 9.70912 23.3394 8.05712C23.3394 7.63906 23.2044 7.50602 22.7824 7.50406C22.3591 7.5021 21.9359 7.50341 21.5126 7.50341C21.1565 7.50341 20.8004 7.50341 20.4313 7.50341C20.4313 12.5129 20.4313 17.4957 20.4313 22.4895C21.4011 22.4902 22.3565 22.4902 23.3394 22.4902ZM12.4999 23.3367C8.83787 23.3367 5.17581 23.3367 1.51309 23.3367C1.43156 23.3367 1.35004 23.3341 1.26917 23.338C1.01547 23.3491 0.840025 23.5121 0.834155 23.7398C0.827633 23.9739 1.0096 24.1526 1.27178 24.1676C1.32852 24.1709 1.38591 24.1682 1.44265 24.1682C8.8157 24.1682 16.1894 24.1682 23.5624 24.1682C23.959 24.1682 24.1605 24.0326 24.169 23.7613C24.1775 23.4795 23.9727 23.3367 23.5598 23.3367C19.8736 23.3361 16.1868 23.3367 12.4999 23.3367ZM14.1513 22.4908C14.1565 22.4328 14.165 22.3858 14.165 22.3388C14.1656 20.7442 14.1669 19.1496 14.1643 17.5557C14.1637 17.2348 14.0085 17.0887 13.6758 17.0874C12.9193 17.0848 12.1628 17.0861 11.4056 17.0867C10.9621 17.0867 10.8375 17.21 10.8368 17.647C10.8362 19.1764 10.8362 20.7058 10.8368 22.2351C10.8368 22.3206 10.844 22.406 10.8479 22.4908C11.9651 22.4908 13.0523 22.4908 14.1513 22.4908ZM7.08282 1.64606C10.711 1.64606 14.3098 1.64606 17.9203 1.64606C17.9203 1.52997 17.9216 1.43344 17.9203 1.33627C17.9151 0.985386 17.7644 0.834078 17.4083 0.833426C14.1369 0.832121 10.8655 0.832121 7.59479 0.833426C7.23869 0.833426 7.08869 0.985387 7.08347 1.33561C7.08151 1.43279 7.08282 1.52997 7.08282 1.64606Z" fill="#2BB673"/>
<path d="M6.67073 13.7483C6.67073 13.4718 6.66225 13.1953 6.67269 12.9194C6.6903 12.4341 7.00139 12.1041 7.48467 12.0898C8.05273 12.0722 8.62274 12.0722 9.19146 12.0904C9.66886 12.1061 9.993 12.4465 10.0021 12.9252C10.0132 13.4777 10.0139 14.0307 10.0015 14.5831C9.99039 15.0664 9.64799 15.4068 9.16146 15.4179C8.60905 15.431 8.05599 15.4316 7.50358 15.4179C7.01443 15.4055 6.68964 15.069 6.67269 14.5773C6.6629 14.3007 6.67073 14.0242 6.67073 13.7483ZM7.52184 12.9363C7.52184 13.4881 7.52184 14.0255 7.52184 14.5688C8.07751 14.5688 8.61557 14.5688 9.15885 14.5688C9.15885 14.017 9.15885 13.4855 9.15885 12.9363C8.61361 12.9363 8.08142 12.9363 7.52184 12.9363Z" fill="#2BB673"/>
<path d="M18.3334 13.7411C18.3334 14.0092 18.3392 14.2779 18.3321 14.5459C18.3184 15.0775 17.9858 15.4121 17.4575 15.4199C16.9292 15.4271 16.4009 15.4284 15.8726 15.4199C15.3483 15.4114 15.0059 15.0644 15 14.5407C14.9935 14.0125 14.9935 13.4842 15 12.9559C15.0065 12.4407 15.3372 12.0989 15.8544 12.0872C16.399 12.0748 16.9435 12.0741 17.4881 12.0872C17.9994 12.0996 18.3158 12.4263 18.3321 12.9376C18.3405 13.205 18.3334 13.4731 18.3334 13.7411ZM17.4855 12.9357C16.9227 12.9357 16.3905 12.9357 15.8498 12.9357C15.8498 13.49 15.8498 14.0275 15.8498 14.5675C16.4055 14.5675 16.9429 14.5675 17.4855 14.5675C17.4855 14.0151 17.4855 13.4829 17.4855 12.9357Z" fill="#2BB673"/>
<path d="M14.1654 13.7457C14.1654 14.0138 14.1686 14.2818 14.1647 14.5505C14.1576 15.0618 13.8236 15.4088 13.311 15.4186C12.7664 15.429 12.2218 15.4303 11.6773 15.4179C11.1777 15.4068 10.8431 15.0573 10.8385 14.5603C10.834 14.0157 10.8333 13.4711 10.8392 12.9272C10.8444 12.4602 11.1536 12.1113 11.6192 12.0937C12.2036 12.0709 12.7899 12.0715 13.3743 12.0924C13.851 12.1094 14.1576 12.4596 14.1647 12.9416C14.1686 13.2096 14.1654 13.4777 14.1654 13.7457ZM13.3221 12.9389C12.7638 12.9389 12.2251 12.9389 11.6812 12.9389C11.6812 13.492 11.6812 14.0255 11.6812 14.5733C12.2323 14.5733 12.771 14.5733 13.3221 14.5733C13.3221 14.0255 13.3221 13.492 13.3221 12.9389Z" fill="#2BB673"/>
<path d="M8.33743 3.75544C8.61396 3.75544 8.89049 3.75087 9.16636 3.75674C9.6366 3.76653 9.98683 4.09523 9.99922 4.56807C10.0142 5.13678 10.0155 5.70615 9.99856 6.27421C9.98487 6.74444 9.63008 7.07576 9.15984 7.08097C8.60744 7.08749 8.05438 7.08815 7.50197 7.08097C7.03826 7.0751 6.69064 6.75422 6.67694 6.29247C6.65933 5.70811 6.65868 5.12244 6.6776 4.53742C6.6926 4.07567 7.03891 3.76522 7.50849 3.75609C7.78502 3.75087 8.06155 3.75479 8.33743 3.75544ZM7.51697 6.23312C8.06286 6.23312 8.60809 6.23312 9.15137 6.23312C9.15137 5.6768 9.15137 5.13809 9.15137 4.60068C8.597 4.60068 8.06351 4.60068 7.51697 4.60068C7.51697 5.14787 7.51697 5.68137 7.51697 6.23312Z" fill="#2BB673"/>
<path d="M16.6634 3.75519C16.9478 3.75519 17.2328 3.74932 17.5165 3.7565C17.9678 3.76823 18.3096 4.08194 18.3246 4.53456C18.3435 5.11893 18.3435 5.7046 18.3252 6.28896C18.3109 6.75267 17.9652 7.07355 17.5015 7.07942C16.9491 7.08659 16.396 7.08594 15.8436 7.07942C15.3727 7.0742 15.0173 6.74289 15.0036 6.27396C14.9873 5.7059 14.9886 5.13588 15.0023 4.56782C15.014 4.09629 15.3649 3.76497 15.8338 3.75519C16.1104 3.75063 16.3869 3.75519 16.6634 3.75519ZM15.8443 4.59717C15.8443 5.15871 15.8443 5.69155 15.8443 6.23744C16.3967 6.23744 16.9361 6.23744 17.4819 6.23744C17.4819 5.68503 17.4819 5.14567 17.4819 4.59717C16.9308 4.59717 16.3973 4.59717 15.8443 4.59717Z" fill="#2BB673"/>
<path d="M10.8381 5.40543C10.8381 5.1289 10.8329 4.85237 10.8394 4.57649C10.8505 4.10691 11.1896 3.76386 11.6598 3.75733C12.2207 3.74951 12.7816 3.74951 13.3425 3.75733C13.8127 3.76386 14.1564 4.10691 14.163 4.57649C14.1708 5.13738 14.1708 5.69826 14.163 6.2585C14.1564 6.72612 13.8095 7.07374 13.3425 7.08026C12.7816 7.08809 12.2207 7.08809 11.6598 7.08026C11.1929 7.07374 10.8498 6.72547 10.8387 6.2585C10.8329 5.97479 10.8381 5.68978 10.8381 5.40543ZM11.6814 6.23371C12.2403 6.23371 12.7803 6.23371 13.3145 6.23371C13.3145 5.67674 13.3145 5.13672 13.3145 4.59997C12.7607 4.59997 12.2266 4.59997 11.6814 4.59997C11.6814 5.14716 11.6814 5.68131 11.6814 6.23371Z" fill="#2BB673"/>
<path d="M14.165 9.59437C14.165 9.8709 14.1702 10.1468 14.1637 10.4233C14.1526 10.8851 13.8285 11.2294 13.368 11.2412C12.7915 11.2555 12.2136 11.2555 11.6371 11.2412C11.1753 11.2301 10.846 10.8864 10.8401 10.4259C10.8323 9.86503 10.8329 9.30414 10.8401 8.74391C10.846 8.28802 11.1792 7.93323 11.6351 7.92019C12.2117 7.90388 12.7895 7.90454 13.366 7.92019C13.8219 7.93258 14.1532 8.28607 14.1643 8.7413C14.1702 9.02566 14.165 9.31001 14.165 9.59437ZM13.321 10.4024C13.321 9.83959 13.321 9.30675 13.321 8.76217C12.7693 8.76217 12.2299 8.76217 11.6866 8.76217C11.6866 9.31719 11.6866 9.8572 11.6866 10.4024C12.2364 10.4024 12.7706 10.4024 13.321 10.4024Z" fill="#2BB673"/>
<path d="M8.33514 11.2463C8.05861 11.2463 7.78208 11.2535 7.50621 11.245C7.02097 11.23 6.6877 10.9169 6.67531 10.4369C6.66031 9.8682 6.66031 9.29884 6.67531 8.73078C6.6877 8.25533 7.02945 7.92597 7.5049 7.91749C8.05731 7.90771 8.61037 7.90771 9.16278 7.91749C9.64344 7.92597 9.99041 8.27033 10.0008 8.75361C10.0126 9.30601 10.0126 9.85907 10.0008 10.4115C9.99041 10.8987 9.65127 11.2293 9.16343 11.2443C8.8882 11.2528 8.61167 11.2463 8.33514 11.2463ZM9.15952 8.76143C8.59798 8.76143 8.06514 8.76143 7.52055 8.76143C7.52055 9.31384 7.52055 9.8519 7.52055 10.3945C8.07492 10.3945 8.61298 10.3945 9.15952 10.3945C9.15952 9.84342 9.15952 9.31123 9.15952 8.76143Z" fill="#2BB673"/>
<path d="M16.6595 11.2456C16.383 11.2456 16.1065 11.2535 15.8306 11.2437C15.3545 11.2274 15.014 10.9013 15.0023 10.4278C14.9886 9.86755 14.9893 9.30601 15.0016 8.74578C15.0127 8.26511 15.3643 7.92467 15.8475 7.91684C16.3921 7.90836 16.9367 7.90901 17.4813 7.91619C17.9717 7.92336 18.3154 8.25011 18.3285 8.73795C18.3435 9.29819 18.3428 9.85972 18.3298 10.42C18.318 10.9143 17.9861 11.2306 17.4891 11.245C17.2132 11.2528 16.9367 11.2463 16.6602 11.2463C16.6595 11.2463 16.6595 11.2463 16.6595 11.2456ZM17.4852 8.76208C16.9204 8.76208 16.3882 8.76208 15.8482 8.76208C15.8482 9.3158 15.8482 9.85451 15.8482 10.3932C16.4045 10.3932 16.9432 10.3932 17.4852 10.3932C17.4852 9.84146 17.4852 9.30927 17.4852 8.76208Z" fill="#2BB673"/>
</svg>
