<svg width="26" height="26" viewBox="0 0 26 26" fill="none" xmlns="http://www.w3.org/2000/svg">
<path d="M8 12.25C7.58579 12.25 7.25 12.5858 7.25 13C7.25 13.4142 7.58579 13.75 8 13.75V12.25ZM13 13.75C13.4142 13.75 13.75 13.4142 13.75 13C13.75 12.5858 13.4142 12.25 13 12.25V13.75ZM13 12.25C12.5858 12.25 12.25 12.5858 12.25 13C12.25 13.4142 12.5858 13.75 13 13.75V12.25ZM18 13.75C18.4142 13.75 18.75 13.4142 18.75 13C18.75 12.5858 18.4142 12.25 18 12.25V13.75ZM13.75 13C13.75 12.5858 13.4142 12.25 13 12.25C12.5858 12.25 12.25 12.5858 12.25 13H13.75ZM12.25 18C12.25 18.4142 12.5858 18.75 13 18.75C13.4142 18.75 13.75 18.4142 13.75 18H12.25ZM12.25 13C12.25 13.4142 12.5858 13.75 13 13.75C13.4142 13.75 13.75 13.4142 13.75 13H12.25ZM13.75 8C13.75 7.58579 13.4142 7.25 13 7.25C12.5858 7.25 12.25 7.58579 12.25 8H13.75ZM8 13.75H13V12.25H8V13.75ZM13 13.75H18V12.25H13V13.75ZM13 13H12.25V13.001C12.25 13.0011 12.25 13.0022 12.25 13.0022C12.25 13.0021 12.25 13.0023 12.25 13.0022C12.25 13.0022 12.25 13.0033 12.25 13.0034C12.25 13.0033 12.25 13.0035 12.25 13.0034C12.25 13.0035 12.25 13.0043 12.25 13.0044C12.25 13.0045 12.25 13.0054 12.25 13.0055C12.25 13.0056 12.25 13.0064 12.25 13.0065C12.25 13.0066 12.25 13.0075 12.25 13.0077C12.25 13.0078 12.25 13.0087 12.25 13.0089C12.25 13.009 12.25 13.0101 12.25 13.0102C12.25 13.01 12.25 13.0104 12.25 13.0102C12.25 13.0104 12.25 13.011 12.25 13.0112C12.25 13.011 12.25 13.0114 12.25 13.0112C12.25 13.0114 12.25 13.0121 12.25 13.0122C12.25 13.012 12.25 13.0124 12.25 13.0122C12.25 13.0124 12.25 13.0131 12.25 13.0133C12.25 13.0131 12.25 13.0135 12.25 13.0133C12.25 13.0135 12.25 13.0143 12.25 13.0145C12.25 13.0143 12.25 13.0147 12.25 13.0145C12.25 13.0147 12.25 13.0155 12.25 13.0157C12.25 13.0154 12.25 13.0159 12.25 13.0157C12.25 13.0159 12.25 13.0168 12.25 13.017C12.25 13.0168 12.25 13.0172 12.25 13.017C12.25 13.0172 12.25 13.0181 12.25 13.0184C12.25 13.0181 12.25 13.0186 12.25 13.0184C12.25 13.0186 12.25 13.0196 12.25 13.0198C12.25 13.0196 12.25 13.02 12.25 13.0198C12.25 13.0201 12.25 13.021 12.25 13.0213C12.25 13.021 12.25 13.0216 12.25 13.0213C12.25 13.0215 12.25 13.0226 12.25 13.0229C12.25 13.0226 12.25 13.0231 12.25 13.0229C12.25 13.0232 12.25 13.0242 12.25 13.0245C12.25 13.0242 12.25 13.0248 12.25 13.0245C12.25 13.0248 12.25 13.026 12.25 13.0263C12.25 13.026 12.25 13.0266 12.25 13.0263C12.25 13.0266 12.25 13.0278 12.25 13.0281C12.25 13.0278 12.25 13.0284 12.25 13.0281C12.25 13.0284 12.25 13.0296 12.25 13.03C12.25 13.0297 12.25 13.0303 12.25 13.03C12.25 13.0304 12.25 13.0316 12.25 13.0319C12.25 13.0323 12.25 13.0326 12.25 13.033C12.25 13.0333 12.25 13.0336 12.25 13.034C12.25 13.0344 12.25 13.0347 12.25 13.0351C12.25 13.0354 12.25 13.0358 12.25 13.0361C12.25 13.0365 12.25 13.0369 12.25 13.0373C12.25 13.0376 12.25 13.038 12.25 13.0384C12.25 13.0388 12.25 13.0391 12.25 13.0395C12.25 13.0399 12.25 13.0403 12.25 13.0407C12.25 13.0411 12.25 13.0415 12.25 13.0419C12.25 13.0423 12.25 13.0427 12.25 13.0431C12.25 13.0435 12.25 13.044 12.25 13.0444C12.25 13.0448 12.25 13.0452 12.25 13.0456C12.25 13.0461 12.25 13.0465 12.25 13.0469C12.25 13.0474 12.25 13.0478 12.25 13.0482C12.25 13.0487 12.25 13.0491 12.25 13.0496C12.25 13.05 12.25 13.0505 12.25 13.0509C12.25 13.0514 12.25 13.0519 12.25 13.0523C12.25 13.0528 12.25 13.0533 12.25 13.0538C12.25 13.0542 12.25 13.0547 12.25 13.0552C12.25 13.0557 12.25 13.0562 12.25 13.0567C12.25 13.0571 12.25 13.0576 12.25 13.0581C12.25 13.0586 12.25 13.0592 12.25 13.0597C12.25 13.0602 12.25 13.0607 12.25 13.0612C12.25 13.0617 12.25 13.0622 12.25 13.0628C12.25 13.0633 12.25 13.0638 12.25 13.0644C12.25 13.0649 12.25 13.0655 12.25 13.066C12.25 13.0665 12.25 13.0671 12.25 13.0676C12.25 13.0682 12.25 13.0688 12.25 13.0693C12.25 13.0699 12.25 13.0705 12.25 13.071C12.25 13.0716 12.25 13.0722 12.25 13.0728C12.25 13.0733 12.25 13.0739 12.25 13.0745C12.25 13.0751 12.25 13.0757 12.25 13.0763C12.25 13.0769 12.25 13.0775 12.25 13.0781C12.25 13.0787 12.25 13.0794 12.25 13.08C12.25 13.0806 12.25 13.0812 12.25 13.0818C12.25 13.0825 12.25 13.0831 12.25 13.0837C12.25 13.0844 12.25 13.085 12.25 13.0857C12.25 13.0863 12.25 13.087 12.25 13.0876C12.25 13.0883 12.25 13.089 12.25 13.0896C12.25 13.0903 12.25 13.091 12.25 13.0917C12.25 13.0923 12.25 13.093 12.25 13.0937C12.25 13.0944 12.25 13.0951 12.25 13.0958C12.25 13.0965 12.25 13.0972 12.25 13.0979C12.25 13.0986 12.25 13.0993 12.25 13.1C12.25 13.1008 12.25 13.1015 12.25 13.1022C12.25 13.103 12.25 13.1037 12.25 13.1044C12.25 13.1052 12.25 13.1059 12.25 13.1067C12.25 13.1074 12.25 13.1082 12.25 13.1089C12.25 13.1097 12.25 13.1105 12.25 13.1112C12.25 13.112 12.25 13.1128 12.25 13.1136C12.25 13.1144 12.25 13.1151 12.25 13.1159C12.25 13.1167 12.25 13.1175 12.25 13.1183C12.25 13.1191 12.25 13.12 12.25 13.1208C12.25 13.1216 12.25 13.1224 12.25 13.1232C12.25 13.1241 12.25 13.1249 12.25 13.1257C12.25 13.1266 12.25 13.1274 12.25 13.1283C12.25 13.1291 12.25 13.13 12.25 13.1308C12.25 13.1317 12.25 13.1326 12.25 13.1334C12.25 13.1343 12.25 13.1352 12.25 13.1361C12.25 13.1369 12.25 13.1378 12.25 13.1387C12.25 13.1396 12.25 13.1405 12.25 13.1414C12.25 13.1423 12.25 13.1432 12.25 13.1442C12.25 13.1451 12.25 13.146 12.25 13.1469C12.25 13.1479 12.25 13.1488 12.25 13.1497C12.25 13.1507 12.25 13.1516 12.25 13.1526C12.25 13.1535 12.25 13.1545 12.25 13.1555C12.25 13.1564 12.25 13.1574 12.25 13.1584C12.25 13.1594 12.25 13.1603 12.25 13.1613C12.25 13.1623 12.25 13.1633 12.25 13.1643C12.25 13.1653 12.25 13.1663 12.25 13.1673C12.25 13.1684 12.25 13.1694 12.25 13.1704C12.25 13.1714 12.25 13.1725 12.25 13.1735C12.25 13.1745 12.25 13.1756 12.25 13.1766C12.25 13.1777 12.25 13.1787 12.25 13.1798C12.25 13.1809 12.25 13.1819 12.25 13.183C12.25 13.1841 12.25 13.1852 12.25 13.1863C12.25 13.1874 12.25 13.1885 12.25 13.1896C12.25 13.1907 12.25 13.1918 12.25 13.1929C12.25 13.194 12.25 13.1951 12.25 13.1962C12.25 13.1974 12.25 13.1985 12.25 13.1997C12.25 13.2008 12.25 13.2019 12.25 13.2031C12.25 13.2042 12.25 13.2054 12.25 13.2066C12.25 13.2077 12.25 13.2089 12.25 13.2101C12.25 13.2113 12.25 13.2125 12.25 13.2137C12.25 13.2149 12.25 13.2161 12.25 13.2173C12.25 13.2185 12.25 13.2197 12.25 13.2209C12.25 13.2221 12.25 13.2233 12.25 13.2246C12.25 13.2258 12.25 13.2271 12.25 13.2283C12.25 13.2296 12.25 13.2308 12.25 13.2321C12.25 13.2333 12.25 13.2346 12.25 13.2359C12.25 13.2371 12.25 13.2384 12.25 13.2397C12.25 13.241 12.25 13.2423 12.25 13.2436C12.25 13.2449 12.25 13.2462 12.25 13.2475C12.25 13.2488 12.25 13.2502 12.25 13.2515C12.25 13.2528 12.25 13.2542 12.25 13.2555C12.25 13.2569 12.25 13.2582 12.25 13.2596C12.25 13.2609 12.25 13.2623 12.25 13.2637C12.25 13.265 12.25 13.2664 12.25 13.2678C12.25 13.2692 12.25 13.2706 12.25 13.272C12.25 13.2734 12.25 13.2748 12.25 13.2762C12.25 13.2776 12.25 13.2791 12.25 13.2805C12.25 13.2819 12.25 13.2834 12.25 13.2848C12.25 13.2863 12.25 13.2877 12.25 13.2892C12.25 13.2906 12.25 13.2921 12.25 13.2936C12.25 13.2951 12.25 13.2965 12.25 13.298C12.25 13.2995 12.25 13.301 12.25 13.3025C12.25 13.304 12.25 13.3055 12.25 13.3071C12.25 13.3086 12.25 13.3101 12.25 13.3116C12.25 13.3132 12.25 13.3147 12.25 13.3163C12.25 13.3178 12.25 13.3194 12.25 13.3209C12.25 13.3225 12.25 13.3241 12.25 13.3257C12.25 13.3272 12.25 13.3288 12.25 13.3304C12.25 13.332 12.25 13.3336 12.25 13.3352C12.25 13.3368 12.25 13.3385 12.25 13.3401C12.25 13.3417 12.25 13.3434 12.25 13.345C12.25 13.3466 12.25 13.3483 12.25 13.35C12.25 13.3516 12.25 13.3533 12.25 13.355C12.25 13.3566 12.25 13.3583 12.25 13.36C12.25 13.3617 12.25 13.3634 12.25 13.3651C12.25 13.3668 12.25 13.3685 12.25 13.3702C12.25 13.372 12.25 13.3737 12.25 13.3754C12.25 13.3772 12.25 13.3789 12.25 13.3807C12.25 13.3824 12.25 13.3842 12.25 13.3859C12.25 13.3877 12.25 13.3895 12.25 13.3913C12.25 13.3931 12.25 13.3949 12.25 13.3967C12.25 13.3985 12.25 13.4003 12.25 13.4021C12.25 13.4039 12.25 13.4057 12.25 13.4076C12.25 13.4094 12.25 13.4113 12.25 13.4131C12.25 13.415 12.25 13.4168 12.25 13.4187C12.25 13.4206 12.25 13.4224 12.25 13.4243C12.25 13.4262 12.25 13.4281 12.25 13.43C12.25 13.4319 12.25 13.4338 12.25 13.4358C12.25 13.4377 12.25 13.4396 12.25 13.4415C12.25 13.4435 12.25 13.4454 12.25 13.4474C12.25 13.4493 12.25 13.4513 12.25 13.4533C12.25 13.4552 12.25 13.4572 12.25 13.4592C12.25 13.4612 12.25 13.4632 12.25 13.4652C12.25 13.4672 12.25 13.4692 12.25 13.4712C12.25 13.4732 12.25 13.4753 12.25 13.4773C12.25 13.4794 12.25 13.4814 12.25 13.4835C12.25 13.4855 12.25 13.4876 12.25 13.4897C12.25 13.4917 12.25 13.4938 12.25 13.4959C12.25 13.498 12.25 13.5001 12.25 13.5022C12.25 13.5043 12.25 13.5064 12.25 13.5086C12.25 13.5107 12.25 13.5128 12.25 13.515C12.25 13.5171 12.25 13.5193 12.25 13.5214C12.25 13.5236 12.25 13.5258 12.25 13.528C12.25 13.5301 12.25 13.5323 12.25 13.5345C12.25 13.5367 12.25 13.5389 12.25 13.5412C12.25 13.5434 12.25 13.5456 12.25 13.5478C12.25 13.5501 12.25 13.5523 12.25 13.5546C12.25 13.5568 12.25 13.5591 12.25 13.5614C12.25 13.5636 12.25 13.5659 12.25 13.5682C12.25 13.5705 12.25 13.5728 12.25 13.5751C12.25 13.5774 12.25 13.5797 12.25 13.5821C12.25 13.5844 12.25 13.5867 12.25 13.5891C12.25 13.5914 12.25 13.5938 12.25 13.5962C12.25 13.5985 12.25 13.6009 12.25 13.6033C12.25 13.6057 12.25 13.6081 12.25 13.6105C12.25 13.6129 12.25 13.6153 12.25 13.6177C12.25 13.6201 12.25 13.6226 12.25 13.625C12.25 13.6274 12.25 13.6299 12.25 13.6324C12.25 13.6348 12.25 13.6373 12.25 13.6398C12.25 13.6422 12.25 13.6447 12.25 13.6472C12.25 13.6497 12.25 13.6522 12.25 13.6548C12.25 13.6573 12.25 13.6598 12.25 13.6623C12.25 13.6649 12.25 13.6674 12.25 13.67C12.25 13.6725 12.25 13.6751 12.25 13.6777C12.25 13.6803 12.25 13.6828 12.25 13.6854C12.25 13.688 12.25 13.6906 12.25 13.6933C12.25 13.6959 12.25 13.6985 12.25 13.7011C12.25 13.7038 12.25 13.7064 12.25 13.7091C12.25 13.7117 12.25 13.7144 12.25 13.7171C12.25 13.7198 12.25 13.7224 12.25 13.7251C12.25 13.7278 12.25 13.7305 12.25 13.7332C12.25 13.736 12.25 13.7387 12.25 13.7414C12.25 13.7442 12.25 13.7469 12.25 13.7497C12.25 13.7524 12.25 13.7552 12.25 13.758C12.25 13.7607 12.25 13.7635 12.25 13.7663C12.25 13.7691 12.25 13.7719 12.25 13.7747C12.25 13.7776 12.25 13.7804 12.25 13.7832C12.25 13.7861 12.25 13.7889 12.25 13.7918C12.25 13.7946 12.25 13.7975 12.25 13.8004C12.25 13.8033 12.25 13.8061 12.25 13.809C12.25 13.8119 12.25 13.8149 12.25 13.8178C12.25 13.8207 12.25 13.8236 12.25 13.8266C12.25 13.8295 12.25 13.8325 12.25 13.8354C12.25 13.8384 12.25 13.8414 12.25 13.8443C12.25 13.8473 12.25 13.8503 12.25 13.8533C12.25 13.8563 12.25 13.8593 12.25 13.8624C12.25 13.8654 12.25 13.8684 12.25 13.8715C12.25 13.8745 12.25 13.8776 12.25 13.8807C12.25 13.8837 12.25 13.8868 12.25 13.8899C12.25 13.893 12.25 13.8961 12.25 13.8992C12.25 13.9023 12.25 13.9054 12.25 13.9086C12.25 13.9117 12.25 13.9148 12.25 13.918C12.25 13.9211 12.25 13.9243 12.25 13.9275C12.25 13.9307 12.25 13.9339 12.25 13.9371C12.25 13.9402 12.25 13.9435 12.25 13.9467C12.25 13.9499 12.25 13.9531 12.25 13.9564C12.25 13.9596 12.25 13.9629 12.25 13.9661C12.25 13.9694 12.25 13.9727 12.25 13.976C12.25 13.9792 12.25 13.9825 12.25 13.9858C12.25 13.9892 12.25 13.9925 12.25 13.9958C12.25 13.9991 12.25 14.0025 12.25 14.0058C12.25 14.0092 12.25 14.0125 12.25 14.0159C12.25 14.0193 12.25 14.0227 12.25 14.0261C12.25 14.0295 12.25 14.0329 12.25 14.0363C12.25 14.0397 12.25 14.0432 12.25 14.0466C12.25 14.05 12.25 14.0535 12.25 14.057C12.25 14.0604 12.25 14.0639 12.25 14.0674C12.25 14.0709 12.25 14.0744 12.25 14.0779C12.25 14.0814 12.25 14.0849 12.25 14.0885C12.25 14.092 12.25 14.0955 12.25 14.0991C12.25 14.1027 12.25 14.1062 12.25 14.1098C12.25 14.1134 12.25 14.117 12.25 14.1206C12.25 14.1242 12.25 14.1278 12.25 14.1314C12.25 14.135 12.25 14.1387 12.25 14.1423C12.25 14.146 12.25 14.1496 12.25 14.1533C12.25 14.157 12.25 14.1607 12.25 14.1644C12.25 14.1681 12.25 14.1718 12.25 14.1755C12.25 14.1792 12.25 14.1829 12.25 14.1867C12.25 14.1904 12.25 14.1942 12.25 14.198C12.25 14.2017 12.25 14.2055 12.25 14.2093C12.25 14.2131 12.25 14.2169 12.25 14.2207C12.25 14.2245 12.25 14.2283 12.25 14.2322C12.25 14.236 12.25 14.2399 12.25 14.2437C12.25 14.2476 12.25 14.2515 12.25 14.2554C12.25 14.2592 12.25 14.2631 12.25 14.2671C12.25 14.271 12.25 14.2749 12.25 14.2788C12.25 14.2828 12.25 14.2867 12.25 14.2907C12.25 14.2946 12.25 14.2986 12.25 14.3026C12.25 14.3066 12.25 14.3106 12.25 14.3146C12.25 14.3186 12.25 14.3226 12.25 14.3266C12.25 14.3307 12.25 14.3347 12.25 14.3388C12.25 14.3428 12.25 14.3469 12.25 14.351C12.25 14.355 12.25 14.3591 12.25 14.3632C12.25 14.3674 12.25 14.3715 12.25 14.3756C12.25 14.3797 12.25 14.3839 12.25 14.388C12.25 14.3922 12.25 14.3964 12.25 14.4005C12.25 14.4047 12.25 14.4089 12.25 14.4131C12.25 14.4173 12.25 14.4215 12.25 14.4258C12.25 14.43 12.25 14.4342 12.25 14.4385C12.25 14.4428 12.25 14.447 12.25 14.4513C12.25 14.4556 12.25 14.4599 12.25 14.4642C12.25 14.4685 12.25 14.4728 12.25 14.4771C12.25 14.4815 12.25 14.4858 12.25 14.4902C12.25 14.4945 12.25 14.4989 12.25 14.5033C12.25 14.5077 12.25 14.5121 12.25 14.5165C12.25 14.5209 12.25 14.5253 12.25 14.5297C12.25 14.5342 12.25 14.5386 12.25 14.5431C12.25 14.5475 12.25 14.552 12.25 14.5565C12.25 14.561 12.25 14.5655 12.25 14.57C12.25 14.5745 12.25 14.579 12.25 14.5836C12.25 14.5881 12.25 14.5927 12.25 14.5972C12.25 14.6018 12.25 14.6064 12.25 14.6109C12.25 14.6155 12.25 14.6201 12.25 14.6248C12.25 14.6294 12.25 14.634 12.25 14.6386C12.25 14.6433 12.25 14.6479 12.25 14.6526C12.25 14.6573 12.25 14.662 12.25 14.6667C12.25 14.6713 12.25 14.6761 12.25 14.6808C12.25 14.6855 12.25 14.6902 12.25 14.695C12.25 14.6997 12.25 14.7045 12.25 14.7093C12.25 14.714 12.25 14.7188 12.25 14.7236C12.25 14.7284 12.25 14.7332 12.25 14.7381C12.25 14.7429 12.25 14.7477 12.25 14.7526C12.25 14.7575 12.25 14.7623 12.25 14.7672C12.25 14.7721 12.25 14.777 12.25 14.7819C12.25 14.7868 12.25 14.7917 12.25 14.7967C12.25 14.8016 12.25 14.8065 12.25 14.8115C12.25 14.8165 12.25 14.8214 12.25 14.8264C12.25 14.8314 12.25 14.8364 12.25 14.8414C12.25 14.8465 12.25 14.8515 12.25 14.8565C12.25 14.8616 12.25 14.8666 12.25 14.8717C12.25 14.8768 12.25 14.8819 12.25 14.887C12.25 14.8921 12.25 14.8972 12.25 14.9023C12.25 14.9074 12.25 14.9126 12.25 14.9177C12.25 14.9229 12.25 14.9281 12.25 14.9332C12.25 14.9384 12.25 14.9436 12.25 14.9488C12.25 14.954 12.25 14.9593 12.25 14.9645C12.25 14.9697 12.25 14.975 12.25 14.9803C12.25 14.9855 12.25 14.9908 12.25 14.9961C12.25 15.0014 12.25 15.0067 12.25 15.012C12.25 15.0174 12.25 15.0227 12.25 15.028C12.25 15.0334 12.25 15.0388 12.25 15.0441C12.25 15.0495 12.25 15.0549 12.25 15.0603C12.25 15.0657 12.25 15.0712 12.25 15.0766C12.25 15.082 12.25 15.0875 12.25 15.0929C12.25 15.0984 12.25 15.1039 12.25 15.1094C12.25 15.1149 12.25 15.1204 12.25 15.1259C12.25 15.1314 12.25 15.137 12.25 15.1425C12.25 15.1481 12.25 15.1536 12.25 15.1592C12.25 15.1648 12.25 15.1704 12.25 15.176C12.25 15.1816 12.25 15.1872 12.25 15.1929C12.25 15.1985 12.25 15.2041 12.25 15.2098C12.25 15.2155 12.25 15.2212 12.25 15.2268C12.25 15.2325 12.25 15.2383 12.25 15.244C12.25 15.2497 12.25 15.2554 12.25 15.2612C12.25 15.2669 12.25 15.2727 12.25 15.2785C12.25 15.2843 12.25 15.2901 12.25 15.2959C12.25 15.3017 12.25 15.3075 12.25 15.3134C12.25 15.3192 12.25 15.3251 12.25 15.3309C12.25 15.3368 12.25 15.3427 12.25 15.3486C12.25 15.3545 12.25 15.3604 12.25 15.3663C12.25 15.3723 12.25 15.3782 12.25 15.3842C12.25 15.3901 12.25 15.3961 12.25 15.4021C12.25 15.4081 12.25 15.4141 12.25 15.4201C12.25 15.4261 12.25 15.4322 12.25 15.4382C12.25 15.4443 12.25 15.4503 12.25 15.4564C12.25 15.4625 12.25 15.4686 12.25 15.4747C12.25 15.4808 12.25 15.487 12.25 15.4931C12.25 15.4992 12.25 15.5054 12.25 15.5116C12.25 15.5177 12.25 15.5239 12.25 15.5301C12.25 15.5363 12.25 15.5425 12.25 15.5488C12.25 15.555 12.25 15.5612 12.25 15.5675C12.25 15.5738 12.25 15.58 12.25 15.5863C12.25 15.5926 12.25 15.5989 12.25 15.6053C12.25 15.6116 12.25 15.6179 12.25 15.6243C12.25 15.6306 12.25 15.637 12.25 15.6434C12.25 15.6498 12.25 15.6562 12.25 15.6626C12.25 15.669 12.25 15.6754 12.25 15.6819C12.25 15.6883 12.25 15.6948 12.25 15.7013C12.25 15.7077 12.25 15.7142 12.25 15.7208C12.25 15.7273 12.25 15.7338 12.25 15.7403C12.25 15.7469 12.25 15.7534 12.25 15.76C12.25 15.7666 12.25 15.7732 12.25 15.7798C12.25 15.7864 12.25 15.793 12.25 15.7996C12.25 15.8062 12.25 15.8129 12.25 15.8196C12.25 15.8262 12.25 15.8329 12.25 15.8396C12.25 15.8463 12.25 15.853 12.25 15.8597C12.25 15.8665 12.25 15.8732 12.25 15.88C12.25 15.8867 12.25 15.8935 12.25 15.9003C12.25 15.9071 12.25 15.9139 12.25 15.9207C12.25 15.9276 12.25 15.9344 12.25 15.9413C12.25 15.9481 12.25 15.955 12.25 15.9619C12.25 15.9688 12.25 15.9757 12.25 15.9826C12.25 15.9895 12.25 15.9964 12.25 16.0034C12.25 16.0103 12.25 16.0173 12.25 16.0243C12.25 16.0313 12.25 16.0383 12.25 16.0453C12.25 16.0523 12.25 16.0593 12.25 16.0664C12.25 16.0734 12.25 16.0805 12.25 16.0876C12.25 16.0947 12.25 16.1018 12.25 16.1089C12.25 16.116 12.25 16.1231 12.25 16.1303C12.25 16.1374 12.25 16.1446 12.25 16.1518C12.25 16.1589 12.25 16.1661 12.25 16.1734C12.25 16.1806 12.25 16.1878 12.25 16.195C12.25 16.2023 12.25 16.2095 12.25 16.2168C12.25 16.2241 12.25 16.2314 12.25 16.2387C12.25 16.246 12.25 16.2533 12.25 16.2607C12.25 16.268 12.25 16.2754 12.25 16.2828C12.25 16.2901 12.25 16.2975 12.25 16.3049C12.25 16.3124 12.25 16.3198 12.25 16.3272C12.25 16.3347 12.25 16.3421 12.25 16.3496C12.25 16.3571 12.25 16.3646 12.25 16.3721C12.25 16.3796 12.25 16.3871 12.25 16.3947C12.25 16.4022 12.25 16.4098 12.25 16.4174C12.25 16.4249 12.25 16.4325 12.25 16.4401C12.25 16.4477 12.25 16.4554 12.25 16.463C12.25 16.4707 12.25 16.4783 12.25 16.486C12.25 16.4937 12.25 16.5014 12.25 16.5091C12.25 16.5168 12.25 16.5245 12.25 16.5323C12.25 16.54 12.25 16.5478 12.25 16.5556C12.25 16.5633 12.25 16.5711 12.25 16.579C12.25 16.5868 12.25 16.5946 12.25 16.6025C12.25 16.6103 12.25 16.6182 12.25 16.626C12.25 16.6339 12.25 16.6418 12.25 16.6497C12.25 16.6577 12.25 16.6656 12.25 16.6736C12.25 16.6815 12.25 16.6895 12.25 16.6975C12.25 16.7054 12.25 16.7134 12.25 16.7215C12.25 16.7295 12.25 16.7375 12.25 16.7456C12.25 16.7536 12.25 16.7617 12.25 16.7698C12.25 16.7779 12.25 16.786 12.25 16.7941C12.25 16.8022 12.25 16.8104 12.25 16.8185C12.25 16.8267 12.25 16.8349 12.25 16.8431C12.25 16.8513 12.25 16.8595 12.25 16.8677C12.25 16.8759 12.25 16.8842 12.25 16.8924C12.25 16.9007 12.25 16.909 12.25 16.9173C12.25 16.9256 12.25 16.9339 12.25 16.9422C12.25 16.9506 12.25 16.9589 12.25 16.9673C12.25 16.9757 12.25 16.9841 12.25 16.9925C12.25 17.0009 12.25 17.0093 12.25 17.0177C12.25 17.0262 12.25 17.0346 12.25 17.0431C12.25 17.0516 12.25 17.0601 12.25 17.0686C12.25 17.0771 12.25 17.0856 12.25 17.0942C12.25 17.1027 12.25 17.1113 12.25 17.1199C12.25 17.1285 12.25 17.1371 12.25 17.1457C12.25 17.1543 12.25 17.1629 12.25 17.1716C12.25 17.1802 12.25 17.1889 12.25 17.1976C12.25 17.2063 12.25 17.215 12.25 17.2237C12.25 17.2325 12.25 17.2412 12.25 17.25C12.25 17.2587 12.25 17.2675 12.25 17.2763C12.25 17.2851 12.25 17.2939 12.25 17.3028C12.25 17.3116 12.25 17.3204 12.25 17.3293C12.25 17.3382 12.25 17.3471 12.25 17.356C12.25 17.3649 12.25 17.3738 12.25 17.3828C12.25 17.3917 12.25 17.4007 12.25 17.4097C12.25 17.4186 12.25 17.4276 12.25 17.4367C12.25 17.4457 12.25 17.4547 12.25 17.4638C12.25 17.4728 12.25 17.4819 12.25 17.491C12.25 17.5001 12.25 17.5092 12.25 17.5183C12.25 17.5274 12.25 17.5366 12.25 17.5457C12.25 17.5549 12.25 17.5641 12.25 17.5733C12.25 17.5825 12.25 17.5917 12.25 17.601C12.25 17.6102 12.25 17.6195 12.25 17.6287C12.25 17.638 12.25 17.6473 12.25 17.6566C12.25 17.6659 12.25 17.6753 12.25 17.6846C12.25 17.694 12.25 17.7033 12.25 17.7127C12.25 17.7221 12.25 17.7315 12.25 17.7409C12.25 17.7504 12.25 17.7598 12.25 17.7693C12.25 17.7787 12.25 17.7882 12.25 17.7977C12.25 17.8072 12.25 17.8167 12.25 17.8263C12.25 17.8358 12.25 17.8454 12.25 17.8549C12.25 17.8645 12.25 17.8741 12.25 17.8837C12.25 17.8933 12.25 17.903 12.25 17.9126C12.25 17.9223 12.25 17.9319 12.25 17.9416C12.25 17.9513 12.25 17.961 12.25 17.9708C12.25 17.9805 12.25 17.9902 12.25 18H13.75C13.75 17.9902 13.75 17.9805 13.75 17.9708C13.75 17.961 13.75 17.9513 13.75 17.9416C13.75 17.9319 13.75 17.9223 13.75 17.9126C13.75 17.903 13.75 17.8933 13.75 17.8837C13.75 17.8741 13.75 17.8645 13.75 17.8549C13.75 17.8454 13.75 17.8358 13.75 17.8263C13.75 17.8167 13.75 17.8072 13.75 17.7977C13.75 17.7882 13.75 17.7787 13.75 17.7693C13.75 17.7598 13.75 17.7504 13.75 17.7409C13.75 17.7315 13.75 17.7221 13.75 17.7127C13.75 17.7033 13.75 17.694 13.75 17.6846C13.75 17.6753 13.75 17.6659 13.75 17.6566C13.75 17.6473 13.75 17.638 13.75 17.6287C13.75 17.6195 13.75 17.6102 13.75 17.601C13.75 17.5917 13.75 17.5825 13.75 17.5733C13.75 17.5641 13.75 17.5549 13.75 17.5457C13.75 17.5366 13.75 17.5274 13.75 17.5183C13.75 17.5092 13.75 17.5001 13.75 17.491C13.75 17.4819 13.75 17.4728 13.75 17.4638C13.75 17.4547 13.75 17.4457 13.75 17.4367C13.75 17.4276 13.75 17.4186 13.75 17.4097C13.75 17.4007 13.75 17.3917 13.75 17.3828C13.75 17.3738 13.75 17.3649 13.75 17.356C13.75 17.3471 13.75 17.3382 13.75 17.3293C13.75 17.3204 13.75 17.3116 13.75 17.3028C13.75 17.2939 13.75 17.2851 13.75 17.2763C13.75 17.2675 13.75 17.2587 13.75 17.25C13.75 17.2412 13.75 17.2325 13.75 17.2237C13.75 17.215 13.75 17.2063 13.75 17.1976C13.75 17.1889 13.75 17.1802 13.75 17.1716C13.75 17.1629 13.75 17.1543 13.75 17.1457C13.75 17.1371 13.75 17.1285 13.75 17.1199C13.75 17.1113 13.75 17.1027 13.75 17.0942C13.75 17.0856 13.75 17.0771 13.75 17.0686C13.75 17.0601 13.75 17.0516 13.75 17.0431C13.75 17.0346 13.75 17.0262 13.75 17.0177C13.75 17.0093 13.75 17.0009 13.75 16.9925C13.75 16.9841 13.75 16.9757 13.75 16.9673C13.75 16.9589 13.75 16.9506 13.75 16.9422C13.75 16.9339 13.75 16.9256 13.75 16.9173C13.75 16.909 13.75 16.9007 13.75 16.8924C13.75 16.8842 13.75 16.8759 13.75 16.8677C13.75 16.8595 13.75 16.8513 13.75 16.8431C13.75 16.8349 13.75 16.8267 13.75 16.8185C13.75 16.8104 13.75 16.8022 13.75 16.7941C13.75 16.786 13.75 16.7779 13.75 16.7698C13.75 16.7617 13.75 16.7536 13.75 16.7456C13.75 16.7375 13.75 16.7295 13.75 16.7215C13.75 16.7134 13.75 16.7054 13.75 16.6975C13.75 16.6895 13.75 16.6815 13.75 16.6736C13.75 16.6656 13.75 16.6577 13.75 16.6497C13.75 16.6418 13.75 16.6339 13.75 16.626C13.75 16.6182 13.75 16.6103 13.75 16.6025C13.75 16.5946 13.75 16.5868 13.75 16.579C13.75 16.5711 13.75 16.5633 13.75 16.5556C13.75 16.5478 13.75 16.54 13.75 16.5323C13.75 16.5245 13.75 16.5168 13.75 16.5091C13.75 16.5014 13.75 16.4937 13.75 16.486C13.75 16.4783 13.75 16.4707 13.75 16.463C13.75 16.4554 13.75 16.4477 13.75 16.4401C13.75 16.4325 13.75 16.4249 13.75 16.4174C13.75 16.4098 13.75 16.4022 13.75 16.3947C13.75 16.3871 13.75 16.3796 13.75 16.3721C13.75 16.3646 13.75 16.3571 13.75 16.3496C13.75 16.3421 13.75 16.3347 13.75 16.3272C13.75 16.3198 13.75 16.3124 13.75 16.3049C13.75 16.2975 13.75 16.2901 13.75 16.2828C13.75 16.2754 13.75 16.268 13.75 16.2607C13.75 16.2533 13.75 16.246 13.75 16.2387C13.75 16.2314 13.75 16.2241 13.75 16.2168C13.75 16.2095 13.75 16.2023 13.75 16.195C13.75 16.1878 13.75 16.1806 13.75 16.1734C13.75 16.1661 13.75 16.1589 13.75 16.1518C13.75 16.1446 13.75 16.1374 13.75 16.1303C13.75 16.1231 13.75 16.116 13.75 16.1089C13.75 16.1018 13.75 16.0947 13.75 16.0876C13.75 16.0805 13.75 16.0734 13.75 16.0664C13.75 16.0593 13.75 16.0523 13.75 16.0453C13.75 16.0383 13.75 16.0313 13.75 16.0243C13.75 16.0173 13.75 16.0103 13.75 16.0034C13.75 15.9964 13.75 15.9895 13.75 15.9826C13.75 15.9757 13.75 15.9688 13.75 15.9619C13.75 15.955 13.75 15.9481 13.75 15.9413C13.75 15.9344 13.75 15.9276 13.75 15.9207C13.75 15.9139 13.75 15.9071 13.75 15.9003C13.75 15.8935 13.75 15.8867 13.75 15.88C13.75 15.8732 13.75 15.8665 13.75 15.8597C13.75 15.853 13.75 15.8463 13.75 15.8396C13.75 15.8329 13.75 15.8262 13.75 15.8196C13.75 15.8129 13.75 15.8062 13.75 15.7996C13.75 15.793 13.75 15.7864 13.75 15.7798C13.75 15.7732 13.75 15.7666 13.75 15.76C13.75 15.7534 13.75 15.7469 13.75 15.7403C13.75 15.7338 13.75 15.7273 13.75 15.7208C13.75 15.7142 13.75 15.7077 13.75 15.7013C13.75 15.6948 13.75 15.6883 13.75 15.6819C13.75 15.6754 13.75 15.669 13.75 15.6626C13.75 15.6562 13.75 15.6498 13.75 15.6434C13.75 15.637 13.75 15.6306 13.75 15.6243C13.75 15.6179 13.75 15.6116 13.75 15.6053C13.75 15.5989 13.75 15.5926 13.75 15.5863C13.75 15.58 13.75 15.5738 13.75 15.5675C13.75 15.5612 13.75 15.555 13.75 15.5488C13.75 15.5425 13.75 15.5363 13.75 15.5301C13.75 15.5239 13.75 15.5177 13.75 15.5116C13.75 15.5054 13.75 15.4992 13.75 15.4931C13.75 15.487 13.75 15.4808 13.75 15.4747C13.75 15.4686 13.75 15.4625 13.75 15.4564C13.75 15.4503 13.75 15.4443 13.75 15.4382C13.75 15.4322 13.75 15.4261 13.75 15.4201C13.75 15.4141 13.75 15.4081 13.75 15.4021C13.75 15.3961 13.75 15.3901 13.75 15.3842C13.75 15.3782 13.75 15.3723 13.75 15.3663C13.75 15.3604 13.75 15.3545 13.75 15.3486C13.75 15.3427 13.75 15.3368 13.75 15.3309C13.75 15.3251 13.75 15.3192 13.75 15.3134C13.75 15.3075 13.75 15.3017 13.75 15.2959C13.75 15.2901 13.75 15.2843 13.75 15.2785C13.75 15.2727 13.75 15.2669 13.75 15.2612C13.75 15.2554 13.75 15.2497 13.75 15.244C13.75 15.2383 13.75 15.2325 13.75 15.2268C13.75 15.2212 13.75 15.2155 13.75 15.2098C13.75 15.2041 13.75 15.1985 13.75 15.1929C13.75 15.1872 13.75 15.1816 13.75 15.176C13.75 15.1704 13.75 15.1648 13.75 15.1592C13.75 15.1536 13.75 15.1481 13.75 15.1425C13.75 15.137 13.75 15.1314 13.75 15.1259C13.75 15.1204 13.75 15.1149 13.75 15.1094C13.75 15.1039 13.75 15.0984 13.75 15.0929C13.75 15.0875 13.75 15.082 13.75 15.0766C13.75 15.0712 13.75 15.0657 13.75 15.0603C13.75 15.0549 13.75 15.0495 13.75 15.0441C13.75 15.0388 13.75 15.0334 13.75 15.028C13.75 15.0227 13.75 15.0174 13.75 15.012C13.75 15.0067 13.75 15.0014 13.75 14.9961C13.75 14.9908 13.75 14.9855 13.75 14.9803C13.75 14.975 13.75 14.9697 13.75 14.9645C13.75 14.9593 13.75 14.954 13.75 14.9488C13.75 14.9436 13.75 14.9384 13.75 14.9332C13.75 14.9281 13.75 14.9229 13.75 14.9177C13.75 14.9126 13.75 14.9074 13.75 14.9023C13.75 14.8972 13.75 14.8921 13.75 14.887C13.75 14.8819 13.75 14.8768 13.75 14.8717C13.75 14.8666 13.75 14.8616 13.75 14.8565C13.75 14.8515 13.75 14.8465 13.75 14.8414C13.75 14.8364 13.75 14.8314 13.75 14.8264C13.75 14.8214 13.75 14.8165 13.75 14.8115C13.75 14.8065 13.75 14.8016 13.75 14.7967C13.75 14.7917 13.75 14.7868 13.75 14.7819C13.75 14.777 13.75 14.7721 13.75 14.7672C13.75 14.7623 13.75 14.7575 13.75 14.7526C13.75 14.7477 13.75 14.7429 13.75 14.7381C13.75 14.7332 13.75 14.7284 13.75 14.7236C13.75 14.7188 13.75 14.714 13.75 14.7093C13.75 14.7045 13.75 14.6997 13.75 14.695C13.75 14.6902 13.75 14.6855 13.75 14.6808C13.75 14.6761 13.75 14.6713 13.75 14.6667C13.75 14.662 13.75 14.6573 13.75 14.6526C13.75 14.6479 13.75 14.6433 13.75 14.6386C13.75 14.634 13.75 14.6294 13.75 14.6248C13.75 14.6201 13.75 14.6155 13.75 14.6109C13.75 14.6064 13.75 14.6018 13.75 14.5972C13.75 14.5927 13.75 14.5881 13.75 14.5836C13.75 14.579 13.75 14.5745 13.75 14.57C13.75 14.5655 13.75 14.561 13.75 14.5565C13.75 14.552 13.75 14.5475 13.75 14.5431C13.75 14.5386 13.75 14.5342 13.75 14.5297C13.75 14.5253 13.75 14.5209 13.75 14.5165C13.75 14.5121 13.75 14.5077 13.75 14.5033C13.75 14.4989 13.75 14.4945 13.75 14.4902C13.75 14.4858 13.75 14.4815 13.75 14.4771C13.75 14.4728 13.75 14.4685 13.75 14.4642C13.75 14.4599 13.75 14.4556 13.75 14.4513C13.75 14.447 13.75 14.4428 13.75 14.4385C13.75 14.4342 13.75 14.43 13.75 14.4258C13.75 14.4215 13.75 14.4173 13.75 14.4131C13.75 14.4089 13.75 14.4047 13.75 14.4005C13.75 14.3964 13.75 14.3922 13.75 14.388C13.75 14.3839 13.75 14.3797 13.75 14.3756C13.75 14.3715 13.75 14.3674 13.75 14.3632C13.75 14.3591 13.75 14.355 13.75 14.351C13.75 14.3469 13.75 14.3428 13.75 14.3388C13.75 14.3347 13.75 14.3307 13.75 14.3266C13.75 14.3226 13.75 14.3186 13.75 14.3146C13.75 14.3106 13.75 14.3066 13.75 14.3026C13.75 14.2986 13.75 14.2946 13.75 14.2907C13.75 14.2867 13.75 14.2828 13.75 14.2788C13.75 14.2749 13.75 14.271 13.75 14.2671C13.75 14.2631 13.75 14.2592 13.75 14.2554C13.75 14.2515 13.75 14.2476 13.75 14.2437C13.75 14.2399 13.75 14.236 13.75 14.2322C13.75 14.2283 13.75 14.2245 13.75 14.2207C13.75 14.2169 13.75 14.2131 13.75 14.2093C13.75 14.2055 13.75 14.2017 13.75 14.198C13.75 14.1942 13.75 14.1904 13.75 14.1867C13.75 14.1829 13.75 14.1792 13.75 14.1755C13.75 14.1718 13.75 14.1681 13.75 14.1644C13.75 14.1607 13.75 14.157 13.75 14.1533C13.75 14.1496 13.75 14.146 13.75 14.1423C13.75 14.1387 13.75 14.135 13.75 14.1314C13.75 14.1278 13.75 14.1242 13.75 14.1206C13.75 14.117 13.75 14.1134 13.75 14.1098C13.75 14.1062 13.75 14.1027 13.75 14.0991C13.75 14.0955 13.75 14.092 13.75 14.0885C13.75 14.0849 13.75 14.0814 13.75 14.0779C13.75 14.0744 13.75 14.0709 13.75 14.0674C13.75 14.0639 13.75 14.0604 13.75 14.057C13.75 14.0535 13.75 14.05 13.75 14.0466C13.75 14.0432 13.75 14.0397 13.75 14.0363C13.75 14.0329 13.75 14.0295 13.75 14.0261C13.75 14.0227 13.75 14.0193 13.75 14.0159C13.75 14.0125 13.75 14.0092 13.75 14.0058C13.75 14.0025 13.75 13.9991 13.75 13.9958C13.75 13.9925 13.75 13.9892 13.75 13.9858C13.75 13.9825 13.75 13.9792 13.75 13.976C13.75 13.9727 13.75 13.9694 13.75 13.9661C13.75 13.9629 13.75 13.9596 13.75 13.9564C13.75 13.9531 13.75 13.9499 13.75 13.9467C13.75 13.9435 13.75 13.9402 13.75 13.9371C13.75 13.9339 13.75 13.9307 13.75 13.9275C13.75 13.9243 13.75 13.9211 13.75 13.918C13.75 13.9148 13.75 13.9117 13.75 13.9086C13.75 13.9054 13.75 13.9023 13.75 13.8992C13.75 13.8961 13.75 13.893 13.75 13.8899C13.75 13.8868 13.75 13.8837 13.75 13.8807C13.75 13.8776 13.75 13.8745 13.75 13.8715C13.75 13.8684 13.75 13.8654 13.75 13.8624C13.75 13.8593 13.75 13.8563 13.75 13.8533C13.75 13.8503 13.75 13.8473 13.75 13.8443C13.75 13.8414 13.75 13.8384 13.75 13.8354C13.75 13.8325 13.75 13.8295 13.75 13.8266C13.75 13.8236 13.75 13.8207 13.75 13.8178C13.75 13.8149 13.75 13.8119 13.75 13.809C13.75 13.8061 13.75 13.8033 13.75 13.8004C13.75 13.7975 13.75 13.7946 13.75 13.7918C13.75 13.7889 13.75 13.7861 13.75 13.7832C13.75 13.7804 13.75 13.7776 13.75 13.7747C13.75 13.7719 13.75 13.7691 13.75 13.7663C13.75 13.7635 13.75 13.7607 13.75 13.758C13.75 13.7552 13.75 13.7524 13.75 13.7497C13.75 13.7469 13.75 13.7442 13.75 13.7414C13.75 13.7387 13.75 13.736 13.75 13.7332C13.75 13.7305 13.75 13.7278 13.75 13.7251C13.75 13.7224 13.75 13.7198 13.75 13.7171C13.75 13.7144 13.75 13.7117 13.75 13.7091C13.75 13.7064 13.75 13.7038 13.75 13.7011C13.75 13.6985 13.75 13.6959 13.75 13.6933C13.75 13.6906 13.75 13.688 13.75 13.6854C13.75 13.6828 13.75 13.6803 13.75 13.6777C13.75 13.6751 13.75 13.6725 13.75 13.67C13.75 13.6674 13.75 13.6649 13.75 13.6623C13.75 13.6598 13.75 13.6573 13.75 13.6548C13.75 13.6522 13.75 13.6497 13.75 13.6472C13.75 13.6447 13.75 13.6422 13.75 13.6398C13.75 13.6373 13.75 13.6348 13.75 13.6324C13.75 13.6299 13.75 13.6274 13.75 13.625C13.75 13.6226 13.75 13.6201 13.75 13.6177C13.75 13.6153 13.75 13.6129 13.75 13.6105C13.75 13.6081 13.75 13.6057 13.75 13.6033C13.75 13.6009 13.75 13.5985 13.75 13.5962C13.75 13.5938 13.75 13.5914 13.75 13.5891C13.75 13.5867 13.75 13.5844 13.75 13.5821C13.75 13.5797 13.75 13.5774 13.75 13.5751C13.75 13.5728 13.75 13.5705 13.75 13.5682C13.75 13.5659 13.75 13.5636 13.75 13.5614C13.75 13.5591 13.75 13.5568 13.75 13.5546C13.75 13.5523 13.75 13.5501 13.75 13.5478C13.75 13.5456 13.75 13.5434 13.75 13.5412C13.75 13.5389 13.75 13.5367 13.75 13.5345C13.75 13.5323 13.75 13.5301 13.75 13.528C13.75 13.5258 13.75 13.5236 13.75 13.5214C13.75 13.5193 13.75 13.5171 13.75 13.515C13.75 13.5128 13.75 13.5107 13.75 13.5086C13.75 13.5064 13.75 13.5043 13.75 13.5022C13.75 13.5001 13.75 13.498 13.75 13.4959C13.75 13.4938 13.75 13.4917 13.75 13.4897C13.75 13.4876 13.75 13.4855 13.75 13.4835C13.75 13.4814 13.75 13.4794 13.75 13.4773C13.75 13.4753 13.75 13.4732 13.75 13.4712C13.75 13.4692 13.75 13.4672 13.75 13.4652C13.75 13.4632 13.75 13.4612 13.75 13.4592C13.75 13.4572 13.75 13.4552 13.75 13.4533C13.75 13.4513 13.75 13.4493 13.75 13.4474C13.75 13.4454 13.75 13.4435 13.75 13.4415C13.75 13.4396 13.75 13.4377 13.75 13.4358C13.75 13.4338 13.75 13.4319 13.75 13.43C13.75 13.4281 13.75 13.4262 13.75 13.4243C13.75 13.4224 13.75 13.4206 13.75 13.4187C13.75 13.4168 13.75 13.415 13.75 13.4131C13.75 13.4113 13.75 13.4094 13.75 13.4076C13.75 13.4057 13.75 13.4039 13.75 13.4021C13.75 13.4003 13.75 13.3985 13.75 13.3967C13.75 13.3949 13.75 13.3931 13.75 13.3913C13.75 13.3895 13.75 13.3877 13.75 13.3859C13.75 13.3842 13.75 13.3824 13.75 13.3807C13.75 13.3789 13.75 13.3772 13.75 13.3754C13.75 13.3737 13.75 13.372 13.75 13.3702C13.75 13.3685 13.75 13.3668 13.75 13.3651C13.75 13.3634 13.75 13.3617 13.75 13.36C13.75 13.3583 13.75 13.3566 13.75 13.355C13.75 13.3533 13.75 13.3516 13.75 13.35C13.75 13.3483 13.75 13.3466 13.75 13.345C13.75 13.3434 13.75 13.3417 13.75 13.3401C13.75 13.3385 13.75 13.3368 13.75 13.3352C13.75 13.3336 13.75 13.332 13.75 13.3304C13.75 13.3288 13.75 13.3272 13.75 13.3257C13.75 13.3241 13.75 13.3225 13.75 13.3209C13.75 13.3194 13.75 13.3178 13.75 13.3163C13.75 13.3147 13.75 13.3132 13.75 13.3116C13.75 13.3101 13.75 13.3086 13.75 13.3071C13.75 13.3055 13.75 13.304 13.75 13.3025C13.75 13.301 13.75 13.2995 13.75 13.298C13.75 13.2965 13.75 13.2951 13.75 13.2936C13.75 13.2921 13.75 13.2906 13.75 13.2892C13.75 13.2877 13.75 13.2863 13.75 13.2848C13.75 13.2834 13.75 13.2819 13.75 13.2805C13.75 13.2791 13.75 13.2776 13.75 13.2762C13.75 13.2748 13.75 13.2734 13.75 13.272C13.75 13.2706 13.75 13.2692 13.75 13.2678C13.75 13.2664 13.75 13.265 13.75 13.2637C13.75 13.2623 13.75 13.2609 13.75 13.2596C13.75 13.2582 13.75 13.2569 13.75 13.2555C13.75 13.2542 13.75 13.2528 13.75 13.2515C13.75 13.2502 13.75 13.2488 13.75 13.2475C13.75 13.2462 13.75 13.2449 13.75 13.2436C13.75 13.2423 13.75 13.241 13.75 13.2397C13.75 13.2384 13.75 13.2371 13.75 13.2359C13.75 13.2346 13.75 13.2333 13.75 13.2321C13.75 13.2308 13.75 13.2296 13.75 13.2283C13.75 13.2271 13.75 13.2258 13.75 13.2246C13.75 13.2233 13.75 13.2221 13.75 13.2209C13.75 13.2197 13.75 13.2185 13.75 13.2173C13.75 13.2161 13.75 13.2149 13.75 13.2137C13.75 13.2125 13.75 13.2113 13.75 13.2101C13.75 13.2089 13.75 13.2077 13.75 13.2066C13.75 13.2054 13.75 13.2042 13.75 13.2031C13.75 13.2019 13.75 13.2008 13.75 13.1997C13.75 13.1985 13.75 13.1974 13.75 13.1962C13.75 13.1951 13.75 13.194 13.75 13.1929C13.75 13.1918 13.75 13.1907 13.75 13.1896C13.75 13.1885 13.75 13.1874 13.75 13.1863C13.75 13.1852 13.75 13.1841 13.75 13.183C13.75 13.1819 13.75 13.1809 13.75 13.1798C13.75 13.1787 13.75 13.1777 13.75 13.1766C13.75 13.1756 13.75 13.1745 13.75 13.1735C13.75 13.1725 13.75 13.1714 13.75 13.1704C13.75 13.1694 13.75 13.1684 13.75 13.1673C13.75 13.1663 13.75 13.1653 13.75 13.1643C13.75 13.1633 13.75 13.1623 13.75 13.1613C13.75 13.1603 13.75 13.1594 13.75 13.1584C13.75 13.1574 13.75 13.1564 13.75 13.1555C13.75 13.1545 13.75 13.1535 13.75 13.1526C13.75 13.1516 13.75 13.1507 13.75 13.1497C13.75 13.1488 13.75 13.1479 13.75 13.1469C13.75 13.146 13.75 13.1451 13.75 13.1442C13.75 13.1432 13.75 13.1423 13.75 13.1414C13.75 13.1405 13.75 13.1396 13.75 13.1387C13.75 13.1378 13.75 13.1369 13.75 13.1361C13.75 13.1352 13.75 13.1343 13.75 13.1334C13.75 13.1326 13.75 13.1317 13.75 13.1308C13.75 13.13 13.75 13.1291 13.75 13.1283C13.75 13.1274 13.75 13.1266 13.75 13.1257C13.75 13.1249 13.75 13.1241 13.75 13.1232C13.75 13.1224 13.75 13.1216 13.75 13.1208C13.75 13.12 13.75 13.1191 13.75 13.1183C13.75 13.1175 13.75 13.1167 13.75 13.1159C13.75 13.1151 13.75 13.1144 13.75 13.1136C13.75 13.1128 13.75 13.112 13.75 13.1112C13.75 13.1105 13.75 13.1097 13.75 13.1089C13.75 13.1082 13.75 13.1074 13.75 13.1067C13.75 13.1059 13.75 13.1052 13.75 13.1044C13.75 13.1037 13.75 13.103 13.75 13.1022C13.75 13.1015 13.75 13.1008 13.75 13.1C13.75 13.0993 13.75 13.0986 13.75 13.0979C13.75 13.0972 13.75 13.0965 13.75 13.0958C13.75 13.0951 13.75 13.0944 13.75 13.0937C13.75 13.093 13.75 13.0923 13.75 13.0917C13.75 13.091 13.75 13.0903 13.75 13.0896C13.75 13.089 13.75 13.0883 13.75 13.0876C13.75 13.087 13.75 13.0863 13.75 13.0857C13.75 13.085 13.75 13.0844 13.75 13.0837C13.75 13.0831 13.75 13.0825 13.75 13.0818C13.75 13.0812 13.75 13.0806 13.75 13.08C13.75 13.0794 13.75 13.0787 13.75 13.0781C13.75 13.0775 13.75 13.0769 13.75 13.0763C13.75 13.0757 13.75 13.0751 13.75 13.0745C13.75 13.0739 13.75 13.0733 13.75 13.0728C13.75 13.0722 13.75 13.0716 13.75 13.071C13.75 13.0705 13.75 13.0699 13.75 13.0693C13.75 13.0688 13.75 13.0682 13.75 13.0676C13.75 13.0671 13.75 13.0665 13.75 13.066C13.75 13.0655 13.75 13.0649 13.75 13.0644C13.75 13.0638 13.75 13.0633 13.75 13.0628C13.75 13.0622 13.75 13.0617 13.75 13.0612C13.75 13.0607 13.75 13.0602 13.75 13.0597C13.75 13.0592 13.75 13.0586 13.75 13.0581C13.75 13.0576 13.75 13.0571 13.75 13.0567C13.75 13.0562 13.75 13.0557 13.75 13.0552C13.75 13.0547 13.75 13.0542 13.75 13.0538C13.75 13.0533 13.75 13.0528 13.75 13.0523C13.75 13.0519 13.75 13.0514 13.75 13.0509C13.75 13.0505 13.75 13.05 13.75 13.0496C13.75 13.0491 13.75 13.0487 13.75 13.0482C13.75 13.0478 13.75 13.0474 13.75 13.0469C13.75 13.0465 13.75 13.0461 13.75 13.0456C13.75 13.0452 13.75 13.0448 13.75 13.0444C13.75 13.044 13.75 13.0435 13.75 13.0431C13.75 13.0427 13.75 13.0423 13.75 13.0419C13.75 13.0415 13.75 13.0411 13.75 13.0407C13.75 13.0403 13.75 13.0399 13.75 13.0395C13.75 13.0391 13.75 13.0388 13.75 13.0384C13.75 13.038 13.75 13.0376 13.75 13.0373C13.75 13.0369 13.75 13.0365 13.75 13.0361C13.75 13.0358 13.75 13.0354 13.75 13.0351C13.75 13.0347 13.75 13.0344 13.75 13.034C13.75 13.0336 13.75 13.0333 13.75 13.033C13.75 13.0326 13.75 13.0323 13.75 13.0319C13.75 13.0316 13.75 13.0313 13.75 13.0309C13.75 13.0306 13.75 13.0312 13.75 13.0309C13.75 13.0305 13.75 13.0293 13.75 13.029C13.75 13.0287 13.75 13.0293 13.75 13.029C13.75 13.0287 13.75 13.0275 13.75 13.0272C13.75 13.0269 13.75 13.0275 13.75 13.0272C13.75 13.0269 13.75 13.0257 13.75 13.0254C13.75 13.0251 13.75 13.0257 13.75 13.0254C13.75 13.0251 13.75 13.024 13.75 13.0237C13.75 13.0234 13.75 13.0239 13.75 13.0237C13.75 13.0234 13.75 13.0223 13.75 13.0221C13.75 13.0218 13.75 13.0224 13.75 13.0221C13.75 13.0218 13.75 13.0208 13.75 13.0205C13.75 13.0203 13.75 13.0207 13.75 13.0205C13.75 13.0203 13.75 13.0193 13.75 13.0191C13.75 13.0188 13.75 13.0193 13.75 13.0191C13.75 13.0188 13.75 13.0179 13.75 13.0177C13.75 13.0175 13.75 13.0179 13.75 13.0177C13.75 13.0175 13.75 13.0166 13.75 13.0164C13.75 13.0161 13.75 13.0166 13.75 13.0164C13.75 13.0162 13.75 13.0153 13.75 13.0151C13.75 13.0149 13.75 13.0153 13.75 13.0151C13.75 13.0149 13.75 13.0141 13.75 13.0139C13.75 13.0137 13.75 13.0141 13.75 13.0139C13.75 13.0137 13.75 13.013 13.75 13.0128C13.75 13.0126 13.75 13.013 13.75 13.0128C13.75 13.0127 13.75 13.0119 13.75 13.0117C13.75 13.0115 13.75 13.0104 13.75 13.0102C13.75 13.0101 13.75 13.009 13.75 13.0089C13.75 13.0088 13.75 13.0078 13.75 13.0077C13.75 13.0076 13.75 13.0067 13.75 13.0065C13.75 13.0064 13.75 13.0057 13.75 13.0055C13.75 13.0054 13.75 13.0045 13.75 13.0044C13.75 13.0043 13.75 13.0045 13.75 13.0044C13.75 13.0043 13.75 13.0035 13.75 13.0034C13.75 13.0033 13.75 13.0023 13.75 13.0022C13.75 13.0022 13.75 13.0013 13.75 13.0012C13.75 13.0011 13.75 13 13.75 13H13ZM13.75 13V8H12.25V13H13.75Z" fill="white"/>
</svg>
