<svg width="20" height="20" viewBox="0 0 20 20" fill="none" xmlns="http://www.w3.org/2000/svg">
<path d="M10 0C4.5 0 0 4.5 0 10C0 15.5 4.5 20 10 20C15.5 20 20 15.5 20 10C20 4.5 15.5 0 10 0ZM10 2C13.1 2 15.9 3.8 17.2 6.5L12.4 8.2C11.8 7.4 10.9 7 10 7C9.1 7 8.2 7.4 7.7 8.1L2.8 6.5C4.1 3.8 6.9 2 10 2ZM9 17.9C5.1 17.4 2 14 2 10C2 9.4 2.1 8.9 2.2 8.3L7 10C7 11.3 7.8 12.4 9 12.8V17.9ZM10 11C9.4 11 9 10.6 9 10C9 9.4 9.4 9 10 9C10.6 9 11 9.4 11 10C11 10.6 10.6 11 10 11ZM11 17.9V12.8C12.2 12.4 13 11.3 13 10L17.8 8.3C17.9 8.9 18 9.4 18 10C18 14.1 14.9 17.4 11 17.9Z" fill="white"/>
</svg>
