<svg width="20" height="16" viewBox="0 0 20 16" fill="none" xmlns="http://www.w3.org/2000/svg">
<path d="M1.43303 0.0663809C0.749707 0.230379 0.187427 0.804374 0.0468567 1.47989C-0.0156189 1.77275 -0.0156189 13.2292 0.0468567 13.5221C0.191332 14.221 0.765326 14.7911 1.47599 14.9395C1.87427 15.0254 18.1257 15.0254 18.524 14.9395C19.2347 14.7911 19.8087 14.221 19.9531 13.5221C20.0156 13.2292 20.0156 1.77275 19.9531 1.47989C19.8126 0.796564 19.2503 0.230379 18.5474 0.0624762C18.1804 -0.0234278 1.79227 -0.019523 1.43303 0.0663809ZM18.4186 1.24951C18.5084 1.28856 18.6294 1.39008 18.6919 1.47208C18.7856 1.59313 18.8052 1.6556 18.8052 1.83913C18.8052 1.9836 18.7817 2.09293 18.7349 2.16322C18.6529 2.29207 10.4061 7.80164 10.1835 7.87974C10.0898 7.91097 9.97657 7.92269 9.89067 7.90707C9.72276 7.87583 1.37056 2.32331 1.27684 2.17884C1.06209 1.85474 1.20656 1.41742 1.58532 1.24951C1.7337 1.17923 2.0695 1.17532 10 1.17532C17.9813 1.17532 18.2624 1.17923 18.4186 1.24951ZM5.15033 6.22023C7.31355 7.66107 9.1722 8.88325 9.27763 8.93011C9.74229 9.14096 10.2968 9.13315 10.7692 8.91058C10.8942 8.85201 12.7333 7.64155 14.8614 6.22413C16.9895 4.81062 18.7505 3.6353 18.7778 3.61968C18.8169 3.59625 18.8247 4.55291 18.8169 8.48887L18.8052 13.3854L18.6919 13.5299C18.6294 13.6119 18.5084 13.7134 18.4186 13.7524C18.2624 13.8227 17.9813 13.8266 10 13.8266C2.01874 13.8266 1.7376 13.8227 1.58141 13.7524C1.4916 13.7134 1.37056 13.6119 1.30808 13.5299L1.19485 13.3854L1.18313 8.48887C1.17923 5.79852 1.18313 3.59625 1.19485 3.59625C1.20656 3.59625 2.98321 4.77548 5.15033 6.22023Z" fill="#2BB673"/>
</svg>
