<svg width="55" height="55" viewBox="0 0 55 55" fill="none" xmlns="http://www.w3.org/2000/svg">
<circle cx="27.5" cy="27.5" r="27.5" fill="#FFB120"/>
<path d="M26.5434 9.04999C25.4588 9.21802 24.4507 9.72209 23.6488 10.4706C23.0072 11.0816 22.5719 11.7307 22.2587 12.5709C21.8616 13.6478 21.8616 13.7929 22.6864 24.0576C23.4807 34.0627 23.4425 33.7343 24.0383 34.6279C24.6111 35.4909 25.4436 36.0408 26.5281 36.2852C28.4833 36.7206 30.5148 35.5139 31.0953 33.5663C31.2328 33.0928 32.661 15.5953 32.661 14.3275C32.661 13.4339 32.5082 12.7924 32.1034 11.9522C31.6987 11.1121 30.6905 10.0734 29.8733 9.64572C28.8804 9.12637 27.5515 8.88961 26.5434 9.04999Z" fill="#FF4141"/>
<path d="M26.8183 37.5834C24.7791 37.8889 23.3051 39.8594 23.6335 41.8299C23.8397 43.0519 24.5882 44.0753 25.6574 44.6023C28.6361 46.0763 31.8973 43.2046 30.8204 40.0656C30.4385 38.9658 29.4762 38.0417 28.384 37.7362C27.9181 37.6063 27.1697 37.5376 26.8183 37.5834Z" fill="#FF4141"/>
</svg>
