<svg width="24" height="24" viewBox="0 0 24 24" fill="none" xmlns="http://www.w3.org/2000/svg">
<path d="M2.78906 1.71094L1.71094 2.78906L6.375 7.42969L14.6953 15.75L16.125 17.2031L21.2109 22.2891L22.2891 21.2109L17.625 16.5469C20.8008 14.9736 22.9307 12.6387 23.0625 12.4922L23.5078 12L23.0625 11.5078C22.8604 11.2822 18.0645 6 12 6C10.5322 6 9.14648 6.32227 7.875 6.79688L2.78906 1.71094ZM12 7.5C13.6143 7.5 15.1406 7.9541 16.5 8.57812C16.9834 9.38672 17.25 10.3008 17.25 11.25C17.25 12.6123 16.7227 13.8574 15.8672 14.7891L13.7344 12.6562C14.0479 12.2725 14.25 11.7861 14.25 11.25C14.25 10.0078 13.2422 9 12 9C11.4639 9 10.9775 9.20215 10.5938 9.51562L9.07031 7.99219C10.002 7.70508 10.9775 7.5 12 7.5ZM5.01562 8.17969C2.61035 9.65918 1.04883 11.3818 0.9375 11.5078L0.492188 12L0.9375 12.4922C1.13086 12.709 5.57227 17.5693 11.2969 17.9531C11.5283 17.9766 11.7627 18 12 18C12.2373 18 12.4717 17.9766 12.7031 17.9531C13.3213 17.9121 13.9248 17.8301 14.5078 17.6953L13.1719 16.3594C12.791 16.4473 12.4043 16.5 12 16.5C9.10547 16.5 6.75 14.1445 6.75 11.25C6.75 10.8516 6.80273 10.4619 6.89062 10.0781L5.01562 8.17969ZM5.4375 9.70312C5.31738 10.21 5.25 10.7256 5.25 11.25C5.25 12.5537 5.61621 13.7549 6.25781 14.7891C4.54102 13.8047 3.22852 12.6504 2.55469 12C3.11426 11.458 4.12207 10.5586 5.4375 9.70312ZM18.5625 9.70312C19.8779 10.5586 20.8828 11.458 21.4453 12C20.7715 12.6504 19.4385 13.8281 17.7188 14.8125C18.3633 13.7783 18.75 12.5537 18.75 11.25C18.75 10.7256 18.6826 10.207 18.5625 9.70312Z" fill="#2BB673"/>
</svg>
