<svg width="24" height="24" viewBox="0 0 24 24" fill="none" xmlns="http://www.w3.org/2000/svg">
<path d="M12 6C5.74805 6 0.9375 11.5078 0.9375 11.5078L0.492188 12L0.9375 12.4922C0.9375 12.4922 5.32324 17.4932 11.1562 17.9531C11.4346 17.9883 11.7129 18 12 18C12.2871 18 12.5654 17.9883 12.8438 17.9531C18.6768 17.4932 23.0625 12.4922 23.0625 12.4922L23.5078 12L23.0625 11.5078C23.0625 11.5078 18.252 6 12 6ZM12 7.5C13.6523 7.5 15.1758 7.95117 16.5 8.55469C16.9775 9.3457 17.25 10.2568 17.25 11.25C17.25 13.96 15.2168 16.1865 12.5859 16.4766C12.5713 16.4795 12.5537 16.4736 12.5391 16.4766C12.3604 16.4854 12.1816 16.5 12 16.5C11.8008 16.5 11.6074 16.4883 11.4141 16.4766C8.7832 16.1865 6.75 13.96 6.75 11.25C6.75 10.2715 7.01367 9.36035 7.47656 8.57812H7.45312C8.78906 7.96289 10.3301 7.5 12 7.5ZM12 9C10.7578 9 9.75 10.0078 9.75 11.25C9.75 12.4922 10.7578 13.5 12 13.5C13.2422 13.5 14.25 12.4922 14.25 11.25C14.25 10.0078 13.2422 9 12 9ZM5.4375 9.70312C5.32031 10.207 5.25 10.7139 5.25 11.25C5.25 12.5654 5.625 13.7959 6.28125 14.8359C4.3916 13.7432 3.0791 12.4395 2.64844 12C3.00879 11.6309 4.01367 10.6523 5.4375 9.70312ZM18.5625 9.70312C19.9863 10.6523 20.9912 11.6309 21.3516 12C20.9209 12.4395 19.6084 13.7432 17.7188 14.8359C18.375 13.7959 18.75 12.5654 18.75 11.25C18.75 10.7139 18.6797 10.2012 18.5625 9.70312Z" fill="#2BB673"/>
</svg>
