<svg width="26" height="23" viewBox="0 0 26 23" fill="none" xmlns="http://www.w3.org/2000/svg">
<path d="M21.2818 0.0349202C20.3637 0.170368 19.4507 0.677044 18.8738 1.37435C17.9307 2.51312 17.715 4.19869 18.3521 5.45785C18.4374 5.63343 19.1848 6.9528 20.0126 8.39256C21.5326 11.0413 21.5828 11.1216 21.8587 11.1216C21.9088 11.1216 22.0092 11.0714 22.0744 11.0062C22.2048 10.8908 25.0743 5.91436 25.3251 5.37759C25.5659 4.8659 25.6412 4.48463 25.6412 3.82244C25.6412 3.16026 25.5659 2.80408 25.3151 2.25225C25.0191 1.59508 24.4121 0.912823 23.7901 0.541596C23.0777 0.110169 22.0995 -0.085478 21.2818 0.0349202ZM22.4356 0.912823C23.4439 1.12352 24.2716 1.85594 24.6579 2.88434C24.7683 3.1753 24.7884 3.30072 24.7884 3.82244C24.7884 4.32912 24.7733 4.4746 24.673 4.75051C24.6128 4.92609 23.9456 6.14011 23.1981 7.44442C22.1597 9.25039 21.8235 9.80222 21.7784 9.75205C21.6078 9.56142 19.0594 5.02643 18.9541 4.72543C18.8036 4.27895 18.7885 3.53148 18.9189 3.06996C19.1597 2.25225 19.7517 1.51983 20.4641 1.17369C21.1112 0.852624 21.7483 0.767342 22.4356 0.912823Z" fill="#2BB673"/>
<path d="M21.322 2.21238C21.016 2.31271 20.7852 2.46822 20.5294 2.75417C19.797 3.56686 20.0829 4.89625 21.0963 5.38788C21.3371 5.50326 21.4474 5.52333 21.8086 5.52333C22.1648 5.52834 22.2802 5.50326 22.516 5.3929C22.8772 5.22735 23.1882 4.92134 23.3588 4.55513C23.4691 4.31935 23.4892 4.20396 23.4892 3.8227C23.4892 3.40633 23.4792 3.34613 23.3186 3.05517C23.118 2.68394 22.8922 2.47324 22.516 2.30268C22.1849 2.14716 21.6381 2.10703 21.322 2.21238ZM22.3253 3.16051C22.5661 3.34613 22.6765 3.60197 22.6514 3.92304C22.5762 4.81097 21.3772 4.98655 21.026 4.16383C20.8655 3.7926 21.021 3.33609 21.3722 3.12038C21.6581 2.9448 22.0645 2.95985 22.3253 3.16051Z" fill="#2BB673"/>
<path d="M4.56656 6.07506C3.45288 6.28576 2.41946 6.82755 1.64189 7.61014C1.15026 8.09675 0.844249 8.52818 0.543254 9.1703C-0.12897 10.585 -0.179135 12.2003 0.402789 13.62C0.473021 13.7956 1.59172 15.7771 2.88098 18.0296C4.89765 21.5412 5.24881 22.1281 5.38928 22.1984C5.74044 22.3689 5.63509 22.5245 8.13335 18.1751C9.38249 15.9929 10.4912 14.0464 10.5915 13.8458C10.9978 13.0331 11.1784 11.9846 11.0781 11.0264C10.8323 8.65861 9.20189 6.75732 6.90931 6.15533C6.3625 6.01486 5.11838 5.96972 4.56656 6.07506ZM6.38256 6.91283C8.08319 7.19878 9.54803 8.49808 10.0647 10.1786C10.3708 11.182 10.3106 12.421 9.90923 13.3291C9.7788 13.62 5.68024 20.7887 5.58493 20.8891C5.54479 20.9292 4.99297 20.0111 3.43783 17.3022C2.28903 15.2956 1.29073 13.5297 1.22049 13.3742C0.909465 12.702 0.769 11.6234 0.884382 10.8759C1.30076 8.22216 3.73882 6.46134 6.38256 6.91283Z" fill="#2BB673"/>
<path d="M5.20355 9.01447C3.74373 9.21514 2.75044 10.6348 3.05144 12.0846C3.1919 12.7518 3.74874 13.4993 4.32565 13.7953C5.17847 14.2267 6.17176 14.1866 6.93929 13.6899C8.29879 12.812 8.49945 10.8957 7.34564 9.74188C6.77876 9.17501 5.99116 8.90913 5.20355 9.01447ZM6.26206 9.99773C6.6082 10.1532 6.96438 10.5094 7.12491 10.8606C7.21019 11.0462 7.23527 11.1917 7.23527 11.5479C7.23527 12.0896 7.13494 12.3455 6.7888 12.7167C6.32727 13.2083 5.60488 13.3839 4.95273 13.1582C4.57146 13.0227 4.0999 12.5562 3.95442 12.1599C3.72868 11.5378 3.86413 10.8606 4.3106 10.389C4.83734 9.83218 5.56475 9.6867 6.26206 9.99773Z" fill="#2BB673"/>
<path d="M15.3473 10.3445C13.8423 10.6705 12.7386 12.1454 12.849 13.6755C12.9393 14.8694 13.6366 15.8828 14.7252 16.3794C15.3122 16.6503 15.6483 16.6854 17.6198 16.6904C18.9191 16.6904 19.4408 16.7105 19.6264 16.7607C20.7853 17.0667 21.5578 18.2305 21.3672 19.3793C21.2267 20.2322 20.6548 20.9295 19.8271 21.2606L19.5261 21.381L16.0747 21.406L12.6183 21.4311L12.5229 21.5515C12.3273 21.7923 12.4477 22.1585 12.7386 22.2338C12.8039 22.2488 14.369 22.2538 16.2151 22.2438C19.2602 22.2288 19.6064 22.2187 19.8773 22.1385C20.7401 21.8826 21.5327 21.2254 21.8989 20.4529C22.1548 19.9061 22.23 19.585 22.225 19.0232C22.22 17.5483 21.2468 16.2991 19.8171 15.9329C19.4759 15.8477 19.2502 15.8376 17.6399 15.8376C16.5212 15.8376 15.7436 15.8176 15.578 15.7824C15.1416 15.6921 14.7001 15.4513 14.3941 15.1403C13.6416 14.3878 13.4761 13.3243 13.9627 12.3661C14.1333 12.03 14.5898 11.5735 14.9259 11.403C15.4526 11.1371 15.5931 11.122 17.7853 11.122H19.812L19.9575 10.9765C20.1682 10.7608 20.1281 10.4448 19.8672 10.3244C19.6816 10.2391 15.7586 10.2542 15.3473 10.3445Z" fill="#2BB673"/>
<path d="M7.40082 21.5564C7.27541 21.6868 7.25534 21.737 7.28042 21.8724C7.32055 22.0781 7.44095 22.1985 7.64663 22.2386C7.78208 22.2637 7.83225 22.2436 7.96268 22.1182C8.15331 21.9226 8.16334 21.7018 7.98776 21.5313C7.8172 21.3557 7.59647 21.3657 7.40082 21.5564Z" fill="#2BB673"/>
<path d="M9.17676 21.4861C8.9159 21.6667 8.946 22.043 9.22693 22.1885C9.6433 22.4042 10.0296 21.8624 9.69347 21.5313C9.553 21.3858 9.34231 21.3708 9.17676 21.4861Z" fill="#2BB673"/>
<path d="M10.8475 21.5311C10.6267 21.7468 10.692 22.093 10.9729 22.2084C11.1485 22.2836 11.3943 22.2084 11.4746 22.0529C11.6251 21.7769 11.4244 21.4057 11.1234 21.4057C11.0281 21.4057 10.9227 21.4509 10.8475 21.5311Z" fill="#2BB673"/>
</svg>
