<svg width="151" height="175" viewBox="0 0 151 175" fill="none" xmlns="http://www.w3.org/2000/svg">
<path d="M75.474 2.38433C89.8361 2.38453 103.876 6.49619 115.817 14.1994C127.759 21.9026 137.067 32.8514 142.563 45.6613C148.059 58.4711 149.497 72.5667 146.695 86.1657C143.894 99.7646 136.978 112.256 126.823 122.061L75.474 171.633L24.1252 122.061C13.9699 112.256 7.05416 99.7646 4.25246 86.1657C1.45076 72.5667 2.88898 58.4711 8.38522 45.6613C13.8815 32.8514 23.1889 21.9026 35.1305 14.1994C47.0722 6.49619 61.1118 2.38453 75.474 2.38433ZM75.474 5.9042e-05C65.6123 -0.0121108 55.8454 1.85718 46.7344 5.50055C37.6234 9.14393 29.348 14.4895 22.3837 21.2302C15.4107 27.9612 9.87926 35.9523 6.1054 44.7472C2.33154 53.5422 0.38916 62.9686 0.38916 72.4883C0.38916 82.008 2.33154 91.4344 6.1054 100.229C9.87926 109.024 15.4107 117.015 22.3837 123.746L75.474 175L128.564 123.746C135.537 117.015 141.068 109.024 144.841 100.229C148.615 91.4341 150.557 82.0078 150.557 72.4883C150.557 62.9688 148.615 53.5425 144.841 44.7476C141.068 35.9527 135.537 27.9615 128.564 21.2302C121.6 14.49 113.324 9.14459 104.213 5.50125C95.1023 1.8579 85.3355 -0.0116139 75.474 5.9042e-05Z" fill="#FFC55A"/>
<path d="M75.4771 32.3171C84.2688 32.3171 92.863 34.8339 100.173 39.5494C107.483 44.2648 113.181 50.967 116.545 58.8085C119.909 66.65 120.79 75.2786 119.075 83.6031C117.359 91.9276 113.126 99.5741 106.909 105.576C100.692 111.577 92.7719 115.664 84.1491 117.32C75.5263 118.976 66.5887 118.126 58.4662 114.878C50.3437 111.63 43.4012 106.13 38.5168 99.0726C33.6324 92.0155 31.0254 83.7185 31.0254 75.231C31.0383 63.8533 35.7257 52.9452 44.0592 44.9C52.3927 36.8547 63.6917 32.3295 75.4771 32.3171V32.3171ZM75.4771 29.9313C66.1969 29.9313 57.1251 32.588 49.4089 37.5654C41.6928 42.5428 35.6787 49.6174 32.1274 57.8946C28.576 66.1718 27.6468 75.2797 29.4573 84.0667C31.2677 92.8537 35.7366 100.925 42.2987 107.26C48.8607 113.595 57.2213 117.909 66.3232 119.657C75.425 121.405 84.8593 120.508 93.4331 117.08C102.007 113.651 109.335 107.845 114.491 100.396C119.647 92.9465 122.398 84.1886 122.398 75.2295C122.399 69.2807 121.186 63.3901 118.828 57.8941C116.47 52.3981 113.014 47.4043 108.656 43.1979C104.299 38.9915 99.1265 35.6549 93.4336 33.3786C87.7406 31.1023 81.639 29.9309 75.4771 29.9313V29.9313Z" fill="#FFC55A"/>
<path d="M65.9147 85.8581C65.1982 85.8584 64.4975 85.6535 63.9016 85.2693C63.3057 84.8852 62.8412 84.3391 62.5668 83.7C62.2925 83.0609 62.2206 82.3577 62.3603 81.6792C62.5 81.0007 62.8451 80.3774 63.3518 79.8883C63.8585 79.3991 64.504 79.066 65.2068 78.9311C65.9096 78.7962 66.6381 78.8656 67.3001 79.1305C67.962 79.3954 68.5278 79.8438 68.9257 80.4191C69.3236 80.9945 69.5358 81.6708 69.5354 82.3625C69.5342 83.2892 69.1523 84.1777 68.4736 84.833C67.7948 85.4882 66.8747 85.8569 65.9147 85.8581ZM65.9147 80.2262C65.4771 80.2262 65.0492 80.3515 64.6853 80.5863C64.3214 80.821 64.0377 81.1547 63.8703 81.545C63.7028 81.9354 63.659 82.3649 63.7444 82.7793C63.8298 83.1937 64.0405 83.5744 64.35 83.8732C64.6595 84.1719 65.0537 84.3754 65.483 84.4578C65.9122 84.5403 66.3572 84.498 66.7615 84.3363C67.1659 84.1746 67.5115 83.9008 67.7547 83.5494C67.9978 83.1981 68.1276 82.7851 68.1276 82.3625C68.1267 81.7962 67.8933 81.2533 67.4785 80.8529C67.0637 80.4524 66.5014 80.227 65.9147 80.2262V80.2262Z" fill="#2BB647"/>
<path d="M85.0318 85.8581C84.3153 85.8581 83.6148 85.6529 83.0191 85.2686C82.4234 84.8843 81.9591 84.3381 81.685 83.699C81.4109 83.0599 81.3392 82.3566 81.4791 81.6782C81.619 80.9998 81.9642 80.3767 82.4709 79.8877C82.9777 79.3987 83.6233 79.0658 84.3261 78.931C85.0288 78.7963 85.7572 78.8657 86.4191 79.1306C87.081 79.3955 87.6466 79.844 88.0444 80.4193C88.4423 80.9946 88.6544 81.6708 88.6541 82.3625C88.6529 83.2895 88.2708 84.1781 87.5917 84.8335C86.9126 85.4888 85.992 85.8573 85.0318 85.8581ZM85.0318 80.2262C84.5942 80.2268 84.1667 80.3526 83.8032 80.5877C83.4397 80.8228 83.1566 81.1567 82.9896 81.5471C82.8226 81.9375 82.7792 82.367 82.8649 82.7812C82.9507 83.1954 83.1617 83.5757 83.4713 83.8742C83.7809 84.1727 84.1752 84.3759 84.6044 84.4581C85.0336 84.5402 85.4783 84.4978 85.8825 84.336C86.2867 84.1742 86.632 83.9004 86.8751 83.5491C87.1181 83.1979 87.2478 82.7849 87.2478 82.3625C87.2478 82.0817 87.1904 81.8037 87.079 81.5443C86.9676 81.2849 86.8043 81.0493 86.5985 80.8509C86.3927 80.6524 86.1485 80.4952 85.8796 80.388C85.6108 80.2808 85.3226 80.2258 85.0318 80.2262V80.2262Z" fill="#2BB647"/>
<path d="M95.4069 59.1867H91.9992V57.2514C91.9984 56.55 91.7093 55.8774 91.1955 55.3814C90.6817 54.8854 89.9852 54.6064 89.2585 54.6056H61.6861C60.9595 54.6064 60.2629 54.8854 59.7491 55.3814C59.2353 55.8774 58.9463 56.55 58.9454 57.2514V59.1851H55.5377C55.4452 59.1853 55.3535 59.2031 55.2681 59.2375C55.1826 59.2719 55.1051 59.3222 55.0398 59.3855C54.9745 59.4488 54.9228 59.5239 54.8875 59.6065C54.8523 59.6892 54.8343 59.7776 54.8345 59.867V66.7885C54.8345 66.9689 54.9088 67.142 55.0409 67.2696C55.1731 67.3972 55.3523 67.4689 55.5392 67.4689C55.7261 67.4689 55.9054 67.3972 56.0375 67.2696C56.1697 67.142 56.244 66.9689 56.244 66.7885V60.5474H58.9376V87.1871C58.9388 87.889 59.2284 88.5617 59.7428 89.0578C60.2572 89.5538 60.9544 89.8325 61.6814 89.8329H61.8772V93.5371C61.878 94.1488 62.13 94.7352 62.578 95.1677C63.026 95.6002 63.6334 95.8435 64.267 95.8443H67.5511C68.1846 95.8435 68.7921 95.6002 69.2401 95.1677C69.6881 94.7352 69.9401 94.1488 69.9409 93.5371V89.8254H80.9991V93.5371C80.9995 94.1486 81.2512 94.735 81.6989 95.1676C82.1467 95.6001 82.7538 95.8435 83.3873 95.8443H86.6761C87.3095 95.8435 87.9167 95.6001 88.3644 95.1676C88.8122 94.735 89.0639 94.1486 89.0643 93.5371V89.8254H89.2617C89.9883 89.8246 90.6849 89.5456 91.1987 89.0496C91.7125 88.5536 92.0015 87.881 92.0023 87.1795V60.5398H94.707V66.784C94.707 66.9644 94.7812 67.1375 94.9133 67.2651C95.0455 67.3927 95.2248 67.4643 95.4117 67.4643C95.5986 67.4643 95.7778 67.3927 95.91 67.2651C96.0422 67.1375 96.1164 66.9644 96.1164 66.784V59.867C96.1166 59.7772 96.0984 59.6883 96.0627 59.6054C96.0271 59.5224 95.9747 59.4471 95.9088 59.3839C95.8428 59.3206 95.7645 59.2706 95.6784 59.2367C95.5923 59.2029 95.4999 59.1859 95.4069 59.1867V59.1867ZM60.3471 57.2514C60.3471 56.91 60.4875 56.5826 60.7374 56.3411C60.9873 56.0996 61.3263 55.9637 61.6799 55.9633H89.2522C89.6058 55.9637 89.9448 56.0996 90.1947 56.3411C90.4446 56.5826 90.585 56.91 90.585 57.2514V59.1851H60.3471V57.2514ZM68.5283 93.5371C68.5283 93.7881 68.425 94.0289 68.2412 94.2064C68.0573 94.3839 67.8079 94.4836 67.5479 94.4836H64.2685C64.0082 94.4836 63.7585 94.384 63.5742 94.2066C63.3898 94.0292 63.2859 93.7884 63.285 93.5371V89.8254H68.5283V93.5371V93.5371ZM87.6471 93.5371C87.6471 93.7881 87.5438 94.0289 87.3599 94.2064C87.1761 94.3839 86.9266 94.4836 86.6666 94.4836H83.3779C83.118 94.4832 82.8689 94.3833 82.6851 94.2059C82.5013 94.0285 82.398 93.788 82.3976 93.5371V89.8254H87.6408L87.6471 93.5371ZM89.2522 88.4662H61.6861C61.3325 88.4658 60.9935 88.3299 60.7436 88.0884C60.4937 87.8468 60.3533 87.5194 60.3533 87.1781V75.739H90.5928V87.1871C90.592 87.5282 90.4511 87.8551 90.2009 88.096C89.9508 88.3369 89.6119 88.4722 89.2585 88.4722L89.2522 88.4662ZM90.585 74.3813H60.3471V60.5398H90.5865L90.585 74.3813Z" fill="#2BB647"/>
<path d="M77.9468 83.0415H73.0011C72.8142 83.0415 72.6349 82.9698 72.5028 82.8422C72.3706 82.7146 72.2964 82.5416 72.2964 82.3612C72.2964 82.1807 72.3706 82.0077 72.5028 81.8801C72.6349 81.7525 72.8142 81.6808 73.0011 81.6808H77.9484C78.1353 81.6808 78.3145 81.7525 78.4467 81.8801C78.5788 82.0077 78.6531 82.1807 78.6531 82.3612C78.6531 82.5416 78.5788 82.7146 78.4467 82.8422C78.3145 82.9698 78.1353 83.0415 77.9484 83.0415H77.9468Z" fill="#2BB647"/>
</svg>
