<svg width="30" height="38" viewBox="0 0 30 38" fill="none" xmlns="http://www.w3.org/2000/svg">
<path d="M12.6273 0.402606C10.7836 0.678674 9.00715 1.29342 7.38817 2.21569C5.50577 3.31905 3.89711 4.83162 2.68191 6.6408C1.46671 8.44998 0.676283 10.5092 0.369467 12.6651C0.204303 14.2787 0.217608 15.9055 0.409138 17.5162C0.810154 19.7208 1.67099 21.8168 2.93589 23.6684C3.56795 24.583 14.0835 36.8989 14.4092 37.1067C14.6416 37.2039 14.8917 37.2518 15.1437 37.2474C15.3957 37.243 15.6441 37.1864 15.8729 37.0811C16.1813 36.8712 26.2705 24.1867 26.8702 23.2506C28.0698 21.356 28.8569 19.2312 29.1808 17.0139C29.3158 15.3916 29.2722 13.7594 29.0508 12.1465C28.4167 8.74813 26.6069 5.67963 23.9367 3.47592C22.3636 2.21784 20.5479 1.29583 18.6023 0.767128C16.6568 0.238429 14.623 0.114352 12.6273 0.402606V0.402606Z" fill="#023F5C"/>
<path d="M12.9266 7.64007C10.8353 7.81423 9.48254 8.18197 8.97276 8.71454C8.58342 9.3987 8.38265 10.1735 8.39086 10.96C8.34764 11.4067 8.34485 11.4187 8.27018 11.4379C8.04664 11.5055 7.85725 11.6554 7.74042 11.8572C7.67221 12.2002 7.6581 12.5519 7.6986 12.8993C7.70563 13.8178 7.70925 13.8536 7.77473 13.9951C7.85563 14.1611 7.98584 14.2982 8.14764 14.3876L8.21415 14.4164L8.25472 16.7408C8.2872 18.6015 8.31024 19.2336 8.36365 19.887C8.43305 20.7685 8.45282 20.8699 8.55747 21.0207C8.70205 21.2246 8.7503 21.2388 9.22428 21.2335L9.65022 21.2261L9.67566 21.8241C9.70084 22.4072 9.7041 22.4221 9.78849 22.5583C9.92038 22.7336 10.1058 22.8613 10.3168 22.9224C10.5279 22.9835 10.7531 22.9746 10.9586 22.8969C11.1021 22.8591 11.2312 22.7798 11.3297 22.669C11.4145 22.5933 11.4789 22.4975 11.5168 22.3905C11.5399 22.1687 11.547 21.9456 11.5382 21.7228L11.5287 21.1783L18.4506 21.0575L18.47 21.6497L18.4924 22.2477L18.5849 22.3927C18.7315 22.587 18.9415 22.724 19.1787 22.7799C19.4159 22.8359 19.6652 22.8074 19.8835 22.6993C20.0584 22.6286 20.202 22.4976 20.2881 22.3301C20.3462 22.2214 20.351 22.1525 20.3507 21.6168L20.3522 21.0183L20.5526 21.0358C20.6668 21.0555 20.784 21.0514 20.8966 21.0236C21.0092 20.9959 21.1149 20.9452 21.2068 20.8747L21.3131 20.7731L21.3108 19.265C21.3083 18.4361 21.2885 16.9552 21.2653 15.9741L21.2222 14.1883L21.3026 14.157C21.4731 14.0705 21.6076 13.9269 21.6826 13.7514C21.7431 13.6067 21.7455 13.5708 21.7204 12.6535C21.6931 11.6006 21.6964 11.6215 21.4769 11.4189C21.3638 11.3141 21.2242 11.2421 21.0732 11.2105C20.9979 11.1968 20.9947 11.1849 20.9332 10.7551C20.8952 10.0165 20.6799 9.29775 20.3055 8.65937C19.9585 8.35494 19.5398 8.14298 19.0886 8.04322C17.0677 7.59284 14.9892 7.45686 12.9266 7.64007ZM18.1029 9.44492L18.1123 9.98338L11.0914 10.1059L11.0726 9.02899L18.0905 8.90649L18.1029 9.44492ZM19.3954 13.0133L19.4387 15.4963L9.95815 15.6617L9.87149 10.6968L19.349 10.5314L19.3954 13.0133ZM11.7466 18.0773C11.9583 18.171 12.1309 18.3351 12.2348 18.5416C12.3124 18.6687 12.3498 18.8161 12.3422 18.9647C12.3463 19.1615 12.2911 19.355 12.1836 19.5201C12.0761 19.6852 11.9214 19.8144 11.7395 19.8907C11.5576 19.9671 11.3569 19.9873 11.1634 19.9485C10.9699 19.9098 10.7925 19.8139 10.6543 19.6734C10.4981 19.5118 10.4012 19.3024 10.3791 19.0791C10.3571 18.8558 10.4112 18.6315 10.5328 18.4427C10.6661 18.2608 10.8475 18.1194 11.0567 18.0345C11.2858 17.988 11.5233 18.0045 11.7437 18.0824L11.7466 18.0773ZM18.6145 17.9575C18.8263 18.0511 18.9988 18.2153 19.1027 18.4217C19.1811 18.5507 19.2186 18.7002 19.2102 18.8508C19.2238 19.0009 19.1916 19.1517 19.1178 19.2833C19.035 19.4592 18.9019 19.6069 18.7352 19.7077C18.5686 19.8085 18.3758 19.858 18.1811 19.8498C17.9864 19.8417 17.7984 19.7764 17.6408 19.6621C17.4832 19.5478 17.3629 19.3896 17.2952 19.2074C17.245 19.0519 17.231 18.8871 17.2542 18.7255C17.2773 18.5639 17.3371 18.4096 17.4289 18.2744C17.5629 18.1185 17.7322 17.9966 17.9228 17.9187C18.1508 17.8714 18.3875 17.8866 18.6076 17.9626L18.6145 17.9575Z" fill="#2BB647"/>
</svg>
