<svg width="20" height="35" viewBox="0 0 20 35" fill="none" xmlns="http://www.w3.org/2000/svg">
<path d="M11.0464 7.01299C11.8583 7.11851 12.6351 7.40772 13.3103 7.86109C13.685 8.11122 14.3759 8.80298 14.6257 9.17818C14.9848 9.71362 15.2307 10.2803 15.3868 10.9369C15.461 11.2379 15.4688 11.4254 15.4844 12.8793L15.5039 14.4935H15.9215C16.1714 14.4935 16.4329 14.5169 16.5695 14.5521C17.2408 14.728 17.76 15.2517 17.9356 15.9278C18.0215 16.2639 18.0215 25.2295 17.9356 25.5657C17.76 26.2418 17.2408 26.7655 16.5695 26.9414C16.3665 26.9922 15.6171 27 10.5 27C5.3829 27 4.63349 26.9922 4.43052 26.9414C3.75917 26.7655 3.24005 26.2418 3.0644 25.5657C2.97853 25.2295 2.97853 16.2639 3.0644 15.9278C3.24005 15.2517 3.75917 14.728 4.43052 14.5521C4.56714 14.5169 4.82865 14.4935 5.07845 14.4935H5.4961L5.51561 12.8793C5.53123 11.4254 5.53903 11.2379 5.61319 10.9369C5.85519 9.93248 6.27674 9.17818 6.98322 8.47078C7.70531 7.74774 8.46643 7.32565 9.44614 7.10288C9.7701 7.02862 10.7381 6.9739 11.0464 7.01299ZM9.59836 8.35353C8.88798 8.53722 8.34934 8.85379 7.82631 9.38923C7.4555 9.76833 7.19399 10.167 7.01054 10.6282C6.78806 11.2027 6.78025 11.2652 6.76464 12.938L6.74902 14.4935H10.5H14.251L14.2393 12.938C14.2237 11.5036 14.2158 11.3629 14.1417 11.0893C13.9426 10.3702 13.6343 9.84259 13.119 9.33451C12.518 8.73654 11.9364 8.44733 10.9684 8.26364C10.7381 8.22065 9.8872 8.27536 9.59836 8.35353ZM4.54372 15.8457C4.48517 15.8887 4.3993 15.9747 4.35636 16.0333C4.2744 16.1389 4.2744 16.1623 4.26269 20.692C4.25098 25.7298 4.23536 25.4093 4.51249 25.6165L4.65691 25.7298H10.5H16.3431L16.4875 25.6165C16.7607 25.4093 16.7451 25.7181 16.7451 20.7506C16.7451 17.6631 16.7334 16.2209 16.7022 16.1467C16.6475 16.0021 16.5187 15.8614 16.3743 15.7988C16.2767 15.7558 15.2307 15.748 10.4532 15.7558C4.66081 15.7637 4.6491 15.7637 4.54372 15.8457Z" fill="#2BB673"/>
<path d="M10.7849 17.8544C11.6514 18.0068 12.2798 18.8784 12.1432 19.7343C12.0613 20.2463 11.6905 20.7778 11.2884 20.9576L11.1245 21.0318V22.1027C11.1245 23.0915 11.1167 23.1853 11.0464 23.3221C10.824 23.7637 10.176 23.7637 9.95354 23.3221C9.88328 23.1853 9.87548 23.0915 9.87548 22.1027V21.0318L9.71154 20.9576C9.30951 20.7778 8.93871 20.2463 8.85674 19.7343C8.76306 19.1402 9.0558 18.4602 9.54761 18.1319C9.91451 17.8896 10.3868 17.784 10.7849 17.8544ZM10.3243 19.1285C10.2033 19.1832 10.0706 19.3786 10.0706 19.4959C10.0706 19.5232 10.098 19.6014 10.1331 19.6717C10.2072 19.832 10.418 19.9414 10.5781 19.9062C10.7225 19.875 10.8786 19.7186 10.9098 19.574C10.945 19.4177 10.8357 19.2028 10.6834 19.1285C10.5273 19.0503 10.4844 19.0503 10.3243 19.1285Z" fill="#2BB673"/>
</svg>
