<svg width="26" height="14" viewBox="0 0 26 14" fill="none" xmlns="http://www.w3.org/2000/svg">
<path d="M1.21643 0.031296C0.760271 0.142802 0.344656 0.487458 0.126712 0.923347L0 1.17677V7.00551V12.8343L0.141917 13.1232C0.293971 13.4374 0.5626 13.706 0.897119 13.8834L1.11506 14H12.9499H24.7848L25.0028 13.8834C25.3373 13.706 25.6059 13.4374 25.758 13.1232L25.8999 12.8343V7.00551V1.17677L25.7276 0.857457C25.54 0.507732 25.3271 0.304993 24.9622 0.127597L24.7341 0.0110221L13.0513 0.000885147C6.62449 0.000885147 1.3026 0.0110221 1.21643 0.031296ZM24.5314 1.13115C24.8811 1.29335 24.8608 0.953758 24.8608 7.00044C24.8608 12.9762 24.8761 12.7227 24.5618 12.8799C24.425 12.9508 23.2541 12.961 12.9499 12.961C2.64574 12.961 1.47492 12.9508 1.33808 12.8799C1.02383 12.7227 1.03904 12.9762 1.03904 7.00044C1.03904 0.974031 1.01876 1.29841 1.35835 1.13115C1.50534 1.0602 2.67615 1.05006 12.9398 1.05006C23.2389 1.05006 24.3793 1.0602 24.5314 1.13115Z" fill="#2BB673"/>
<path d="M3.96362 2.72814C3.67978 2.79403 3.31485 2.99677 3.13239 3.18938C3.04115 3.28061 2.90431 3.49348 2.82828 3.66074C2.68636 3.96485 2.68636 3.96992 2.67116 5.20663C2.64581 6.8995 2.71677 7.19854 3.22869 7.67497C3.60882 8.01963 3.81156 8.07031 4.8658 8.07031C5.71731 8.07031 5.79333 8.06018 6.04676 7.94867C6.39141 7.79155 6.77662 7.37593 6.90333 7.02114C6.98442 6.78799 6.99456 6.58018 6.99456 5.35868V3.96485L6.86278 3.68609C6.61443 3.16403 6.29004 2.88527 5.76799 2.74842C5.44868 2.66225 4.288 2.65212 3.96362 2.72814ZM5.3169 3.84828C5.25608 3.95471 3.92307 5.73375 3.84704 5.81484C3.78622 5.87566 3.77608 5.74895 3.77608 4.98361V4.08143L3.92307 3.93444C4.07005 3.78746 4.07005 3.78746 4.71375 3.78746C5.21046 3.78746 5.34731 3.80266 5.3169 3.84828ZM5.82374 6.76265C5.69196 6.96539 5.45881 7.03128 4.8658 7.03128C4.57183 7.03128 4.33361 7.01607 4.33361 7.00087C4.33361 6.98059 4.68334 6.49909 5.10909 5.93142L5.8795 4.89745L5.8947 5.76923C5.90484 6.49909 5.8947 6.66128 5.82374 6.76265Z" fill="#2BB673"/>
<path d="M8.40345 2.74897C8.11454 2.87062 8.074 3.03787 8.09427 3.93499C8.10947 4.68006 8.11961 4.74088 8.25139 5.01458C8.40345 5.32882 8.67208 5.59745 9.00659 5.77485C9.20933 5.88129 9.2955 5.89142 10.2737 5.90663L11.3229 5.92183L11.3381 6.85443C11.3533 7.75662 11.3584 7.78703 11.4749 7.91374C11.7182 8.17223 12.1947 8.11648 12.3366 7.81237C12.3771 7.72621 12.3923 6.96594 12.3923 5.3643C12.3923 3.1139 12.3873 3.03787 12.291 2.91116C12.1389 2.71856 11.8855 2.6476 11.6675 2.7439C11.3634 2.86555 11.328 3.00746 11.328 3.99075V4.85239H10.4663C9.19413 4.85239 9.14851 4.81184 9.14851 3.70184C9.14851 2.97198 9.11303 2.86555 8.81399 2.7439C8.61125 2.65774 8.60618 2.65774 8.40345 2.74897Z" fill="#2BB673"/>
<path d="M14.7188 2.74335C14.1815 2.88527 13.7507 3.28568 13.5835 3.78746C13.5125 3.99526 13.5024 4.25882 13.5176 5.49553C13.5328 6.90456 13.5378 6.96032 13.6494 7.17319C13.8268 7.50771 14.0954 7.77634 14.4096 7.9284C14.6935 8.07031 14.7087 8.07031 15.6615 8.07031H16.6245L16.9439 7.89798C17.2987 7.70538 17.4507 7.54826 17.6534 7.16306L17.7903 6.90456V5.43471C17.7903 4.11184 17.7802 3.93951 17.694 3.7165C17.5115 3.23499 17.03 2.83458 16.508 2.72814C16.1532 2.65212 15.0128 2.66225 14.7188 2.74335ZM16.143 3.8128C16.143 3.828 15.7882 4.30951 15.3574 4.88731L14.5718 5.93142V5.05964C14.5718 3.81787 14.5921 3.79759 15.55 3.79252C15.8744 3.78746 16.143 3.79759 16.143 3.8128ZM16.6702 6.70183C16.5435 6.97045 16.3458 7.03634 15.6869 7.02114L15.1243 7.00593L15.9251 5.94155L16.7259 4.87718L16.7411 5.70334C16.7513 6.37744 16.7411 6.55991 16.6702 6.70183Z" fill="#2BB673"/>
<path d="M19.6455 2.74847C19.5238 2.78901 19.3363 2.90559 19.2248 3.01203C18.9359 3.29586 18.8649 3.5797 18.8903 4.43627C18.9105 5.18133 18.9713 5.39421 19.245 5.64763C19.5035 5.89092 19.6556 5.91626 20.9328 5.91626H22.1239V6.47379V7.03132H20.6845C19.3211 7.03132 19.24 7.03639 19.1183 7.13269C18.9257 7.28475 18.8548 7.53817 18.9511 7.75612C19.0879 8.08557 19.1487 8.0957 20.8467 8.0957H22.3672L22.6359 7.95379C22.8335 7.85242 22.9501 7.74598 23.0616 7.56351L23.2137 7.32023V6.47379V5.62736L23.0616 5.38407C22.9501 5.20161 22.8335 5.09517 22.6359 4.9938L22.3672 4.85188H21.1812H19.9952V4.31969V3.7875H21.3687C22.9045 3.7875 23.0109 3.76723 23.1579 3.45805C23.2035 3.36682 23.239 3.26545 23.239 3.22997C23.239 3.07792 23.0667 2.82449 22.9095 2.75354C22.6815 2.64203 19.9952 2.64203 19.6455 2.74847Z" fill="#2BB673"/>
<path d="M8.25658 9.88929C8.01329 10.1326 8.02343 10.4113 8.29713 10.7104C8.38329 10.8067 8.38329 10.8219 8.31233 10.8827C8.20083 10.9739 8.08425 11.2071 8.08425 11.3389C8.08425 11.5315 8.23631 11.7494 8.42384 11.8305C8.64178 11.9167 8.7837 11.8913 8.99151 11.7139L9.14863 11.5872L9.31082 11.7139C9.40205 11.7798 9.5389 11.8508 9.61493 11.8711C9.8126 11.9217 10.0863 11.7697 10.1877 11.5568C10.289 11.349 10.2586 11.1817 10.0812 10.9435L9.95452 10.7813L10.0812 10.6242C10.2586 10.4164 10.284 10.2745 10.1978 10.0565C10.0356 9.67134 9.61493 9.61559 9.27027 9.92983C9.17397 10.016 9.15877 10.016 9.09795 9.94504C8.99151 9.81833 8.76343 9.71696 8.58603 9.71696C8.47452 9.71696 8.37822 9.76764 8.25658 9.88929Z" fill="#2BB673"/>
<path d="M15.9099 9.81428C15.7274 9.92579 15.6109 10.2096 15.6616 10.387C15.6818 10.4529 15.7528 10.5644 15.8237 10.6404L15.9505 10.7722L15.8237 10.9446C15.7528 11.0358 15.6818 11.1726 15.6616 11.2487C15.6109 11.4463 15.7629 11.72 15.9758 11.8214C16.1836 11.9228 16.3509 11.8924 16.5891 11.7099L16.7614 11.5832L16.8932 11.7099C17.0757 11.8822 17.2581 11.9228 17.4761 11.8315C17.8613 11.6693 17.917 11.2487 17.6028 10.904C17.5166 10.8077 17.5166 10.7925 17.5876 10.7317C17.7143 10.6252 17.8157 10.3972 17.8157 10.2198C17.8157 10.1083 17.765 10.012 17.6433 9.89031C17.4203 9.6673 17.2024 9.65716 16.9135 9.86497C16.7361 9.99675 16.7006 10.0069 16.6448 9.941C16.5536 9.82949 16.3205 9.71798 16.1836 9.71798C16.1177 9.71798 15.9961 9.7636 15.9099 9.81428Z" fill="#2BB673"/>
<path d="M11.5966 10.3362C11.3077 10.4782 11.257 10.9546 11.5104 11.1928L11.6422 11.3145H12.9499H14.2575L14.3893 11.1928C14.6478 10.9495 14.5921 10.4731 14.288 10.3312C14.1207 10.2602 11.7537 10.2602 11.5966 10.3362Z" fill="#2BB673"/>
</svg>
