<svg width="25" height="25" viewBox="0 0 25 25" fill="none" xmlns="http://www.w3.org/2000/svg">
<path d="M11.6794 0.041803C9.90075 0.232372 8.2198 1.03374 6.94442 2.31397C5.41984 3.83364 4.61845 5.78331 4.61845 7.95287C4.61845 9.89276 5.22926 11.8327 6.52418 14.012C6.71476 14.3345 7.34511 15.2825 7.43796 15.39C7.47705 15.429 7.50637 15.4779 7.50637 15.4975C7.50637 15.5121 6.67078 15.5365 5.6495 15.5414C4.03696 15.5561 3.78775 15.5659 3.71934 15.6343C3.60206 15.7515 1.15393 21.7081 1.15393 21.8791C1.15393 22.1576 1.48621 22.3237 1.70611 22.1527C1.75497 22.1185 1.88202 21.884 1.98464 21.6299L2.17521 21.1754L3.42615 21.1608L4.67221 21.151L4.59891 21.3318C4.55493 21.4344 4.26174 22.1381 3.94901 22.9003L3.38217 24.2783H2.141C1.16859 24.2783 0.904723 24.2636 0.924268 24.2148C0.938928 24.1855 1.03177 23.9509 1.1295 23.6968C1.2761 23.3352 1.30541 23.2131 1.27121 23.1153C1.20768 22.9345 1.00245 22.827 0.826539 22.8857C0.670171 22.9394 0.567555 23.1251 0.201068 24.0389C-0.0628023 24.679 -0.0628023 24.8256 0.176636 24.9477C0.274365 24.9966 2.77625 25.0064 12.5541 24.9966L24.8143 24.9868L24.9072 24.8695C24.956 24.806 25 24.7132 25 24.6643C25 24.5275 21.3596 15.7271 21.2618 15.6343C21.1934 15.5659 20.954 15.5561 19.3317 15.5414C18.3104 15.5365 17.4748 15.5121 17.4748 15.4975C17.4748 15.4779 17.5041 15.429 17.5432 15.39C17.6361 15.2825 18.2664 14.3345 18.457 14.012C19.7519 11.8327 20.3627 9.89276 20.3627 7.95287C20.3627 5.78331 19.5613 3.83364 18.0368 2.31397C16.3558 0.633056 14.0152 -0.202516 11.6794 0.041803ZM13.1796 0.774761C15.5056 1.01419 17.5188 2.32375 18.6915 4.36626C19.6151 5.97877 19.8692 7.85514 19.4196 9.81458C18.9017 12.1014 17.509 14.5251 15.2905 17.0025C14.494 17.8967 12.6274 19.6851 12.4906 19.6851C12.3196 19.6851 9.97893 17.3787 9.19221 16.4356C6.96885 13.7774 5.74235 11.3636 5.40518 8.99367C5.32699 8.42685 5.33677 7.38605 5.42472 6.83388C5.98667 3.34989 8.88436 0.813853 12.3977 0.730784C12.5492 0.730784 12.9011 0.75033 13.1796 0.774761ZM6.65123 16.3477C6.63657 16.3965 6.43134 16.8901 6.20168 17.4471L5.78144 18.4635H4.54027C3.82684 18.4635 3.30399 18.4439 3.31376 18.4195C3.32353 18.3951 3.52388 17.9016 3.76332 17.3201L4.2031 16.2646H5.44427C6.60725 16.2646 6.68544 16.2695 6.65123 16.3477ZM8.61072 16.8852C9.6271 18.0872 11.9042 20.2959 12.3489 20.5109C12.5541 20.6135 12.6567 20.55 13.4874 19.817L14.1911 19.1965H16.3216C18.3886 19.1965 18.457 19.1916 18.5498 19.0987C18.6818 18.9668 18.6769 18.7029 18.5449 18.5808C18.4472 18.4928 18.3348 18.4879 16.6832 18.4733L14.9241 18.4586L15.3541 18.0091C15.5935 17.7599 16.0382 17.2663 16.346 16.9096L16.8982 16.2646H18.8381H20.7781L21.2179 17.3201C21.4573 17.9016 21.6576 18.3951 21.6674 18.4146C21.6772 18.4391 21.2227 18.4635 20.6559 18.4733C19.6737 18.4879 19.6249 18.4928 19.5222 18.5954C19.4538 18.6638 19.4147 18.7567 19.4196 18.8593C19.4294 19.1622 19.4538 19.1671 20.783 19.1965L21.9899 19.2209L22.244 19.817L22.4981 20.418H18.6769C14.5185 20.418 14.6895 20.4083 14.6211 20.6917C14.6016 20.7601 14.6016 20.8578 14.6162 20.9067C14.6309 20.9556 15.486 21.7325 16.5122 22.6267L18.3739 24.2539L17.3136 24.2685L16.2532 24.2783L12.4857 21.0728C10.4089 19.3088 8.65469 17.838 8.57651 17.8136C8.39082 17.7403 8.22468 17.8234 8.12695 18.0335C8.0732 18.1508 5.71791 23.8336 5.56643 24.2148C5.54689 24.2636 5.3612 24.2783 4.86278 24.2783C4.49141 24.2783 4.18356 24.2734 4.18356 24.2636C4.18356 24.2539 4.48652 23.5111 4.85789 22.612C5.22927 21.7129 5.55177 20.9165 5.57132 20.8432C5.59575 20.7308 5.57621 20.6819 5.45893 20.5646L5.31722 20.418H3.90014H2.48306L2.73716 19.817L2.99125 19.2209L4.57936 19.2062C6.1577 19.1965 6.17236 19.1965 6.27009 19.0841C6.32384 19.0254 6.60725 18.3951 6.89556 17.6817C7.18875 16.9683 7.44773 16.3575 7.47216 16.3233C7.50148 16.289 7.63342 16.2646 7.79956 16.2646H8.08297L8.61072 16.8852ZM11.8798 21.5175L15.0951 24.2539L12.8864 24.2685C11.6697 24.2734 9.7004 24.2734 8.5081 24.2685L6.34338 24.2539L7.47216 21.5077C8.09763 19.9929 8.62049 18.7616 8.63515 18.7713C8.64981 18.7762 10.1109 20.0125 11.8798 21.5175ZM23.4412 22.7098C23.7882 23.5502 24.0716 24.249 24.0716 24.2587C24.0716 24.2685 23.0454 24.2783 21.7896 24.2783L19.5027 24.2734L17.7436 22.7342C16.776 21.884 15.9747 21.1803 15.9649 21.1706C15.9502 21.1608 17.4895 21.1559 19.3757 21.1608L22.806 21.1754L23.4412 22.7098Z" fill="#2BB673"/>
<path d="M12.0612 5.02239C11.4745 5.08303 10.7857 5.31261 10.4949 5.54651C10.3112 5.69379 10.301 5.88005 10.4643 6.01C10.6275 6.14428 10.7449 6.13128 11.199 5.93203C11.6939 5.71978 11.9847 5.66347 12.5408 5.66347C13.0816 5.6678 13.5408 5.78042 13.9643 6.02299C15.4642 6.87198 15.6683 8.59163 14.3979 9.6702C13.102 10.7704 10.9286 10.4845 10.0714 9.09843C9.67857 8.46601 9.64285 7.85526 9.94387 7.11889L10.1122 6.71172L10.0102 6.59476C9.87755 6.44316 9.61734 6.4085 9.47449 6.52112C9.35204 6.61642 9.19898 6.89797 9.08673 7.24883C9.02551 7.43076 9 7.67333 9 8.03285C9.0051 8.47468 9.02551 8.60462 9.13775 8.89917C9.32653 9.38864 9.59694 9.75683 10.0408 10.138C10.6837 10.6881 11.5714 11 12.4898 11C14.0102 11 15.3724 10.1467 15.8316 8.90351C16.1122 8.15847 16.0408 7.40477 15.6275 6.69006C15.2551 6.03599 14.7551 5.61582 13.9949 5.30394C13.3571 5.04405 12.7398 4.95309 12.0612 5.02239Z" fill="#2BB673"/>
</svg>
