<svg width="20" height="20" viewBox="0 0 20 20" fill="none" xmlns="http://www.w3.org/2000/svg">
<path fill-rule="evenodd" clip-rule="evenodd" d="M10 1.66669C5.85787 1.66669 2.5 5.02455 2.5 9.16669C2.5 11.42 3.67382 13.3796 4.97993 14.8728C6.29551 16.3767 7.831 17.5063 8.74492 18.1143C9.50917 18.6228 10.4908 18.6228 11.2551 18.1143C12.169 17.5063 13.7045 16.3767 15.0201 14.8728C16.3262 13.3796 17.5 11.42 17.5 9.16669C17.5 5.02455 14.1422 1.66669 10 1.66669ZM8.33333 9.16669C8.33333 8.24621 9.0795 7.50002 10 7.50002C10.9205 7.50002 11.6667 8.24621 11.6667 9.16669C11.6667 10.0872 10.9205 10.8334 10 10.8334C9.0795 10.8334 8.33333 10.0872 8.33333 9.16669ZM10 5.83335C8.15905 5.83335 6.66667 7.32574 6.66667 9.16669C6.66667 11.0076 8.15905 12.5 10 12.5C11.8409 12.5 13.3333 11.0076 13.3333 9.16669C13.3333 7.32574 11.8409 5.83335 10 5.83335Z" fill="white"/>
</svg>
