<svg width="20" height="20" viewBox="0 0 20 20" fill="none" xmlns="http://www.w3.org/2000/svg">
<path fill-rule="evenodd" clip-rule="evenodd" d="M10 1.66699C5.85787 1.66699 2.5 5.02486 2.5 9.16699C2.5 11.4203 3.67382 13.3799 4.97993 14.8731C6.29551 16.377 7.831 17.5066 8.74492 18.1146C9.50917 18.6231 10.4908 18.6231 11.2551 18.1146C12.169 17.5066 13.7045 16.377 15.0201 14.8731C16.3262 13.3799 17.5 11.4203 17.5 9.16699C17.5 5.02486 14.1422 1.66699 10 1.66699ZM8.33333 9.16699C8.33333 8.24652 9.0795 7.50033 10 7.50033C10.9205 7.50033 11.6667 8.24652 11.6667 9.16699C11.6667 10.0875 10.9205 10.8337 10 10.8337C9.0795 10.8337 8.33333 10.0875 8.33333 9.16699ZM10 5.83366C8.15905 5.83366 6.66667 7.32604 6.66667 9.16699C6.66667 11.0079 8.15905 12.5003 10 12.5003C11.8409 12.5003 13.3333 11.0079 13.3333 9.16699C13.3333 7.32604 11.8409 5.83366 10 5.83366Z" fill="#2BB673"/>
</svg>
