<svg width="13" height="14" viewBox="0 0 13 14" fill="none" xmlns="http://www.w3.org/2000/svg">
<path opacity="0.7" fill-rule="evenodd" clip-rule="evenodd" d="M10.0576 11.4769C8.997 12.3357 7.64603 12.8501 6.17488 12.8501C2.76457 12.8501 0 10.0854 0 6.67489C0 3.26458 2.76463 0.5 6.17488 0.5C9.58546 0.5 12.35 3.26463 12.35 6.67489C12.35 8.14601 11.8356 9.49685 10.9769 10.5577L12.8097 12.3904C13.0634 12.6443 13.0634 13.0558 12.8097 13.3097C12.5558 13.5634 12.1442 13.5634 11.8904 13.3097L10.0576 11.4769ZM1.29983 6.6748C1.29983 3.98243 3.48251 1.79975 6.17488 1.79975C8.86724 1.79975 11.0499 3.98243 11.0499 6.6748C11.0499 7.98324 10.5345 9.17131 9.69558 10.047C9.66751 10.0672 9.64063 10.0899 9.61538 10.1153C9.59003 10.1405 9.56728 10.1674 9.54704 10.1955C8.67137 11.0344 7.48331 11.5498 6.1749 11.5498C3.48254 11.5498 1.29985 9.36715 1.29985 6.67478L1.29983 6.6748Z" fill="#2BB673"/>
</svg>
