<svg width="55" height="55" viewBox="0 0 55 55" fill="none" xmlns="http://www.w3.org/2000/svg">
<g clip-path="url(#clip0_1350_185)">
<path d="M25.0293 0.107666C19.7227 0.623291 14.8242 2.57837 10.5273 5.88696C8.43262 7.49829 5.71484 10.5276 4.14648 12.9983C3.46973 14.0618 2.14844 16.7688 1.67578 18.0579C1.14941 19.4973 0.580078 21.7102 0.300781 23.4182C-0.0322266 25.5129 -0.0322266 29.4875 0.300781 31.5823C0.78418 34.5471 1.54688 36.9319 2.84668 39.5852C4.26465 42.4749 5.73633 44.5266 8.09961 46.9006C10.4736 49.2639 12.5254 50.7356 15.415 52.1536C18.0684 53.4534 20.4531 54.2161 23.418 54.6995C25.5127 55.0325 29.4873 55.0325 31.582 54.6995C34.5469 54.2161 36.9316 53.4534 39.585 52.1536C42.4746 50.7356 44.5264 49.2639 46.9004 46.9006C49.2637 44.5266 50.7354 42.4749 52.1533 39.5852C53.0986 37.6624 53.5713 36.4055 54.0869 34.4719C54.7637 31.8938 54.9248 30.4866 54.9248 27.5002C54.9248 24.5139 54.7637 23.1067 54.0869 20.5286C53.5713 18.595 53.0986 17.3381 52.1533 15.4153C50.7354 12.5256 49.2637 10.4739 46.9004 8.09985C44.5264 5.73657 42.4746 4.26489 39.585 2.84692C36.9424 1.54712 34.4932 0.773682 31.6357 0.32251C30.0566 0.0754395 26.5332 -0.0427246 25.0293 0.107666ZM42.4209 15.179C43.2158 15.7053 43.5596 16.844 43.1836 17.7249C43.0547 18.0471 26.4043 36.8889 25.6631 37.5657C25.1045 38.0706 23.9658 38.1995 23.3428 37.8127C22.9453 37.5764 12.9121 29.5842 12.375 29.0686C11.8594 28.5959 11.6768 28.177 11.6768 27.5002C11.6768 26.6624 12.1064 25.9641 12.8799 25.5667C13.1699 25.4163 13.9971 25.3733 14.4268 25.4915C14.5879 25.5344 16.7793 27.2209 19.293 29.2297C21.8066 31.2385 23.9229 32.9036 23.998 32.9358C24.084 32.968 27.3389 29.3909 32.0225 24.1165C37.8555 17.553 40.0146 15.2004 40.3369 15.0286C40.9385 14.7278 41.8301 14.7815 42.4209 15.179Z" fill="#41FFA4"/>
</g>
<defs>
<clipPath id="clip0_1350_185">
<rect width="55" height="55" fill="white"/>
</clipPath>
</defs>
</svg>
