<svg width="28" height="29" viewBox="0 0 28 29" fill="none" xmlns="http://www.w3.org/2000/svg">
<path d="M20.8787 28.0034C20.486 27.9402 20.0919 27.8843 19.7006 27.8118C18.1771 27.5272 16.7536 26.9545 15.3702 26.2758C13.104 25.1631 10.9961 23.7999 9.10668 22.1268C5.32058 18.774 2.32421 14.8573 0.639485 10.0303C0.223565 8.83769 -0.0261317 7.61171 0.00217694 6.33927C0.0297597 5.11474 0.427533 4.03829 1.29349 3.15854C2.06 2.38042 2.80328 1.57253 3.62569 0.85683C4.95619 -0.302373 6.32735 -0.288581 7.60269 0.917803C8.89182 2.13653 10.1367 3.40606 11.3518 4.70028C12.3484 5.76221 12.3426 7.20378 11.3692 8.28386C10.6876 9.04021 9.94723 9.7443 9.22064 10.46C9.07692 10.6015 9.06385 10.7003 9.14878 10.8774C9.87101 12.3922 10.9199 13.6705 12.053 14.8849C13.2064 16.121 14.4752 17.2258 15.9037 18.1367C16.2782 18.3755 16.6847 18.5657 17.0672 18.7929C17.2204 18.8836 17.3126 18.8677 17.4367 18.7406C18.0413 18.1222 18.6554 17.5125 19.2695 16.9035C19.7486 16.428 20.2842 16.0441 20.9709 15.9308C21.8971 15.7777 22.6818 16.0789 23.335 16.7206C24.5233 17.8885 25.6999 19.0695 26.8751 20.2504C28.1388 21.5207 28.2412 22.9601 27.0732 24.3066C26.2639 25.2393 25.3682 26.1016 24.4703 26.9516C23.833 27.5548 23.0258 27.8495 22.1533 27.954C22.0916 27.9613 22.0321 27.9867 21.9719 28.0041C21.6075 28.0034 21.2431 28.0034 20.8787 28.0034ZM1.41761 6.35452C1.42705 7.8585 1.78272 9.05908 2.22622 10.2386C3.47616 13.5631 5.47736 16.4084 7.87489 18.9882C10.21 21.5011 12.9298 23.5081 16.0111 25.0194C17.5448 25.7721 19.125 26.3825 20.8446 26.5611C21.8899 26.6692 22.8821 26.5473 23.6718 25.791C24.4797 25.0165 25.2593 24.2107 26.0164 23.3862C26.6261 22.7227 26.6152 22.0419 25.9859 21.3973C24.7715 20.1524 23.5368 18.9265 22.2949 17.7092C21.7919 17.2163 21.1444 17.2112 20.5847 17.6439C20.4555 17.744 20.338 17.8594 20.2218 17.9749C19.5439 18.6492 18.871 19.3286 18.1909 20.0007C17.7474 20.4384 17.2719 20.5147 16.7203 20.2352C16.3225 20.0341 15.9254 19.8294 15.5436 19.6008C13.7406 18.52 12.1756 17.151 10.766 15.5998C9.59228 14.3092 8.52236 12.9461 7.79649 11.3405C7.42267 10.513 7.49526 10.1522 8.14636 9.52363C8.85335 8.8406 9.56179 8.15683 10.2339 7.44041C10.8088 6.82705 10.803 6.18104 10.2202 5.56986C9.32879 4.6335 8.40695 3.72617 7.49454 2.81013C7.16064 2.47478 6.82674 2.13725 6.47397 1.82295C5.92449 1.33372 5.29154 1.32646 4.71158 1.78158C4.59762 1.87086 4.48874 1.96958 4.38566 2.07192C3.75271 2.70125 3.12992 3.34001 2.48971 3.96207C1.7486 4.68285 1.39075 5.55099 1.41761 6.35452Z" fill="#2BB673"/>
</svg>
