<svg width="26" height="22" viewBox="0 0 26 22" fill="none" xmlns="http://www.w3.org/2000/svg">
<path d="M21.4813 0.184069C21.1826 0.278656 16.284 1.87171 10.6037 3.71367C1.22466 6.76038 0.258871 7.08397 0.139392 7.21838C0.0597394 7.30301 0 7.42249 0 7.48721C0 7.54695 0.313632 8.56749 0.696959 9.74735L1.39392 11.888V16.712C1.39392 21.2024 1.3989 21.5409 1.48353 21.7052C1.53829 21.8247 1.62292 21.8993 1.7424 21.9392C1.87681 21.984 4.60491 21.9989 13.2572 21.9989C23.1042 22.0039 24.6176 21.9939 24.7719 21.9292C25.1055 21.7898 25.0905 22.0337 25.0905 16.7319C25.0905 13.8743 25.0706 11.9029 25.0457 11.8332C25.0159 11.7636 24.9462 11.659 24.8864 11.6042C24.7769 11.4997 24.7321 11.4997 22.7557 11.4997C21.6456 11.4997 20.7694 11.4798 20.8092 11.4549C20.849 11.435 21.77 11.1263 22.8503 10.7779C25.3544 9.97137 25.3245 9.98133 25.4141 9.80709C25.454 9.72743 25.4888 9.62289 25.4888 9.57311C25.4888 9.43372 22.5118 0.293591 22.4371 0.208961C22.3873 0.149221 22.0986 -0.00510552 22.0438 -0.000127235C22.0339 0.00485105 21.785 0.0845035 21.4813 0.184069ZM23.0445 5.18226C23.7663 7.3976 24.3488 9.22463 24.3388 9.23458C24.3239 9.24454 22.7607 9.7573 20.859 10.3746L17.4041 11.4997H9.87193C2.75299 11.4997 2.33979 11.4947 2.29997 11.4101C2.22529 11.2757 1.13007 7.86556 1.14998 7.84564C1.17985 7.81577 3.66402 7.01925 3.71878 7.01925C3.74367 7.01925 3.99756 7.73114 4.2863 8.59736C4.72937 9.94648 4.82395 10.1904 4.93846 10.275C5.21226 10.4742 5.60057 10.3348 5.69515 10.0112C5.73498 9.86683 5.67026 9.63782 5.2272 8.28373C4.94343 7.42747 4.72439 6.7106 4.73932 6.69068C4.76422 6.66579 21.5908 1.16977 21.7103 1.14986C21.7252 1.14488 22.3226 2.96195 23.0445 5.18226ZM5.17741 15.3529V18.2154L5.29191 18.3448C5.36161 18.4295 5.47113 18.4842 5.60554 18.5041C5.78476 18.529 5.83455 18.5091 5.97892 18.3797L6.14818 18.2303L6.16311 15.3628L6.17307 12.4954H15.134H24.0949L24.0849 16.7369L24.07 20.9833H13.2422H2.41447L2.39953 16.7369L2.38958 12.4954H3.78349H5.17741V15.3529Z" fill="#2BB673"/>
<path d="M14.8851 4.78315C11.8583 5.76885 8.89621 6.72966 8.29881 6.92381C7.2932 7.2474 7.20359 7.28723 7.11398 7.4316C6.93974 7.71038 7.05424 8.03397 7.36787 8.16341C7.48735 8.21319 7.56203 8.20821 7.82588 8.12358C20.3761 4.0613 20.7246 3.94182 20.874 3.78252C21.0183 3.61823 21.0432 3.46391 20.9486 3.2598C20.8839 3.11045 20.6698 2.98599 20.5006 2.99097C20.4359 2.99097 17.9119 3.79745 14.8851 4.78315Z" fill="#2BB673"/>
<path d="M19.7439 5.20129C19.037 5.43029 18.4048 5.65431 18.345 5.69414C18.2803 5.73396 18.2056 5.84846 18.1708 5.94305C18.0663 6.25668 18.3052 6.57031 18.6437 6.57031C18.7085 6.57031 19.2511 6.41101 19.8485 6.21685C20.4459 6.0227 20.9885 5.84348 21.0582 5.82357C21.4863 5.69414 21.6556 5.45518 21.556 5.14652C21.4963 4.97228 21.2573 4.77813 21.108 4.77813C21.0682 4.78311 20.4558 4.97228 19.7439 5.20129Z" fill="#2BB673"/>
<path d="M12.5701 7.54161C12.5452 7.55157 11.5346 7.87516 10.3299 8.26346C9.12512 8.65675 8.05479 9.00522 7.95024 9.04505C7.75609 9.1247 7.6167 9.31886 7.6167 9.50803C7.6167 9.75695 7.86064 10.0059 8.10457 10.0059C8.14938 10.0059 9.25455 9.65738 10.5539 9.23423C13.1277 8.40285 13.1426 8.3929 13.1426 8.03944C13.1426 7.76563 12.7891 7.45698 12.5701 7.54161Z" fill="#2BB673"/>
<path d="M21.5063 8.12044C21.0184 8.28472 20.8591 8.42909 20.8591 8.69294C20.8591 8.92194 20.9786 9.0912 21.1827 9.1609C21.4167 9.23557 22.268 8.97172 22.4671 8.75766C22.6563 8.55355 22.6513 8.30961 22.4572 8.11048C22.268 7.9213 22.0689 7.92628 21.5063 8.12044Z" fill="#2BB673"/>
<path d="M19.0419 8.91144C18.4993 9.08568 18.345 9.2201 18.345 9.51879C18.345 9.68308 18.3748 9.74282 18.5093 9.8623C18.7084 10.0415 18.803 10.0415 19.3805 9.85732C19.933 9.6781 20.0874 9.55364 20.0874 9.24997C20.0874 9.08568 20.0575 9.02594 19.9231 8.90647C19.724 8.72725 19.6194 8.72725 19.0419 8.91144Z" fill="#2BB673"/>
<path d="M8.21902 13.9694C8.09457 14.074 8.0647 14.1337 8.0647 14.298C8.0647 14.5569 8.13439 14.6813 8.3385 14.766C8.59737 14.8705 22.1234 14.8705 22.3822 14.761C22.6112 14.6664 22.7307 14.4025 22.6511 14.1636C22.5366 13.8151 23.114 13.84 15.3629 13.84H8.37335L8.21902 13.9694Z" fill="#2BB673"/>
<path d="M8.20927 15.8758C7.97032 16.1197 8.0201 16.4981 8.31382 16.6524C8.53286 16.7669 13.322 16.7669 13.541 16.6524C13.8347 16.4981 13.8845 16.1197 13.6456 15.8758L13.5012 15.7314H10.9274H8.35364L8.20927 15.8758Z" fill="#2BB673"/>
<path d="M19.261 15.8757C19.027 16.1097 19.0967 16.5329 19.3904 16.6673C19.5497 16.742 22.1832 16.7519 22.3724 16.6772C22.4421 16.6523 22.5467 16.5578 22.6014 16.4682C22.7358 16.2541 22.701 16.05 22.5019 15.8658L22.3525 15.7314H20.8789H19.4054L19.261 15.8757Z" fill="#2BB673"/>
<path d="M18.5341 19.0907C18.3349 19.1754 18.1906 19.4442 18.2404 19.6383C18.2603 19.713 18.33 19.8275 18.3947 19.8922C18.5092 20.0067 18.544 20.0117 19.1315 20.0117C19.7289 20.0117 19.7538 20.0067 19.8782 19.8873C20.0425 19.718 20.0773 19.5288 19.9728 19.3148C19.9131 19.1953 19.8334 19.1206 19.7139 19.0808C19.47 18.9961 18.7332 19.0011 18.5341 19.0907Z" fill="#2BB673"/>
<path d="M21.1727 19.0907C20.9437 19.1903 20.8342 19.4293 20.9038 19.6682C20.9935 19.9719 21.093 20.0117 21.78 20.0117C22.4571 20.0117 22.5566 19.9769 22.6512 19.6881C22.7309 19.4392 22.5965 19.1654 22.3525 19.0808C22.1086 19.0011 21.3718 19.0011 21.1727 19.0907Z" fill="#2BB673"/>
<path d="M5.4961 19.2156C5.29199 19.2953 5.17749 19.5094 5.17749 19.7981C5.17749 20.0321 5.1974 20.0918 5.32186 20.2163C5.4961 20.3855 5.78484 20.4104 5.9541 20.271C6.29263 19.9972 6.22791 19.3949 5.84956 19.2356C5.65541 19.1559 5.64047 19.1559 5.4961 19.2156Z" fill="#2BB673"/>
</svg>
