<svg width="20" height="20" viewBox="0 0 20 20" fill="none" xmlns="http://www.w3.org/2000/svg">
<path d="M2.84236 0.0504242C2.5665 0.114555 2.21182 0.31188 2.03448 0.499339C1.94581 0.588135 1.81281 0.795327 1.73892 0.95812C1.60591 1.24424 1.60099 1.28371 1.58621 2.20127L1.5665 3.15336H1.02463C0.394089 3.15336 0.197044 3.21749 0.0788177 3.47402C0.00985222 3.61708 0 3.9772 0 6.30563C0 9.17671 0.00492611 9.21125 0.251232 9.38884C0.344828 9.45297 0.492611 9.46777 0.970443 9.46777H1.57143L1.58621 13.0542C1.60099 16.3988 1.60591 16.6603 1.69458 16.8773C1.80788 17.1782 2.14778 17.5581 2.4335 17.711L2.6601 17.8294V18.2833C2.6601 19.0676 2.95566 19.5708 3.58621 19.8668C3.85714 19.9951 3.89655 20 4.70443 20C5.71429 20 5.92118 19.9457 6.32512 19.5758C6.68473 19.2502 6.80788 18.9492 6.83744 18.3573L6.85714 17.9034H10H13.1429L13.1626 18.3622C13.1921 18.9492 13.3153 19.2502 13.6749 19.5758C14.0788 19.9457 14.2857 20 15.2956 20C16.0985 20 16.1429 19.9951 16.4089 19.8717C16.7488 19.7089 17.0345 19.4327 17.197 19.1071C17.2956 18.9098 17.3202 18.7766 17.33 18.3474L17.3498 17.8245L17.5665 17.7061C17.8522 17.5581 18.1921 17.1782 18.3054 16.8773C18.3941 16.6603 18.399 16.3988 18.4138 13.0591L18.4286 9.46777H19.0296C19.5074 9.46777 19.6552 9.45297 19.7488 9.38884C19.9951 9.21125 20 9.17671 20 6.30563C20 3.9772 19.9901 3.61708 19.9212 3.47402C19.803 3.21749 19.6059 3.15336 18.9754 3.15336H18.4335L18.4138 2.20127C18.399 1.30344 18.3941 1.23931 18.2709 0.982786C18.0296 0.474673 17.7143 0.203351 17.2069 0.0701567C16.9655 0.00602601 15.9803 -0.00384025 9.97537 0.00109288C6.14286 0.00602601 2.94581 0.0257585 2.84236 0.0504242ZM17.197 1.22451L17.3399 1.36757V2.26047V3.15336H10H2.6601V2.26047V1.36757L2.80296 1.22451L2.94581 1.08145H10H17.0542L17.197 1.22451ZM1.57635 6.33523V8.43181H1.33005H1.08374V6.33523V4.23865H1.33005H1.57635V6.33523ZM17.3399 7.91383V11.589H10H2.6601V7.91383V4.23865H10H17.3399V7.91383ZM18.9163 6.33523V8.43181H18.67H18.4236V6.33523V4.23865H18.67H18.9163V6.33523ZM17.3399 14.5637C17.3399 16.7096 17.3498 16.6603 17.0148 16.7984C16.7685 16.902 3.23153 16.902 2.98522 16.7984C2.65025 16.6603 2.6601 16.7096 2.6601 14.5637V12.625H10H17.3399V14.5637ZM5.81281 18.1747C5.81281 18.3277 5.78325 18.525 5.74384 18.6138C5.62069 18.9098 5.52709 18.9394 4.76847 18.9394C4.38916 18.9394 4.04433 18.9147 3.97537 18.8851C3.78325 18.7963 3.69458 18.5891 3.69458 18.229V17.9034H4.75369H5.81281V18.1747ZM16.3054 18.229C16.3054 18.5891 16.2167 18.7963 16.0246 18.8851C15.9557 18.9147 15.6108 18.9394 15.2315 18.9394C14.4729 18.9394 14.3793 18.9098 14.2562 18.6138C14.2167 18.525 14.1872 18.3277 14.1872 18.1747V17.9034H15.2463H16.3054V18.229Z" fill="white"/>
<path d="M6.12808 1.64384C5.92611 1.73264 5.81281 1.90037 5.81281 2.11742C5.81281 2.33941 5.92611 2.50221 6.13793 2.591C6.38423 2.6946 13.6158 2.6946 13.8621 2.591C14.0739 2.50221 14.1872 2.33941 14.1872 2.11742C14.1872 1.89543 14.0739 1.73264 13.8621 1.64384C13.6207 1.54518 6.3596 1.54518 6.12808 1.64384Z" fill="white"/>
<path d="M4.77833 13.2466C4.0739 13.5031 3.64533 14.1543 3.70937 14.8696C3.76356 15.4418 4.03942 15.8611 4.54188 16.1324C4.82267 16.2854 4.88671 16.3002 5.27094 16.3002C5.66011 16.3002 5.71429 16.2854 6.00986 16.1226C7.40888 15.353 6.93597 13.2663 5.34484 13.1824C5.10838 13.1726 4.93104 13.1923 4.77833 13.2466ZM5.49262 14.2825C5.64533 14.3516 5.81282 14.5982 5.81282 14.7462C5.81282 14.7808 5.77833 14.8794 5.734 14.9682C5.6404 15.1705 5.37439 15.3086 5.17242 15.2642C4.99016 15.2247 4.79311 15.0274 4.7537 14.8449C4.70937 14.6476 4.8473 14.3763 5.03942 14.2825C5.23646 14.1839 5.29065 14.1839 5.49262 14.2825Z" fill="white"/>
<path d="M14.2364 13.2466C13.532 13.5031 13.1034 14.1543 13.1675 14.8696C13.2217 15.4418 13.4975 15.8611 14 16.1324C14.2808 16.2854 14.3448 16.3002 14.7291 16.3002C15.1182 16.3002 15.1724 16.2854 15.468 16.1226C16.867 15.353 16.3941 13.2663 14.803 13.1824C14.5665 13.1726 14.3892 13.1923 14.2364 13.2466ZM14.9507 14.2825C15.1034 14.3516 15.2709 14.5982 15.2709 14.7462C15.2709 14.7808 15.2364 14.8794 15.1921 14.9682C15.0985 15.1705 14.8325 15.3086 14.6305 15.2642C14.4483 15.2247 14.2512 15.0274 14.2118 14.8449C14.1675 14.6476 14.3054 14.3763 14.4975 14.2825C14.6946 14.1839 14.7488 14.1839 14.9507 14.2825Z" fill="white"/>
<path d="M8.19212 14.2825C8.04926 14.3565 7.88177 14.6031 7.88177 14.7462C7.88177 14.8942 8.04926 15.1408 8.20197 15.2099C8.44335 15.3283 11.5567 15.3283 11.798 15.2099C11.9507 15.1408 12.1182 14.8942 12.1182 14.7462C12.1182 14.5982 11.9507 14.3515 11.798 14.2825C11.5567 14.1641 8.42857 14.169 8.19212 14.2825Z" fill="white"/>
</svg>
