<svg width="20" height="20" viewBox="0 0 20 20" fill="none" xmlns="http://www.w3.org/2000/svg">
<path fill-rule="evenodd" clip-rule="evenodd" d="M10 2.23145C9.23862 2.23145 8.49179 2.44007 7.84063 2.83466L3.67396 5.35966C3.06125 5.73095 2.55461 6.25397 2.20299 6.87819C1.85138 7.50241 1.66666 8.20675 1.66667 8.92318V14.1665C1.66667 15.2716 2.10566 16.3314 2.88706 17.1128C3.66846 17.8942 4.72827 18.3332 5.83334 18.3332H14.1667C15.2717 18.3332 16.3315 17.8942 17.1129 17.1128C17.8943 16.3314 18.3333 15.2716 18.3333 14.1665V8.92235C18.3332 8.20608 18.1484 7.50176 17.7968 6.87774C17.4452 6.25372 16.9386 5.73087 16.3261 5.35966L12.1594 2.83466C11.5082 2.44008 10.7614 2.23145 10 2.23145ZM8.70439 4.26003C9.09508 4.02328 9.54318 3.89811 10 3.89811C10.4568 3.89811 10.9049 4.02328 11.2956 4.26003L15.4623 6.78503C15.8298 7.00776 16.1338 7.32147 16.3447 7.69589C16.5557 8.07025 16.6665 8.49266 16.6667 8.92235V14.1665C16.6667 14.8296 16.4033 15.4654 15.9344 15.9343C15.4656 16.4031 14.8297 16.6665 14.1667 16.6665H13.3333V14.1665C13.3333 13.2825 12.9821 12.4346 12.357 11.8095C11.7319 11.1844 10.8841 10.8332 10 10.8332C9.11595 10.8332 8.2681 11.1844 7.64298 11.8095C7.01786 12.4346 6.66667 13.2825 6.66667 14.1665V16.6665H5.83334C5.1703 16.6665 4.53441 16.4031 4.06557 15.9343C3.59673 15.4654 3.33334 14.8296 3.33334 14.1665V8.92318C3.33333 8.49332 3.44416 8.07069 3.65513 7.69616C3.8661 7.32163 4.17008 7.00782 4.53771 6.78504L8.70439 4.26003ZM11.1785 12.988C11.4911 13.3006 11.6667 13.7245 11.6667 14.1665V16.6665H8.33334V14.1665C8.33334 13.7245 8.50893 13.3006 8.82149 12.988C9.13405 12.6754 9.55798 12.4999 10 12.4999C10.442 12.4999 10.866 12.6754 11.1785 12.988Z" fill="white"/>
</svg>
