<svg width="14" height="16" viewBox="0 0 14 16" fill="none" xmlns="http://www.w3.org/2000/svg">
<path fill-rule="evenodd" clip-rule="evenodd" d="M6.99999 0.5C5.89493 0.5 4.83512 0.938987 4.05372 1.72039C3.27231 2.50179 2.83333 3.5616 2.83333 4.66667C2.83333 5.77174 3.27231 6.83154 4.05372 7.61294C4.10868 7.66791 4.16503 7.72119 4.22267 7.77273C3.50891 8.09981 2.8518 8.55343 2.28595 9.11929C1.03571 10.3695 0.333328 12.0652 0.333328 13.8333V14.6667C0.333328 15.1269 0.706424 15.5 1.16666 15.5C1.6269 15.5 1.99999 15.1269 1.99999 14.6667V13.8333C1.99999 12.5073 2.52678 11.2355 3.46446 10.2978C4.40214 9.36012 5.67391 8.83333 6.99999 8.83333C8.32608 8.83333 9.59785 9.36012 10.5355 10.2978C11.4732 11.2355 12 12.5073 12 13.8333V14.6667C12 15.1269 12.3731 15.5 12.8333 15.5C13.2936 15.5 13.6667 15.1269 13.6667 14.6667V13.8333C13.6667 12.0652 12.9643 10.3695 11.714 9.11929C11.1482 8.55343 10.4911 8.09981 9.77732 7.77273C9.83496 7.72119 9.8913 7.66791 9.94627 7.61294C10.7277 6.83154 11.1667 5.77174 11.1667 4.66667C11.1667 3.5616 10.7277 2.50179 9.94627 1.72039C9.16487 0.938987 8.10506 0.5 6.99999 0.5ZM5.23223 2.8989C5.70107 2.43006 6.33695 2.16667 6.99999 2.16667C7.66304 2.16667 8.29892 2.43006 8.76776 2.8989C9.2366 3.36774 9.49999 4.00363 9.49999 4.66667C9.49999 5.32971 9.2366 5.96559 8.76776 6.43443C8.29892 6.90327 7.66304 7.16667 6.99999 7.16667C6.33695 7.16667 5.70107 6.90327 5.23223 6.43443C4.76339 5.96559 4.49999 5.32971 4.49999 4.66667C4.49999 4.00363 4.76339 3.36774 5.23223 2.8989Z" fill="white"/>
</svg>
