<svg width="20" height="20" viewBox="0 0 20 20" fill="none" xmlns="http://www.w3.org/2000/svg">
<path d="M5.83333 1.66669C5.17029 1.66669 4.53441 1.93008 4.06557 2.39892C3.59672 2.86776 3.33333 3.50365 3.33333 4.16669V15.8334C3.33333 16.4964 3.59672 17.1323 4.06557 17.6011C4.53441 18.07 5.17029 18.3334 5.83333 18.3334H14.1667C14.8297 18.3334 15.4656 18.07 15.9344 17.6011C16.4033 17.1323 16.6667 16.4964 16.6667 15.8334V15C16.6667 14.5398 16.2936 14.1667 15.8333 14.1667C15.3731 14.1667 15 14.5398 15 15V15.8334C15 16.0544 14.9122 16.2663 14.7559 16.4226C14.5996 16.5789 14.3877 16.6667 14.1667 16.6667H5.83333C5.61232 16.6667 5.40036 16.5789 5.24408 16.4226C5.0878 16.2663 5 16.0544 5 15.8334V4.16669C5 3.94567 5.0878 3.73371 5.24408 3.57743C5.40036 3.42115 5.61232 3.33335 5.83333 3.33335H14.1667C14.3877 3.33335 14.5996 3.42115 14.7559 3.57743C14.9122 3.73371 15 3.94567 15 4.16669V5.00002C15 5.46026 15.3731 5.83335 15.8333 5.83335C16.2936 5.83335 16.6667 5.46026 16.6667 5.00002V4.16669C16.6667 3.50365 16.4033 2.86776 15.9344 2.39892C15.4656 1.93008 14.8297 1.66669 14.1667 1.66669H5.83333Z" fill="#CC8889"/>
<path d="M13.9226 6.91076C13.5972 6.58533 13.0695 6.58533 12.7441 6.91076C12.4186 7.2362 12.4186 7.76384 12.7441 8.08928L13.8215 9.16669H10C9.53976 9.16669 9.16667 9.53978 9.16667 10C9.16667 10.4603 9.53976 10.8334 10 10.8334H13.8215L12.7441 11.9108C12.4186 12.2362 12.4186 12.7638 12.7441 13.0893C13.0695 13.4147 13.5972 13.4147 13.9226 13.0893L16.4226 10.5893C16.748 10.2638 16.748 9.7362 16.4226 9.41076L13.9226 6.91076Z" fill="#CC8889"/>
</svg>
