<svg width="20" height="21" viewBox="0 0 20 21" fill="none" xmlns="http://www.w3.org/2000/svg">
<path d="M15 0.25C12.2493 0.25 10 2.45064 10 5.14172C10 5.95064 10.319 6.77548 10.7292 7.68949C11.1393 8.6035 11.6569 9.57166 12.1875 10.4666C13.2487 12.2564 14.3229 13.7532 14.3229 13.7532L15 14.7213L15.6771 13.7532C15.6771 13.7532 16.7513 12.2564 17.8125 10.4666C18.3431 9.57166 18.8607 8.6035 19.2708 7.68949C19.681 6.77548 20 5.95064 20 5.14172C20 2.45064 17.7507 0.25 15 0.25ZM6.64062 1.82962L0 4.60669V20.25L6.69271 17.422L13.3594 19.8678L20 17.0908V9.98248C19.4694 10.9793 18.8802 11.9347 18.3333 12.785V16.0207L14.1667 17.7532V16.4283L12.9427 14.6959C12.8125 14.5111 12.6595 14.2914 12.5 14.0589V17.8296L7.5 15.9952V3.86783L8.41146 4.19904C8.49284 3.64809 8.63932 3.11624 8.85417 2.61943L6.64062 1.82962ZM15 1.88057C16.849 1.88057 18.3333 3.3328 18.3333 5.14172C18.3333 5.45701 18.1315 6.20223 17.7604 7.02707C17.3893 7.85191 16.8652 8.78822 16.3542 9.65127C15.6738 10.7978 15.3809 11.2054 15 11.7659C14.6191 11.2054 14.3262 10.7978 13.6458 9.65127C13.1348 8.78822 12.6107 7.85191 12.2396 7.02707C11.8685 6.20223 11.6667 5.45701 11.6667 5.14172C11.6667 3.3328 13.151 1.88057 15 1.88057ZM5.83333 3.91879V16.0207L1.66667 17.7532V5.67675L5.83333 3.91879ZM15 3.91879C14.3099 3.91879 13.75 4.46656 13.75 5.14172C13.75 5.81688 14.3099 6.36465 15 6.36465C15.6901 6.36465 16.25 5.81688 16.25 5.14172C16.25 4.46656 15.6901 3.91879 15 3.91879Z" fill="white"/>
</svg>
