<svg width="21" height="20" viewBox="0 0 21 20" fill="none" xmlns="http://www.w3.org/2000/svg">
<path fill-rule="evenodd" clip-rule="evenodd" d="M12.4 1.79349C12.0914 1.66663 11.7001 1.66663 10.9176 1.66663C10.1351 1.66663 9.74389 1.66663 9.43531 1.79349C9.02381 1.96265 8.69688 2.28711 8.52644 2.69548C8.44863 2.88191 8.41818 3.09871 8.40627 3.41495C8.38876 3.87969 8.14861 4.30987 7.74278 4.5424C7.33696 4.77493 6.84151 4.76624 6.42722 4.54893C6.14529 4.40104 5.94088 4.31881 5.7393 4.29248C5.29772 4.23478 4.85112 4.35353 4.49777 4.62263C4.23276 4.82444 4.03713 5.16071 3.64589 5.83323C3.25465 6.50577 3.05903 6.84203 3.01543 7.17072C2.95729 7.60896 3.07696 8.05218 3.3481 8.40288C3.47186 8.56296 3.64578 8.69746 3.91572 8.86579C4.31257 9.11329 4.56791 9.53488 4.56788 9.99996C4.56786 10.465 4.31252 10.8865 3.91572 11.134C3.64574 11.3024 3.47178 11.437 3.34802 11.597C3.07687 11.9477 2.95722 12.3909 3.01535 12.8291C3.05895 13.1578 3.25457 13.4941 3.64581 14.1666C4.03705 14.8391 4.23267 15.1755 4.49769 15.3772C4.85104 15.6463 5.29763 15.765 5.73922 15.7074C5.94079 15.681 6.14518 15.5988 6.42708 15.451C6.84141 15.2336 7.33689 15.225 7.74274 15.4575C8.14859 15.69 8.38875 16.1202 8.40627 16.585C8.41818 16.9012 8.44863 17.118 8.52644 17.3045C8.69688 17.7128 9.02381 18.0373 9.43531 18.2065C9.74389 18.3333 10.1351 18.3333 10.9176 18.3333C11.7001 18.3333 12.0914 18.3333 12.4 18.2065C12.8115 18.0373 13.1384 17.7128 13.3088 17.3045C13.3866 17.118 13.4171 16.9012 13.4291 16.585C13.4466 16.1202 13.6866 15.69 14.0925 15.4575C14.4983 15.2249 14.9938 15.2336 15.4081 15.451C15.6901 15.5988 15.8944 15.681 16.096 15.7073C16.5376 15.765 16.9841 15.6463 17.3375 15.3772C17.6026 15.1754 17.7981 14.8391 18.1894 14.1665C18.5806 13.494 18.7762 13.1578 18.8199 12.8291C18.878 12.3909 18.7583 11.9476 18.4872 11.597C18.3634 11.4369 18.1895 11.3023 17.9195 11.134C17.5227 10.8865 17.2674 10.465 17.2674 9.99988C17.2674 9.53479 17.5227 9.11338 17.9195 8.86596C18.1896 8.69754 18.3635 8.56304 18.4873 8.40288C18.7584 8.05223 18.8781 7.60902 18.82 7.17077C18.7763 6.84208 18.5807 6.50582 18.1895 5.83329C17.7982 5.16077 17.6026 4.8245 17.3376 4.62268C16.9842 4.35359 16.5376 4.23483 16.0961 4.29253C15.8945 4.31887 15.6901 4.40109 15.4082 4.54896C14.9939 4.76628 14.4984 4.77498 14.0926 4.54243C13.6867 4.30988 13.4466 3.87968 13.429 3.41491C13.4171 3.09869 13.3866 2.8819 13.3088 2.69548C13.1384 2.28711 12.8115 1.96265 12.4 1.79349ZM10.9176 12.5C12.3089 12.5 13.4366 11.3807 13.4366 9.99996C13.4366 8.61921 12.3089 7.49996 10.9176 7.49996C9.52639 7.49996 8.39861 8.61921 8.39861 9.99996C8.39861 11.3807 9.52639 12.5 10.9176 12.5Z" fill="#2BB673"/>
</svg>
