<svg width="18" height="18" viewBox="0 0 18 18" fill="none" xmlns="http://www.w3.org/2000/svg">
<path d="M16.5 3V5.25C16.5 5.64782 16.342 6.02935 16.0607 6.31066C15.7794 6.59196 15.3978 6.75 15 6.75H11.25C10.8522 6.75 10.4706 6.59196 10.1893 6.31066C9.90803 6.02935 9.75 5.64782 9.75 5.25V3C9.75 2.60218 9.90803 2.22064 10.1893 1.93934C10.4706 1.65804 10.8522 1.5 11.25 1.5H15C15.3978 1.5 15.7794 1.65804 16.0607 1.93934C16.342 2.22064 16.5 2.60218 16.5 3ZM6.75 11.25H3C2.60218 11.25 2.22064 11.408 1.93934 11.6893C1.65804 11.9706 1.5 12.3522 1.5 12.75V15C1.5 15.3978 1.65804 15.7794 1.93934 16.0607C2.22064 16.342 2.60218 16.5 3 16.5H6.75C7.14782 16.5 7.52935 16.342 7.81066 16.0607C8.09196 15.7794 8.25 15.3978 8.25 15V12.75C8.25 12.3522 8.09196 11.9706 7.81066 11.6893C7.52935 11.408 7.14782 11.25 6.75 11.25Z" fill="#2BB673"/>
<path d="M8.25 3V8.25C8.25 8.64782 8.09196 9.02935 7.81066 9.31066C7.52935 9.59196 7.14782 9.75 6.75 9.75H3C2.60218 9.75 2.22064 9.59196 1.93934 9.31066C1.65804 9.02935 1.5 8.64782 1.5 8.25V3C1.5 2.60218 1.65804 2.22064 1.93934 1.93934C2.22064 1.65804 2.60218 1.5 3 1.5H6.75C7.14782 1.5 7.52935 1.65804 7.81066 1.93934C8.09196 2.22064 8.25 2.60218 8.25 3ZM15 8.25H11.25C10.8522 8.25 10.4706 8.40804 10.1893 8.68934C9.90803 8.97064 9.75 9.35217 9.75 9.75V15C9.75 15.3978 9.90803 15.7794 10.1893 16.0607C10.4706 16.342 10.8522 16.5 11.25 16.5H15C15.3978 16.5 15.7794 16.342 16.0607 16.0607C16.342 15.7794 16.5 15.3978 16.5 15V9.75C16.5 9.35217 16.342 8.97064 16.0607 8.68934C15.7794 8.40804 15.3978 8.25 15 8.25Z" fill="#2BB673"/>
</svg>
