<svg width="20" height="20" viewBox="0 0 20 20" fill="none" xmlns="http://www.w3.org/2000/svg">
<path d="M13.126 14.6875V10.625H7.46191C7.29615 10.625 7.13718 10.5592 7.01997 10.4419C6.90276 10.3247 6.83691 10.1658 6.83691 10C6.83691 9.83424 6.90276 9.67527 7.01997 9.55806C7.13718 9.44085 7.29615 9.375 7.46191 9.375H13.126V5.3125C13.1254 4.73253 12.8947 4.17649 12.4846 3.76639C12.0745 3.35629 11.5184 3.12562 10.9385 3.125H3.43848C2.85851 3.12562 2.30247 3.35629 1.89237 3.76639C1.48226 4.17649 1.2516 4.73253 1.25098 5.3125V14.6875C1.2516 15.2675 1.48226 15.8235 1.89237 16.2336C2.30247 16.6437 2.85851 16.8744 3.43848 16.875H10.9385C11.5184 16.8744 12.0745 16.6437 12.4846 16.2336C12.8947 15.8235 13.1254 15.2675 13.126 14.6875Z" fill="#2BB673"/>
<path d="M16.617 10.625L14.5592 12.6832C14.4469 12.8014 14.3853 12.9587 14.3873 13.1217C14.3894 13.2847 14.4551 13.4404 14.5703 13.5557C14.6856 13.6709 14.8413 13.7366 15.0043 13.7387C15.1673 13.7408 15.3246 13.6791 15.4428 13.5668L18.5678 10.4418C18.6849 10.3246 18.7507 10.1657 18.7507 10C18.7507 9.83435 18.6849 9.67544 18.5678 9.55824L15.4428 6.43324C15.3246 6.32098 15.1673 6.25932 15.0043 6.2614C14.8413 6.26349 14.6856 6.32916 14.5703 6.44441C14.4551 6.55966 14.3894 6.71538 14.3873 6.87835C14.3853 7.04133 14.4469 7.19867 14.5592 7.31683L16.617 9.37504H13.126V10.625H16.617Z" fill="#2BB673"/>
</svg>
