<svg width="17" height="16" viewBox="0 0 17 16" fill="none" xmlns="http://www.w3.org/2000/svg">
<path fill-rule="evenodd" clip-rule="evenodd" d="M6.19916 0.960218C6.00435 1.12624 5.90693 1.20927 5.80289 1.27899C5.56441 1.43883 5.29658 1.54977 5.01492 1.60538C4.89205 1.62964 4.76447 1.63982 4.50931 1.66018C3.86821 1.71135 3.54765 1.73692 3.28021 1.83139C2.66165 2.04987 2.17511 2.53641 1.95663 3.15497C1.86217 3.4224 1.83659 3.74296 1.78542 4.38407C1.76506 4.63923 1.75489 4.76681 1.73062 4.88968C1.67501 5.17134 1.56408 5.43917 1.40424 5.67765C1.33451 5.78169 1.25149 5.8791 1.08546 6.07392C0.66831 6.56344 0.459726 6.80816 0.337422 7.06408C0.0545181 7.656 0.0545181 8.344 0.337422 8.93592C0.459734 9.19184 0.66831 9.43656 1.08546 9.92608C1.25147 10.1209 1.33451 10.2183 1.40424 10.3223C1.56408 10.5608 1.67501 10.8286 1.73062 11.1103C1.75489 11.2332 1.76506 11.3608 1.78542 11.6159C1.83659 12.257 1.86217 12.5776 1.95663 12.845C2.17511 13.4636 2.66165 13.9502 3.28021 14.1686C3.54765 14.263 3.86821 14.2886 4.50931 14.3398C4.76447 14.3602 4.89205 14.3704 5.01492 14.3946C5.29658 14.4502 5.56441 14.5612 5.80289 14.721C5.90693 14.7907 6.00434 14.8738 6.19916 15.0398C6.68868 15.457 6.93341 15.6655 7.18933 15.7878C7.78124 16.0707 8.46924 16.0707 9.06116 15.7878C9.31708 15.6655 9.5618 15.457 10.0513 15.0398C10.2461 14.8738 10.3436 14.7907 10.4476 14.721C10.686 14.5612 10.9539 14.4502 11.2356 14.3946C11.3584 14.3704 11.486 14.3602 11.7412 14.3398C12.3823 14.2886 12.7028 14.263 12.9703 14.1686C13.5888 13.9502 14.0754 13.4636 14.2939 12.845C14.3883 12.5776 14.4139 12.257 14.4651 11.6159C14.4854 11.3608 14.4956 11.2332 14.5199 11.1103C14.5755 10.8286 14.6864 10.5608 14.8463 10.3223C14.916 10.2183 14.999 10.1209 15.165 9.92608C15.5822 9.43656 15.7908 9.19184 15.9131 8.93592C16.196 8.344 16.196 7.656 15.9131 7.06408C15.7908 6.80816 15.5822 6.56344 15.165 6.07392C14.999 5.8791 14.916 5.78169 14.8463 5.67765C14.6864 5.43917 14.5755 5.17134 14.5199 4.88968C14.4956 4.76681 14.4854 4.63923 14.4651 4.38407C14.4139 3.74296 14.3883 3.4224 14.2939 3.15497C14.0754 2.53641 13.5888 2.04987 12.9703 1.83139C12.7028 1.73692 12.3823 1.71135 11.7412 1.66018C11.486 1.63982 11.3584 1.62964 11.2356 1.60538C10.9539 1.54977 10.686 1.43883 10.4476 1.27899C10.3436 1.20927 10.2461 1.12625 10.0513 0.960218C9.5618 0.543066 9.31708 0.33449 9.06116 0.212178C8.46924 -0.070726 7.78124 -0.070726 7.18933 0.212178C6.93341 0.334482 6.68868 0.543066 6.19916 0.960218ZM11.624 6.29051C11.8783 6.03624 11.8783 5.624 11.624 5.36973C11.3698 5.11546 10.9575 5.11546 10.7032 5.36973L6.82309 9.24992L5.54721 7.97408C5.29295 7.71984 4.8807 7.71984 4.62644 7.97408C4.37217 8.22832 4.37217 8.64056 4.62644 8.89488L6.36267 10.6311C6.61692 10.8854 7.02916 10.8854 7.28348 10.6311L11.624 6.29051Z" fill="#2BB673"/>
</svg>
