<svg width="20" height="20" viewBox="0 0 20 20" fill="none" xmlns="http://www.w3.org/2000/svg">
<path fill-rule="evenodd" clip-rule="evenodd" d="M6.33137 3.73888C6.55372 2.64732 7.52508 1.875 8.63793 1.875H11.3608C12.4736 1.875 13.4449 2.64732 13.6673 3.73888C13.7187 3.99087 13.9469 4.17572 14.1843 4.17572H14.198L14.2117 4.17631C15.3812 4.22745 16.2795 4.37097 17.0295 4.86298C17.502 5.17297 17.9084 5.57181 18.2252 6.0372C18.6193 6.61622 18.793 7.28078 18.8763 8.08454C18.9577 8.86983 18.9577 9.85417 18.9577 11.1009V11.1718C18.9577 12.4186 18.9577 13.4029 18.8763 14.1882C18.793 14.9919 18.6193 15.6565 18.2252 16.2355C17.9084 16.7009 17.502 17.0998 17.0295 17.4097C16.4433 17.7943 15.7712 17.9639 14.956 18.0453C14.1579 18.125 13.1568 18.125 11.8855 18.125H8.11316C6.84183 18.125 5.84074 18.125 5.04265 18.0453C4.22751 17.9639 3.55544 17.7943 2.96922 17.4097C2.4967 17.0998 2.09022 16.7009 1.77351 16.2355C1.37945 15.6565 1.20565 14.9919 1.12237 14.1882C1.041 13.4029 1.04101 12.4186 1.04102 11.1718V11.1009C1.04101 9.85417 1.041 8.86983 1.12237 8.08454C1.20565 7.28078 1.37945 6.61622 1.77351 6.0372C2.09022 5.57181 2.4967 5.17297 2.96922 4.86298C3.71921 4.37097 4.61752 4.22745 5.78704 4.17631L5.80069 4.17572H5.81435C6.05175 4.17572 6.28004 3.99088 6.33137 3.73888ZM8.63793 3.125C8.1037 3.125 7.65689 3.49416 7.55622 3.98839C7.39317 4.78882 6.68352 5.41822 5.82962 5.42565C4.70578 5.47557 4.10382 5.61363 3.65488 5.90815C3.31859 6.12877 3.03062 6.41175 2.8069 6.74047C2.57677 7.07862 2.43848 7.51104 2.36571 8.21337C2.2918 8.92675 2.29102 9.84633 2.29102 11.1363C2.29102 12.4264 2.2918 13.346 2.36571 14.0593C2.43848 14.7617 2.57677 15.1941 2.8069 15.5323C3.03062 15.861 3.31859 16.144 3.65488 16.3646C4.00282 16.5928 4.44805 16.7297 5.16688 16.8015C5.89559 16.8743 6.83429 16.875 8.1475 16.875H11.8512C13.1644 16.875 14.1031 16.8743 14.8318 16.8015C15.5507 16.7297 15.9958 16.5928 16.3438 16.3646C16.6801 16.144 16.9681 15.861 17.1918 15.5323C17.4219 15.1941 17.5602 14.7617 17.633 14.0593C17.7069 13.346 17.7077 12.4264 17.7077 11.1363C17.7077 9.84633 17.7069 8.92675 17.633 8.21337C17.5602 7.51104 17.4219 7.07862 17.1918 6.74047C16.9681 6.41175 16.6801 6.12877 16.3438 5.90815C15.8948 5.61363 15.2929 5.47557 14.1691 5.42565C13.3152 5.41822 12.6055 4.78882 12.4425 3.98839C12.3418 3.49416 11.895 3.125 11.3608 3.125H8.63793ZM9.99935 7.70833C10.3445 7.70833 10.6243 7.98816 10.6243 8.33333V10.2083H12.4993C12.8445 10.2083 13.1243 10.4882 13.1243 10.8333C13.1243 11.1785 12.8445 11.4583 12.4993 11.4583H10.6243V13.3333C10.6243 13.6785 10.3445 13.9583 9.99935 13.9583C9.65418 13.9583 9.37435 13.6785 9.37435 13.3333V11.4583H7.49935C7.15417 11.4583 6.87435 11.1785 6.87435 10.8333C6.87435 10.4882 7.15417 10.2083 7.49935 10.2083H9.37435V8.33333C9.37435 7.98816 9.65418 7.70833 9.99935 7.70833ZM14.3743 8.33333C14.3743 7.98816 14.6542 7.70833 14.9993 7.70833H15.8327C16.1778 7.70833 16.4577 7.98816 16.4577 8.33333C16.4577 8.6785 16.1778 8.95833 15.8327 8.95833H14.9993C14.6542 8.95833 14.3743 8.6785 14.3743 8.33333Z" fill="white"/>
</svg>
